<?xml version="1.0" standalone="no"?>
<!DOCTYPE svg PUBLIC "-//W3C//DTD SVG 1.1//EN" "http://www.w3.org/Graphics/SVG/1.1/DTD/svg11.dtd" >
<svg>
<metadata>
Created by FontForge 20110222 at Mon Mar  7 04:03:39 2011
 By www-data
Generated by Fontographer 3.5
</metadata>
<defs>
<font id="DotMatrixRegular" horiz-adv-x="750" >
  <font-face 
    font-family="DotMatrix"
    font-weight="5"
    font-stretch="normal"
    units-per-em="1000"
    panose-1="0 0 0 0 0 0 0 0 0 0"
    ascent="800"
    descent="-200"
    x-height="553"
    cap-height="803"
    bbox="-64 -303 731 803"
    underline-thickness="20"
    underline-position="-123"
    unicode-range="U+0020-2122"
  />
    <missing-glyph />
    <glyph glyph-name=".null" unicode="&#xd7;" horiz-adv-x="0" 
 />
    <glyph glyph-name=".null" unicode="&#x141;" horiz-adv-x="0" 
 />
    <glyph glyph-name=".null" unicode="&#xfd;" horiz-adv-x="0" 
 />
    <glyph glyph-name="space" unicode=" " horiz-adv-x="500" 
 />
    <glyph glyph-name="space" unicode="&#xa0;" horiz-adv-x="500" 
 />
    <glyph glyph-name="exclam" unicode="!" 
d="M178 53q21 0 36.5 -15.5t15.5 -37.5t-15.5 -37.5t-36.5 -15.5q-22 0 -37.5 15.5t-15.5 37.5t15.5 37.5t37.5 15.5zM178 678q21 0 36.5 -15.5t15.5 -37.5t-15 -37t-37 -15q-21 0 -37 15t-16 37t15.5 37.5t37.5 15.5zM176 303q22 0 37.5 -15.5t15.5 -37.5t-15 -37t-38 -15
q-21 0 -36.5 15.5t-15.5 36.5q0 22 15.5 37.5t36.5 15.5zM178 553q21 0 36.5 -15.5t15.5 -37.5t-15 -37t-37 -15q-21 0 -37 15t-16 37t15.5 37.5t37.5 15.5zM178 428q21 0 36.5 -15.5t15.5 -37.5t-15 -37t-37 -15q-21 0 -37 15t-16 37t15.5 37.5t37.5 15.5zM178 803
q21 0 36.5 -15.5t15.5 -37.5t-15 -37t-37 -15q-21 0 -37 15t-16 37t15.5 37.5t37.5 15.5z" />
    <glyph glyph-name="quotedbl" unicode="&#x22;" 
d="M428 678q21 0 36.5 -15.5t15.5 -37.5t-15 -37t-37 -15q-21 0 -37 15t-16 37t15.5 37.5t37.5 15.5zM428 803q21 0 36.5 -15.5t15.5 -37.5t-15 -37t-37 -15q-21 0 -37 15t-16 37t15.5 37.5t37.5 15.5zM178 678q21 0 36.5 -15.5t15.5 -37.5t-15 -37t-37 -15q-21 0 -37 15
t-16 37t15.5 37.5t37.5 15.5zM178 803q21 0 36.5 -15.5t15.5 -37.5t-15 -37t-37 -15q-21 0 -37 15t-16 37t15.5 37.5t37.5 15.5z" />
    <glyph glyph-name="numbersign" unicode="#" 
d="M428 678q21 0 36.5 -15.5t15.5 -37.5t-15 -37t-37 -15q-21 0 -37 15t-16 37t15.5 37.5t37.5 15.5zM426 303q22 0 37.5 -15.5t15.5 -37.5t-15 -37t-38 -15q-21 0 -36.5 15.5t-15.5 36.5q0 22 15.5 37.5t36.5 15.5zM428 178q21 0 36.5 -15.5t15.5 -37.5t-15 -37t-37 -15
q-21 0 -37 15t-16 37t15.5 37.5t37.5 15.5zM428 553q21 0 36.5 -15.5t15.5 -37.5t-15 -37t-37 -15q-21 0 -37 15t-16 37t15.5 37.5t37.5 15.5zM428 428q21 0 36.5 -15.5t15.5 -37.5t-15 -37t-37 -15q-21 0 -37 15t-16 37t15.5 37.5t37.5 15.5zM178 678q21 0 36.5 -15.5
t15.5 -37.5t-15 -37t-37 -15q-21 0 -37 15t-16 37t15.5 37.5t37.5 15.5zM176 303q22 0 37.5 -15.5t15.5 -37.5t-15 -37t-38 -15q-21 0 -36.5 15.5t-15.5 36.5q0 22 15.5 37.5t36.5 15.5zM178 178q21 0 36.5 -15.5t15.5 -37.5t-15 -37t-37 -15q-21 0 -37 15t-16 37t15.5 37.5
t37.5 15.5zM178 553q21 0 36.5 -15.5t15.5 -37.5t-15 -37t-37 -15q-21 0 -37 15t-16 37t15.5 37.5t37.5 15.5zM178 428q21 0 36.5 -15.5t15.5 -37.5t-15 -37t-37 -15q-21 0 -37 15t-16 37t15.5 37.5t37.5 15.5zM53 303q21 0 36.5 -15.5t15.5 -37.5t-15 -37t-37 -15
q-21 0 -37 15t-16 37t15.5 37.5t37.5 15.5zM53 553q21 0 36.5 -15.5t15.5 -37.5t-15 -37t-37 -15q-21 0 -37 15t-16 37t15.5 37.5t37.5 15.5zM553 303q21 0 36.5 -15.5t15.5 -37.5t-15 -37t-37 -15q-21 0 -37 15t-16 37t15.5 37.5t37.5 15.5zM553 553q21 0 36.5 -15.5
t15.5 -37.5t-15 -37t-37 -15q-21 0 -37 15t-16 37t15.5 37.5t37.5 15.5zM303 303q21 0 36.5 -15.5t15.5 -37.5t-15 -37t-37 -15q-21 0 -37 15t-16 37t15.5 37.5t37.5 15.5zM303 553q21 0 36.5 -15.5t15.5 -37.5t-15 -37t-37 -15q-21 0 -37 15t-16 37t15.5 37.5t37.5 15.5z
" />
    <glyph glyph-name="dollar" unicode="$" 
d="M553 678q21 0 36.5 -15.5t15.5 -37.5t-15 -37t-37 -15q-21 0 -37 15t-16 37t15.5 37.5t37.5 15.5zM178 428q21 0 36.5 -15.5t15.5 -37.5t-15 -37t-37 -15q-21 0 -37 15t-16 37t15.5 37.5t37.5 15.5zM428 428q21 0 36.5 -15.5t15.5 -37.5t-15 -37t-37 -15q-21 0 -37 15
t-16 37t15.5 37.5t37.5 15.5zM301 303q22 0 37.5 -15.5t15.5 -37.5t-15 -37t-38 -15q-21 0 -36.5 15.5t-15.5 36.5q0 22 15.5 37.5t36.5 15.5zM303 178q21 0 36.5 -15.5t15.5 -37.5t-15 -37t-37 -15q-21 0 -37 15t-16 37t15.5 37.5t37.5 15.5zM303 -73q21 0 36.5 -15.5
t15.5 -36.5q0 -22 -15.5 -37.5t-36.5 -15.5q-22 0 -37.5 15.5t-15.5 37.5t15 37t38 15zM178 53q21 0 36.5 -15.5t15.5 -37.5t-15.5 -37.5t-36.5 -15.5q-22 0 -37.5 15.5t-15.5 37.5t15.5 37.5t37.5 15.5zM178 803q21 0 36.5 -15.5t15.5 -37.5t-15 -37t-37 -15q-21 0 -37 15
t-16 37t15.5 37.5t37.5 15.5zM428 53q21 0 36.5 -15.5t15.5 -37.5t-15.5 -37.5t-36.5 -15.5q-22 0 -37.5 15.5t-15.5 37.5t15.5 37.5t37.5 15.5zM428 803q21 0 36.5 -15.5t15.5 -37.5t-15 -37t-37 -15q-21 0 -37 15t-16 37t15.5 37.5t37.5 15.5zM303 678q21 0 36.5 -15.5
t15.5 -37.5t-15 -37t-37 -15q-21 0 -37 15t-16 37t15.5 37.5t37.5 15.5zM303 553q21 0 36.5 -15.5t15.5 -37.5t-15 -37t-37 -15q-21 0 -37 15t-16 37t15.5 37.5t37.5 15.5zM303 428q21 0 36.5 -15.5t15.5 -37.5t-15 -37t-37 -15q-21 0 -37 15t-16 37t15.5 37.5t37.5 15.5z
M53 178q21 0 36.5 -15.5t15.5 -37.5t-15 -37t-37 -15q-21 0 -37 15t-16 37t15.5 37.5t37.5 15.5zM53 678q21 0 36.5 -15.5t15.5 -37.5t-15 -37t-37 -15q-21 0 -37 15t-16 37t15.5 37.5t37.5 15.5zM53 553q21 0 36.5 -15.5t15.5 -37.5t-15 -37t-37 -15q-21 0 -37 15t-16 37
t15.5 37.5t37.5 15.5zM551 303q22 0 37.5 -15.5t15.5 -37.5t-15 -37t-38 -15q-21 0 -36.5 15.5t-15.5 36.5q0 22 15.5 37.5t36.5 15.5zM553 178q21 0 36.5 -15.5t15.5 -37.5t-15 -37t-37 -15q-21 0 -37 15t-16 37t15.5 37.5t37.5 15.5zM303 53q21 0 36.5 -15.5t15.5 -37.5
t-15.5 -37.5t-36.5 -15.5q-22 0 -37.5 15.5t-15.5 37.5t15.5 37.5t37.5 15.5zM303 803q21 0 36.5 -15.5t15.5 -37.5t-15 -37t-37 -15q-21 0 -37 15t-16 37t15.5 37.5t37.5 15.5z" />
    <glyph glyph-name="percent" unicode="%" 
d="M428 303q21 0 36.5 -15.5t15.5 -37.5t-15 -37t-37 -15q-21 0 -37 15t-16 37t15.5 37.5t37.5 15.5zM303 428q21 0 36.5 -15.5t15.5 -37.5t-15 -37t-37 -15q-21 0 -37 15t-16 37t15.5 37.5t37.5 15.5zM303 178q21 0 36.5 -15.5t15.5 -37.5t-15 -37t-37 -15q-21 0 -37 15
t-16 37t15.5 37.5t37.5 15.5zM115 178q22 0 37.5 -15.5t15.5 -37.5t-15 -37t-38 -15q-22 0 -37 15t-15 37q0 21 15 37t37 16zM53 53q21 0 36.5 -15.5t15.5 -37.5t-15.5 -37.5t-36.5 -15.5q-22 0 -37.5 15.5t-15.5 37.5t15.5 37.5t37.5 15.5zM240 303q22 0 37.5 -15.5
t15.5 -37.5t-15 -37t-38 -15q-22 0 -37 15t-15 37q0 21 15 37t37 16zM428 53q21 0 36.5 -15.5t15.5 -37.5t-15.5 -37.5t-36.5 -15.5q-22 0 -37.5 15.5t-15.5 37.5t15.5 37.5t37.5 15.5zM553 803q21 0 36.5 -15.5t15.5 -37.5t-15 -37t-37 -15q-21 0 -37 15t-16 37t15.5 37.5
t37.5 15.5zM553 178q21 0 36.5 -15.5t15.5 -37.5t-15 -37t-37 -15q-21 0 -37 15t-16 37t15.5 37.5t37.5 15.5zM490 678q22 0 37.5 -15.5t15.5 -37.5t-15 -37t-38 -15q-22 0 -37 15t-15 37q0 21 15 37t37 16zM365 553q22 0 37.5 -15.5t15.5 -37.5t-15 -37t-38 -15
q-22 0 -37 15t-15 37q0 21 15 37t37 16zM178 803q21 0 36.5 -15.5t15.5 -37.5t-15 -37t-37 -15q-21 0 -37 15t-16 37t15.5 37.5t37.5 15.5zM53 678q21 0 36.5 -15.5t15.5 -37.5t-15 -37t-37 -15q-21 0 -37 15t-16 37t15.5 37.5t37.5 15.5zM178 553q21 0 36.5 -15.5
t15.5 -37.5t-15 -37t-37 -15q-21 0 -37 15t-16 37t15.5 37.5t37.5 15.5zM303 678q21 0 36.5 -15.5t15.5 -37.5t-15 -37t-37 -15q-21 0 -37 15t-16 37t15.5 37.5t37.5 15.5z" />
    <glyph glyph-name="ampersand" unicode="&#x26;" 
d="M178 803q21 0 36.5 -15.5t15.5 -37.5t-15 -37t-37 -15q-21 0 -37 15t-16 37t15.5 37.5t37.5 15.5zM303 803q21 0 36.5 -15.5t15.5 -37.5t-15 -37t-37 -15q-21 0 -37 15t-16 37t15.5 37.5t37.5 15.5zM303 428q21 0 36.5 -15.5t15.5 -37.5t-15 -37t-37 -15q-21 0 -37 15
t-16 37t15.5 37.5t37.5 15.5zM115 678q22 0 37.5 -15.5t15.5 -37.5t-15 -37t-38 -15q-22 0 -37 15t-15 37q0 21 15 37t37 16zM553 178q21 0 36.5 -15.5t15.5 -37.5t-15 -37t-37 -15q-21 0 -37 15t-16 37t15.5 37.5t37.5 15.5zM678 53q21 0 36.5 -15.5t15.5 -37.5
t-15.5 -37.5t-36.5 -15.5q-22 0 -37.5 15.5t-15.5 37.5t15.5 37.5t37.5 15.5zM428 303q21 0 36.5 -15.5t15.5 -37.5t-15 -37t-37 -15q-21 0 -37 15t-16 37t15.5 37.5t37.5 15.5zM178 553q21 0 36.5 -15.5t15.5 -37.5t-15 -37t-37 -15q-21 0 -37 15t-16 37t15.5 37.5
t37.5 15.5zM303 678q21 0 36.5 -15.5t15.5 -37.5t-15 -37t-37 -15q-21 0 -37 15t-16 37t15.5 37.5t37.5 15.5zM53 178q21 0 36.5 -15.5t15.5 -37.5t-15 -37t-37 -15q-21 0 -37 15t-16 37t15.5 37.5t37.5 15.5zM53 303q21 0 36.5 -15.5t15.5 -37.5t-15 -37t-37 -15
q-21 0 -37 15t-16 37t15.5 37.5t37.5 15.5zM53 428q21 0 36.5 -15.5t15.5 -37.5t-15 -37t-37 -15q-21 0 -37 15t-16 37t15.5 37.5t37.5 15.5zM178 53q21 0 36.5 -15.5t15.5 -37.5t-15.5 -37.5t-36.5 -15.5q-22 0 -37.5 15.5t-15.5 37.5t15.5 37.5t37.5 15.5zM303 53
q21 0 36.5 -15.5t15.5 -37.5t-15.5 -37.5t-36.5 -15.5q-22 0 -37.5 15.5t-15.5 37.5t15.5 37.5t37.5 15.5zM428 178q21 0 36.5 -15.5t15.5 -37.5t-15 -37t-37 -15q-21 0 -37 15t-16 37t15.5 37.5t37.5 15.5zM553 303q21 0 36.5 -15.5t15.5 -37.5t-15 -37t-37 -15
q-21 0 -37 15t-16 37t15.5 37.5t37.5 15.5zM678 428q21 0 36.5 -15.5t15.5 -37.5t-15 -37t-37 -15q-21 0 -37 15t-16 37t15.5 37.5t37.5 15.5z" />
    <glyph glyph-name="quotesingle" unicode="'" 
d="M303 678q21 0 36.5 -15.5t15.5 -37.5t-15 -37t-37 -15q-21 0 -37 15t-16 37t15.5 37.5t37.5 15.5zM303 803q21 0 36.5 -15.5t15.5 -37.5t-15 -37t-37 -15q-21 0 -37 15t-16 37t15.5 37.5t37.5 15.5z" />
    <glyph glyph-name="parenleft" unicode="(" 
d="M553 803q21 0 36.5 -15.5t15.5 -37.5t-15 -37t-37 -15q-21 0 -37 15t-16 37t15.5 37.5t37.5 15.5zM428 678q21 0 36.5 -15.5t15.5 -37.5t-15 -37t-37 -15q-21 0 -37 15t-16 37t15.5 37.5t37.5 15.5zM428 178q21 0 36.5 -15.5t15.5 -37.5t-15 -37t-37 -15q-21 0 -37 15
t-16 37t15.5 37.5t37.5 15.5zM303 428q21 0 36.5 -15.5t15.5 -37.5t-15 -37t-37 -15q-21 0 -37 15t-16 37t15.5 37.5t37.5 15.5zM553 53q21 0 36.5 -15.5t15.5 -37.5t-15.5 -37.5t-36.5 -15.5q-22 0 -37.5 15.5t-15.5 37.5t15.5 37.5t37.5 15.5zM303 303q21 0 36.5 -15.5
t15.5 -37.5t-15 -37t-37 -15q-21 0 -37 15t-16 37t15.5 37.5t37.5 15.5zM303 553q21 0 36.5 -15.5t15.5 -37.5t-15 -37t-37 -15q-21 0 -37 15t-16 37t15.5 37.5t37.5 15.5z" />
    <glyph glyph-name="parenright" unicode=")" 
d="M53 803q21 0 36.5 -15.5t15.5 -37.5t-15 -37t-37 -15q-21 0 -37 15t-16 37t15.5 37.5t37.5 15.5zM178 678q21 0 36.5 -15.5t15.5 -37.5t-15 -37t-37 -15q-21 0 -37 15t-16 37t15.5 37.5t37.5 15.5zM178 178q21 0 36.5 -15.5t15.5 -37.5t-15 -37t-37 -15q-21 0 -37 15
t-16 37t15.5 37.5t37.5 15.5zM303 428q21 0 36.5 -15.5t15.5 -37.5t-15 -37t-37 -15q-21 0 -37 15t-16 37t15.5 37.5t37.5 15.5zM53 53q21 0 36.5 -15.5t15.5 -37.5t-15.5 -37.5t-36.5 -15.5q-22 0 -37.5 15.5t-15.5 37.5t15.5 37.5t37.5 15.5zM303 303q21 0 36.5 -15.5
t15.5 -37.5t-15 -37t-37 -15q-21 0 -37 15t-16 37t15.5 37.5t37.5 15.5zM303 553q21 0 36.5 -15.5t15.5 -37.5t-15 -37t-37 -15q-21 0 -37 15t-16 37t15.5 37.5t37.5 15.5z" />
    <glyph glyph-name="asterisk" unicode="*" 
d="M303 553q21 0 36.5 -15.5t15.5 -37.5t-15 -37t-37 -15q-21 0 -37 15t-16 37t15.5 37.5t37.5 15.5zM178 553q21 0 36.5 -15.5t15.5 -37.5t-15 -37t-37 -15q-21 0 -37 15t-16 37t15.5 37.5t37.5 15.5zM428 553q21 0 36.5 -15.5t15.5 -37.5t-15 -37t-37 -15q-21 0 -37 15
t-16 37t15.5 37.5t37.5 15.5zM303 428q21 0 36.5 -15.5t15.5 -37.5t-15 -37t-37 -15q-21 0 -37 15t-16 37t15.5 37.5t37.5 15.5zM303 678q21 0 36.5 -15.5t15.5 -37.5t-15 -37t-37 -15q-21 0 -37 15t-16 37t15.5 37.5t37.5 15.5zM124 375q0 22 15.5 37.5t36.5 15.5
q22 0 37.5 -15.5t15.5 -37.5t-15 -37t-38 -15q-21 0 -36.5 15.5t-15.5 36.5zM-1 750q0 22 15.5 37.5t36.5 15.5q22 0 37.5 -15.5t15.5 -37.5t-15 -37t-38 -15q-21 0 -36.5 15.5t-15.5 36.5zM51 553q22 0 37.5 -15.5t15.5 -37.5t-15 -37t-38 -15q-21 0 -36.5 15.5t-15.5 36.5
q0 22 15.5 37.5t36.5 15.5zM551 553q22 0 37.5 -15.5t15.5 -37.5t-15 -37t-38 -15q-21 0 -36.5 15.5t-15.5 36.5q0 22 15.5 37.5t36.5 15.5zM374 375q0 22 15.5 37.5t36.5 15.5q22 0 37.5 -15.5t15.5 -37.5t-15 -37t-38 -15q-21 0 -36.5 15.5t-15.5 36.5zM499 750
q0 22 15.5 37.5t36.5 15.5q22 0 37.5 -15.5t15.5 -37.5t-15 -37t-38 -15q-21 0 -36.5 15.5t-15.5 36.5zM249 250q0 22 15.5 37.5t36.5 15.5q22 0 37.5 -15.5t15.5 -37.5t-15 -37t-38 -15q-21 0 -36.5 15.5t-15.5 36.5zM249 750q0 22 15.5 37.5t36.5 15.5q22 0 37.5 -15.5
t15.5 -37.5t-15 -37t-38 -15q-21 0 -36.5 15.5t-15.5 36.5zM-1 250q0 22 15.5 37.5t36.5 15.5q22 0 37.5 -15.5t15.5 -37.5t-15 -37t-38 -15q-21 0 -36.5 15.5t-15.5 36.5zM499 250q0 22 15.5 37.5t36.5 15.5q22 0 37.5 -15.5t15.5 -37.5t-15 -37t-38 -15q-21 0 -36.5 15.5
t-15.5 36.5zM124 625q0 22 15.5 37.5t36.5 15.5q22 0 37.5 -15.5t15.5 -37.5t-15 -37t-38 -15q-21 0 -36.5 15.5t-15.5 36.5zM374 625q0 22 15.5 37.5t36.5 15.5q22 0 37.5 -15.5t15.5 -37.5t-15 -37t-38 -15q-21 0 -36.5 15.5t-15.5 36.5z" />
    <glyph glyph-name="plus" unicode="+" 
d="M303 303q21 0 36.5 -15.5t15.5 -37.5t-15 -37t-37 -15q-21 0 -37 15t-16 37t15.5 37.5t37.5 15.5zM178 303q21 0 36.5 -15.5t15.5 -37.5t-15 -37t-37 -15q-21 0 -37 15t-16 37t15.5 37.5t37.5 15.5zM428 303q21 0 36.5 -15.5t15.5 -37.5t-15 -37t-37 -15q-21 0 -37 15
t-16 37t15.5 37.5t37.5 15.5zM303 178q21 0 36.5 -15.5t15.5 -37.5t-15 -37t-37 -15q-21 0 -37 15t-16 37t15.5 37.5t37.5 15.5zM303 428q21 0 36.5 -15.5t15.5 -37.5t-15 -37t-37 -15q-21 0 -37 15t-16 37t15.5 37.5t37.5 15.5zM249 0q0 22 15.5 37.5t36.5 15.5
q22 0 37.5 -15.5t15.5 -37.5t-15.5 -37.5t-37.5 -15.5q-21 0 -36.5 15.5t-15.5 37.5zM249 500q0 22 15.5 37.5t36.5 15.5q22 0 37.5 -15.5t15.5 -37.5t-15 -37t-38 -15q-21 0 -36.5 15.5t-15.5 36.5zM51 303q22 0 37.5 -15.5t15.5 -37.5t-15 -37t-38 -15q-21 0 -36.5 15.5
t-15.5 36.5q0 22 15.5 37.5t36.5 15.5zM551 303q22 0 37.5 -15.5t15.5 -37.5t-15 -37t-38 -15q-21 0 -36.5 15.5t-15.5 36.5q0 22 15.5 37.5t36.5 15.5z" />
    <glyph glyph-name="comma" unicode="," 
d="M178 178q21 0 36.5 -15.5t15.5 -37.5t-15 -37t-37 -15q-21 0 -37 15t-16 37t15.5 37.5t37.5 15.5zM53 -198q21 0 36.5 -15.5t15.5 -36.5q0 -22 -15.5 -37.5t-36.5 -15.5q-22 0 -37.5 15.5t-15.5 37.5t15 37t38 15zM115 -73q21 0 37 -15t16 -37t-15.5 -37.5t-37.5 -15.5
t-37 15t-15 38q0 22 15 37t37 15zM53 178q21 0 36.5 -15.5t15.5 -37.5t-15 -37t-37 -15q-21 0 -37 15t-16 37t15.5 37.5t37.5 15.5zM178 53q21 0 36.5 -15.5t15.5 -37.5t-15.5 -37.5t-36.5 -15.5q-22 0 -37.5 15.5t-15.5 37.5t15.5 37.5t37.5 15.5zM53 53q21 0 36.5 -15.5
t15.5 -37.5t-15.5 -37.5t-36.5 -15.5q-22 0 -37.5 15.5t-15.5 37.5t15.5 37.5t37.5 15.5z" />
    <glyph glyph-name="hyphen" unicode="-" 
d="M303 303q21 0 36.5 -15.5t15.5 -37.5t-15 -37t-37 -15q-21 0 -37 15t-16 37t15.5 37.5t37.5 15.5zM178 303q21 0 36.5 -15.5t15.5 -37.5t-15 -37t-37 -15q-21 0 -37 15t-16 37t15.5 37.5t37.5 15.5zM428 303q21 0 36.5 -15.5t15.5 -37.5t-15 -37t-37 -15q-21 0 -37 15
t-16 37t15.5 37.5t37.5 15.5zM51 303q22 0 37.5 -15.5t15.5 -37.5t-15 -37t-38 -15q-21 0 -36.5 15.5t-15.5 36.5q0 22 15.5 37.5t36.5 15.5zM551 303q22 0 37.5 -15.5t15.5 -37.5t-15 -37t-38 -15q-21 0 -36.5 15.5t-15.5 36.5q0 22 15.5 37.5t36.5 15.5z" />
    <glyph glyph-name="hyphen" unicode="&#xad;" 
d="M303 303q21 0 36.5 -15.5t15.5 -37.5t-15 -37t-37 -15q-21 0 -37 15t-16 37t15.5 37.5t37.5 15.5zM178 303q21 0 36.5 -15.5t15.5 -37.5t-15 -37t-37 -15q-21 0 -37 15t-16 37t15.5 37.5t37.5 15.5zM428 303q21 0 36.5 -15.5t15.5 -37.5t-15 -37t-37 -15q-21 0 -37 15
t-16 37t15.5 37.5t37.5 15.5zM51 303q22 0 37.5 -15.5t15.5 -37.5t-15 -37t-38 -15q-21 0 -36.5 15.5t-15.5 36.5q0 22 15.5 37.5t36.5 15.5zM551 303q22 0 37.5 -15.5t15.5 -37.5t-15 -37t-38 -15q-21 0 -36.5 15.5t-15.5 36.5q0 22 15.5 37.5t36.5 15.5z" />
    <glyph glyph-name="period" unicode="." 
d="M178 178q21 0 36.5 -15.5t15.5 -37.5t-15 -37t-37 -15q-21 0 -37 15t-16 37t15.5 37.5t37.5 15.5zM53 53q21 0 36.5 -15.5t15.5 -37.5t-15.5 -37.5t-36.5 -15.5q-22 0 -37.5 15.5t-15.5 37.5t15.5 37.5t37.5 15.5zM178 53q21 0 36.5 -15.5t15.5 -37.5t-15.5 -37.5
t-36.5 -15.5q-22 0 -37.5 15.5t-15.5 37.5t15.5 37.5t37.5 15.5zM53 178q21 0 36.5 -15.5t15.5 -37.5t-15 -37t-37 -15q-21 0 -37 15t-16 37t15.5 37.5t37.5 15.5z" />
    <glyph glyph-name="slash" unicode="/" 
d="M428 803q21 0 36.5 -15.5t15.5 -37.5t-15 -37t-37 -15q-21 0 -37 15t-16 37t15.5 37.5t37.5 15.5zM240 428q22 0 37.5 -15.5t15.5 -37.5t-15 -37t-38 -15q-22 0 -37 15t-15 37q0 21 15 37t37 16zM365 678q22 0 37.5 -15.5t15.5 -37.5t-15 -37t-38 -15q-22 0 -37 15
t-15 37q0 21 15 37t37 16zM115 178q22 0 37.5 -15.5t15.5 -37.5t-15 -37t-38 -15q-22 0 -37 15t-15 37q0 21 15 37t37 16zM53 53q21 0 36.5 -15.5t15.5 -37.5t-15.5 -37.5t-36.5 -15.5q-22 0 -37.5 15.5t-15.5 37.5t15.5 37.5t37.5 15.5zM178 303q21 0 36.5 -15.5
t15.5 -37.5t-15 -37t-37 -15q-21 0 -37 15t-16 37t15.5 37.5t37.5 15.5zM303 553q21 0 36.5 -15.5t15.5 -37.5t-15 -37t-37 -15q-21 0 -37 15t-16 37t15.5 37.5t37.5 15.5z" />
    <glyph glyph-name="zero" unicode="0" 
d="M553 678q21 0 36.5 -15.5t15.5 -37.5t-15 -37t-37 -15q-21 0 -37 15t-16 37t15.5 37.5t37.5 15.5zM553 553q21 0 36.5 -15.5t15.5 -37.5t-15 -37t-37 -15q-21 0 -37 15t-16 37t15.5 37.5t37.5 15.5zM303 803q21 0 36.5 -15.5t15.5 -37.5t-15 -37t-37 -15q-21 0 -37 15
t-16 37t15.5 37.5t37.5 15.5zM553 428q21 0 36.5 -15.5t15.5 -37.5t-15 -37t-37 -15q-21 0 -37 15t-16 37t15.5 37.5t37.5 15.5zM551 303q22 0 37.5 -15.5t15.5 -37.5t-15 -37t-38 -15q-21 0 -36.5 15.5t-15.5 36.5q0 22 15.5 37.5t36.5 15.5zM553 178q21 0 36.5 -15.5
t15.5 -37.5t-15 -37t-37 -15q-21 0 -37 15t-16 37t15.5 37.5t37.5 15.5zM303 53q21 0 36.5 -15.5t15.5 -37.5t-15.5 -37.5t-36.5 -15.5q-22 0 -37.5 15.5t-15.5 37.5t15.5 37.5t37.5 15.5zM178 53q21 0 36.5 -15.5t15.5 -37.5t-15.5 -37.5t-36.5 -15.5q-22 0 -37.5 15.5
t-15.5 37.5t15.5 37.5t37.5 15.5zM178 803q21 0 36.5 -15.5t15.5 -37.5t-15 -37t-37 -15q-21 0 -37 15t-16 37t15.5 37.5t37.5 15.5zM428 53q21 0 36.5 -15.5t15.5 -37.5t-15.5 -37.5t-36.5 -15.5q-22 0 -37.5 15.5t-15.5 37.5t15.5 37.5t37.5 15.5zM428 803
q21 0 36.5 -15.5t15.5 -37.5t-15 -37t-37 -15q-21 0 -37 15t-16 37t15.5 37.5t37.5 15.5zM53 678q21 0 36.5 -15.5t15.5 -37.5t-15 -37t-37 -15q-21 0 -37 15t-16 37t15.5 37.5t37.5 15.5zM53 553q21 0 36.5 -15.5t15.5 -37.5t-15 -37t-37 -15q-21 0 -37 15t-16 37
t15.5 37.5t37.5 15.5zM53 428q21 0 36.5 -15.5t15.5 -37.5t-15 -37t-37 -15q-21 0 -37 15t-16 37t15.5 37.5t37.5 15.5zM51 303q22 0 37.5 -15.5t15.5 -37.5t-15 -37t-38 -15q-21 0 -36.5 15.5t-15.5 36.5q0 22 15.5 37.5t36.5 15.5zM53 178q21 0 36.5 -15.5t15.5 -37.5
t-15 -37t-37 -15q-21 0 -37 15t-16 37t15.5 37.5t37.5 15.5zM300 428q22 0 37.5 -15.5t15.5 -37.5t-15 -37t-38 -15q-22 0 -37 15t-15 37q0 21 15 37t37 16zM425 678q22 0 37.5 -15.5t15.5 -37.5t-15 -37t-38 -15q-22 0 -37 15t-15 37q0 21 15 37t37 16zM175 178
q22 0 37.5 -15.5t15.5 -37.5t-15 -37t-38 -15q-22 0 -37 15t-15 37q0 21 15 37t37 16zM238 303q21 0 36.5 -15.5t15.5 -37.5t-15 -37t-37 -15q-21 0 -37 15t-16 37t15.5 37.5t37.5 15.5zM363 553q21 0 36.5 -15.5t15.5 -37.5t-15 -37t-37 -15q-21 0 -37 15t-16 37t15.5 37.5
t37.5 15.5z" />
    <glyph glyph-name="one" unicode="1" 
d="M428 53q21 0 36.5 -15.5t15.5 -37.5t-15.5 -37.5t-36.5 -15.5q-22 0 -37.5 15.5t-15.5 37.5t15.5 37.5t37.5 15.5zM178 53q21 0 36.5 -15.5t15.5 -37.5t-15.5 -37.5t-36.5 -15.5q-22 0 -37.5 15.5t-15.5 37.5t15.5 37.5t37.5 15.5zM303 803q21 0 36.5 -15.5t15.5 -37.5
t-15 -37t-37 -15q-21 0 -37 15t-16 37t15.5 37.5t37.5 15.5zM303 53q21 0 36.5 -15.5t15.5 -37.5t-15.5 -37.5t-36.5 -15.5q-22 0 -37.5 15.5t-15.5 37.5t15.5 37.5t37.5 15.5zM178 678q21 0 36.5 -15.5t15.5 -37.5t-15 -37t-37 -15q-21 0 -37 15t-16 37t15.5 37.5
t37.5 15.5zM303 678q21 0 36.5 -15.5t15.5 -37.5t-15 -37t-37 -15q-21 0 -37 15t-16 37t15.5 37.5t37.5 15.5zM303 553q21 0 36.5 -15.5t15.5 -37.5t-15 -37t-37 -15q-21 0 -37 15t-16 37t15.5 37.5t37.5 15.5zM303 428q21 0 36.5 -15.5t15.5 -37.5t-15 -37t-37 -15
q-21 0 -37 15t-16 37t15.5 37.5t37.5 15.5zM301 303q22 0 37.5 -15.5t15.5 -37.5t-15 -37t-38 -15q-21 0 -36.5 15.5t-15.5 36.5q0 22 15.5 37.5t36.5 15.5zM303 178q21 0 36.5 -15.5t15.5 -37.5t-15 -37t-37 -15q-21 0 -37 15t-16 37t15.5 37.5t37.5 15.5z" />
    <glyph glyph-name="two" unicode="2" 
d="M553 -53q-22 0 -37.5 15.5t-15.5 37.5t15.5 37.5t37.5 15.5q21 0 36.5 -15.5t15.5 -37.5t-15.5 -37.5t-36.5 -15.5zM303 -53q-22 0 -37.5 15.5t-15.5 37.5t15.5 37.5t37.5 15.5q21 0 36.5 -15.5t15.5 -37.5t-15.5 -37.5t-36.5 -15.5zM303 198q-21 0 -37 15t-16 37
t15.5 37.5t37.5 15.5q21 0 36.5 -15.5t15.5 -37.5t-15 -37t-37 -15zM428 323q-21 0 -37 15t-16 37t15.5 37.5t37.5 15.5q21 0 36.5 -15.5t15.5 -37.5t-15 -37t-37 -15zM553 573q-21 0 -37 15t-16 37t15.5 37.5t37.5 15.5q21 0 36.5 -15.5t15.5 -37.5t-15 -37t-37 -15z
M303 698q-21 0 -37 15t-16 37t15.5 37.5t37.5 15.5q21 0 36.5 -15.5t15.5 -37.5t-15 -37t-37 -15zM178 698q-21 0 -37 15t-16 37t15.5 37.5t37.5 15.5q21 0 36.5 -15.5t15.5 -37.5t-15 -37t-37 -15zM178 -53q-22 0 -37.5 15.5t-15.5 37.5t15.5 37.5t37.5 15.5
q21 0 36.5 -15.5t15.5 -37.5t-15.5 -37.5t-36.5 -15.5zM428 698q-21 0 -37 15t-16 37t15.5 37.5t37.5 15.5q21 0 36.5 -15.5t15.5 -37.5t-15 -37t-37 -15zM428 -53q-22 0 -37.5 15.5t-15.5 37.5t15.5 37.5t37.5 15.5q21 0 36.5 -15.5t15.5 -37.5t-15.5 -37.5t-36.5 -15.5z
M53 -53q-22 0 -37.5 15.5t-15.5 37.5t15.5 37.5t37.5 15.5q21 0 36.5 -15.5t15.5 -37.5t-15.5 -37.5t-36.5 -15.5zM178 73q-21 0 -37 15t-16 37t15.5 37.5t37.5 15.5q21 0 36.5 -15.5t15.5 -37.5t-15 -37t-37 -15zM53 573q-21 0 -37 15t-16 37t15.5 37.5t37.5 15.5
q21 0 36.5 -15.5t15.5 -37.5t-15 -37t-37 -15zM553 448q-21 0 -37 15t-16 37t15.5 37.5t37.5 15.5q21 0 36.5 -15.5t15.5 -37.5t-15 -37t-37 -15z" />
    <glyph glyph-name="three" unicode="3" 
d="M553 678q21 0 36.5 -15.5t15.5 -37.5t-15 -37t-37 -15q-21 0 -37 15t-16 37t15.5 37.5t37.5 15.5zM553 553q21 0 36.5 -15.5t15.5 -37.5t-15 -37t-37 -15q-21 0 -37 15t-16 37t15.5 37.5t37.5 15.5zM303 428q21 0 36.5 -15.5t15.5 -37.5t-15 -37t-37 -15q-21 0 -37 15
t-16 37t15.5 37.5t37.5 15.5zM551 303q22 0 37.5 -15.5t15.5 -37.5t-15 -37t-38 -15q-21 0 -36.5 15.5t-15.5 36.5q0 22 15.5 37.5t36.5 15.5zM553 178q21 0 36.5 -15.5t15.5 -37.5t-15 -37t-37 -15q-21 0 -37 15t-16 37t15.5 37.5t37.5 15.5zM303 53q21 0 36.5 -15.5
t15.5 -37.5t-15.5 -37.5t-36.5 -15.5q-22 0 -37.5 15.5t-15.5 37.5t15.5 37.5t37.5 15.5zM53 178q21 0 36.5 -15.5t15.5 -37.5t-15 -37t-37 -15q-21 0 -37 15t-16 37t15.5 37.5t37.5 15.5zM53 678q21 0 36.5 -15.5t15.5 -37.5t-15 -37t-37 -15q-21 0 -37 15t-16 37
t15.5 37.5t37.5 15.5zM428 53q21 0 36.5 -15.5t15.5 -37.5t-15.5 -37.5t-36.5 -15.5q-22 0 -37.5 15.5t-15.5 37.5t15.5 37.5t37.5 15.5zM428 428q21 0 36.5 -15.5t15.5 -37.5t-15 -37t-37 -15q-21 0 -37 15t-16 37t15.5 37.5t37.5 15.5zM178 53q21 0 36.5 -15.5t15.5 -37.5
t-15.5 -37.5t-36.5 -15.5q-22 0 -37.5 15.5t-15.5 37.5t15.5 37.5t37.5 15.5zM178 803q21 0 36.5 -15.5t15.5 -37.5t-15 -37t-37 -15q-21 0 -37 15t-16 37t15.5 37.5t37.5 15.5zM303 803q21 0 36.5 -15.5t15.5 -37.5t-15 -37t-37 -15q-21 0 -37 15t-16 37t15.5 37.5
t37.5 15.5zM428 803q21 0 36.5 -15.5t15.5 -37.5t-15 -37t-37 -15q-21 0 -37 15t-16 37t15.5 37.5t37.5 15.5z" />
    <glyph glyph-name="four" unicode="4" 
d="M115 428q22 0 37.5 -15.5t15.5 -37.5t-15 -37t-38 -15q-22 0 -37 15t-15 37q0 21 15 37t37 16zM240 678q22 0 37.5 -15.5t15.5 -37.5t-15 -37t-38 -15q-22 0 -37 15t-15 37q0 21 15 37t37 16zM428 53q21 0 36.5 -15.5t15.5 -37.5t-15.5 -37.5t-36.5 -15.5
q-22 0 -37.5 15.5t-15.5 37.5t15.5 37.5t37.5 15.5zM178 553q21 0 36.5 -15.5t15.5 -37.5t-15 -37t-37 -15q-21 0 -37 15t-16 37t15.5 37.5t37.5 15.5zM428 803q21 0 36.5 -15.5t15.5 -37.5t-15 -37t-37 -15q-21 0 -37 15t-16 37t15.5 37.5t37.5 15.5zM428 678
q21 0 36.5 -15.5t15.5 -37.5t-15 -37t-37 -15q-21 0 -37 15t-16 37t15.5 37.5t37.5 15.5zM428 553q21 0 36.5 -15.5t15.5 -37.5t-15 -37t-37 -15q-21 0 -37 15t-16 37t15.5 37.5t37.5 15.5zM53 303q21 0 36.5 -15.5t15.5 -37.5t-15 -37t-37 -15q-21 0 -37 15t-16 37
t15.5 37.5t37.5 15.5zM426 303q22 0 37.5 -15.5t15.5 -37.5t-15 -37t-38 -15q-21 0 -36.5 15.5t-15.5 36.5q0 22 15.5 37.5t36.5 15.5zM428 178q21 0 36.5 -15.5t15.5 -37.5t-15 -37t-37 -15q-21 0 -37 15t-16 37t15.5 37.5t37.5 15.5zM553 303q21 0 36.5 -15.5t15.5 -37.5
t-15 -37t-37 -15q-21 0 -37 15t-16 37t15.5 37.5t37.5 15.5zM303 303q21 0 36.5 -15.5t15.5 -37.5t-15 -37t-37 -15q-21 0 -37 15t-16 37t15.5 37.5t37.5 15.5zM178 303q21 0 36.5 -15.5t15.5 -37.5t-15 -37t-37 -15q-21 0 -37 15t-16 37t15.5 37.5t37.5 15.5zM428 428
q21 0 36.5 -15.5t15.5 -37.5t-15 -37t-37 -15q-21 0 -37 15t-16 37t15.5 37.5t37.5 15.5zM303 803q21 0 36.5 -15.5t15.5 -37.5t-15 -37t-37 -15q-21 0 -37 15t-16 37t15.5 37.5t37.5 15.5z" />
    <glyph glyph-name="five" unicode="5" 
d="M553 803q21 0 36.5 -15.5t15.5 -37.5t-15 -37t-37 -15q-21 0 -37 15t-16 37t15.5 37.5t37.5 15.5zM178 553q21 0 36.5 -15.5t15.5 -37.5t-15 -37t-37 -15q-21 0 -37 15t-16 37t15.5 37.5t37.5 15.5zM303 803q21 0 36.5 -15.5t15.5 -37.5t-15 -37t-37 -15q-21 0 -37 15
t-16 37t15.5 37.5t37.5 15.5zM428 553q21 0 36.5 -15.5t15.5 -37.5t-15 -37t-37 -15q-21 0 -37 15t-16 37t15.5 37.5t37.5 15.5zM553 428q21 0 36.5 -15.5t15.5 -37.5t-15 -37t-37 -15q-21 0 -37 15t-16 37t15.5 37.5t37.5 15.5zM553 178q21 0 36.5 -15.5t15.5 -37.5
t-15 -37t-37 -15q-21 0 -37 15t-16 37t15.5 37.5t37.5 15.5zM303 53q21 0 36.5 -15.5t15.5 -37.5t-15.5 -37.5t-36.5 -15.5q-22 0 -37.5 15.5t-15.5 37.5t15.5 37.5t37.5 15.5zM178 53q21 0 36.5 -15.5t15.5 -37.5t-15.5 -37.5t-36.5 -15.5q-22 0 -37.5 15.5t-15.5 37.5
t15.5 37.5t37.5 15.5zM178 803q21 0 36.5 -15.5t15.5 -37.5t-15 -37t-37 -15q-21 0 -37 15t-16 37t15.5 37.5t37.5 15.5zM428 53q21 0 36.5 -15.5t15.5 -37.5t-15.5 -37.5t-36.5 -15.5q-22 0 -37.5 15.5t-15.5 37.5t15.5 37.5t37.5 15.5zM428 803q21 0 36.5 -15.5
t15.5 -37.5t-15 -37t-37 -15q-21 0 -37 15t-16 37t15.5 37.5t37.5 15.5zM53 803q21 0 36.5 -15.5t15.5 -37.5t-15 -37t-37 -15q-21 0 -37 15t-16 37t15.5 37.5t37.5 15.5zM53 553q21 0 36.5 -15.5t15.5 -37.5t-15 -37t-37 -15q-21 0 -37 15t-16 37t15.5 37.5t37.5 15.5z
M303 553q21 0 36.5 -15.5t15.5 -37.5t-15 -37t-37 -15q-21 0 -37 15t-16 37t15.5 37.5t37.5 15.5zM53 178q21 0 36.5 -15.5t15.5 -37.5t-15 -37t-37 -15q-21 0 -37 15t-16 37t15.5 37.5t37.5 15.5zM53 678q21 0 36.5 -15.5t15.5 -37.5t-15 -37t-37 -15q-21 0 -37 15t-16 37
t15.5 37.5t37.5 15.5zM553 303q21 0 36.5 -15.5t15.5 -37.5t-15 -37t-37 -15q-21 0 -37 15t-16 37t15.5 37.5t37.5 15.5z" />
    <glyph glyph-name="six" unicode="6" 
d="M53 73q-21 0 -37 15t-16 37t15.5 37.5t37.5 15.5q21 0 36.5 -15.5t15.5 -37.5t-15 -37t-37 -15zM53 198q-21 0 -37 15t-16 37t15.5 37.5t37.5 15.5q21 0 36.5 -15.5t15.5 -37.5t-15 -37t-37 -15zM303 323q-21 0 -37 15t-16 37t15.5 37.5t37.5 15.5q21 0 36.5 -15.5
t15.5 -37.5t-15 -37t-37 -15zM54 448q-21 0 -37 15t-16 37t15.5 37.5t37.5 15.5t37 -15t15 -38q0 -22 -15 -37t-37 -15zM115 573q-22 0 -37 15t-15 37q0 21 15 37t37 16t37.5 -15.5t15.5 -37.5t-15 -37t-38 -15zM178 698q-21 0 -37 15t-16 37t15.5 37.5t37.5 15.5
q21 0 36.5 -15.5t15.5 -37.5t-15 -37t-37 -15zM428 323q-21 0 -37 15t-16 37t15.5 37.5t37.5 15.5q21 0 36.5 -15.5t15.5 -37.5t-15 -37t-37 -15zM178 323q-21 0 -37 15t-16 37t15.5 37.5t37.5 15.5q21 0 36.5 -15.5t15.5 -37.5t-15 -37t-37 -15zM553 73q-21 0 -37 15
t-16 37t15.5 37.5t37.5 15.5q21 0 36.5 -15.5t15.5 -37.5t-15 -37t-37 -15zM553 198q-21 0 -37 15t-16 37t15.5 37.5t37.5 15.5q21 0 36.5 -15.5t15.5 -37.5t-15 -37t-37 -15zM303 698q-21 0 -37 15t-16 37t15.5 37.5t37.5 15.5q21 0 36.5 -15.5t15.5 -37.5t-15 -37t-37 -15
zM303 -53q-22 0 -37.5 15.5t-15.5 37.5t15.5 37.5t37.5 15.5q21 0 36.5 -15.5t15.5 -37.5t-15.5 -37.5t-36.5 -15.5zM428 -53q-22 0 -37.5 15.5t-15.5 37.5t15.5 37.5t37.5 15.5q21 0 36.5 -15.5t15.5 -37.5t-15.5 -37.5t-36.5 -15.5zM178 -53q-22 0 -37.5 15.5t-15.5 37.5
t15.5 37.5t37.5 15.5q21 0 36.5 -15.5t15.5 -37.5t-15.5 -37.5t-36.5 -15.5zM53 323q-21 0 -37 15t-16 37t15.5 37.5t37.5 15.5q21 0 36.5 -15.5t15.5 -37.5t-15 -37t-37 -15zM428 698q-21 0 -37 15t-16 37t15.5 37.5t37.5 15.5q21 0 36.5 -15.5t15.5 -37.5t-15 -37t-37 -15
z" />
    <glyph glyph-name="seven" unicode="7" 
d="M50 803q22 0 37.5 -15.5t15.5 -37.5t-15 -37t-38 -15q-21 0 -37 15t-16 37t15.5 37.5t37.5 15.5zM550 803q22 0 37.5 -15.5t15.5 -37.5t-15 -37t-38 -15q-22 0 -37 15t-15 37q0 21 15 37t37 16zM363 428q21 0 36.5 -15.5t15.5 -37.5t-15 -37t-37 -15q-21 0 -37 15t-16 37
t15.5 37.5t37.5 15.5zM488 678q21 0 36.5 -15.5t15.5 -37.5t-15 -37t-37 -15q-21 0 -37 15t-16 37t15.5 37.5t37.5 15.5zM238 178q21 0 36.5 -15.5t15.5 -37.5t-15 -37t-37 -15q-21 0 -37 15t-16 37t15.5 37.5t37.5 15.5zM175 53q22 0 37.5 -15.5t15.5 -37.5t-15.5 -37.5
t-37.5 -15.5t-37 15t-15 38q0 21 15 37t37 16zM178 803q21 0 36.5 -15.5t15.5 -37.5t-15 -37t-37 -15q-21 0 -37 15t-16 37t15.5 37.5t37.5 15.5zM303 803q21 0 36.5 -15.5t15.5 -37.5t-15 -37t-37 -15q-21 0 -37 15t-16 37t15.5 37.5t37.5 15.5zM428 803q21 0 36.5 -15.5
t15.5 -37.5t-15 -37t-37 -15q-21 0 -37 15t-16 37t15.5 37.5t37.5 15.5zM300 303q22 0 37.5 -15.5t15.5 -37.5t-15 -37t-38 -15q-22 0 -37 15t-15 37q0 21 15 37t37 16zM425 553q22 0 37.5 -15.5t15.5 -37.5t-15 -37t-38 -15q-22 0 -37 15t-15 37q0 21 15 37t37 16z" />
    <glyph glyph-name="eight" unicode="8" 
d="M553 678q21 0 36.5 -15.5t15.5 -37.5t-15 -37t-37 -15q-21 0 -37 15t-16 37t15.5 37.5t37.5 15.5zM553 553q21 0 36.5 -15.5t15.5 -37.5t-15 -37t-37 -15q-21 0 -37 15t-16 37t15.5 37.5t37.5 15.5zM303 428q21 0 36.5 -15.5t15.5 -37.5t-15 -37t-37 -15q-21 0 -37 15
t-16 37t15.5 37.5t37.5 15.5zM551 303q22 0 37.5 -15.5t15.5 -37.5t-15 -37t-38 -15q-21 0 -36.5 15.5t-15.5 36.5q0 22 15.5 37.5t36.5 15.5zM553 178q21 0 36.5 -15.5t15.5 -37.5t-15 -37t-37 -15q-21 0 -37 15t-16 37t15.5 37.5t37.5 15.5zM303 53q21 0 36.5 -15.5
t15.5 -37.5t-15.5 -37.5t-36.5 -15.5q-22 0 -37.5 15.5t-15.5 37.5t15.5 37.5t37.5 15.5zM178 53q21 0 36.5 -15.5t15.5 -37.5t-15.5 -37.5t-36.5 -15.5q-22 0 -37.5 15.5t-15.5 37.5t15.5 37.5t37.5 15.5zM178 428q21 0 36.5 -15.5t15.5 -37.5t-15 -37t-37 -15
q-21 0 -37 15t-16 37t15.5 37.5t37.5 15.5zM428 53q21 0 36.5 -15.5t15.5 -37.5t-15.5 -37.5t-36.5 -15.5q-22 0 -37.5 15.5t-15.5 37.5t15.5 37.5t37.5 15.5zM428 428q21 0 36.5 -15.5t15.5 -37.5t-15 -37t-37 -15q-21 0 -37 15t-16 37t15.5 37.5t37.5 15.5zM53 678
q21 0 36.5 -15.5t15.5 -37.5t-15 -37t-37 -15q-21 0 -37 15t-16 37t15.5 37.5t37.5 15.5zM53 553q21 0 36.5 -15.5t15.5 -37.5t-15 -37t-37 -15q-21 0 -37 15t-16 37t15.5 37.5t37.5 15.5zM51 303q22 0 37.5 -15.5t15.5 -37.5t-15 -37t-38 -15q-21 0 -36.5 15.5t-15.5 36.5
q0 22 15.5 37.5t36.5 15.5zM53 178q21 0 36.5 -15.5t15.5 -37.5t-15 -37t-37 -15q-21 0 -37 15t-16 37t15.5 37.5t37.5 15.5zM303 803q21 0 36.5 -15.5t15.5 -37.5t-15 -37t-37 -15q-21 0 -37 15t-16 37t15.5 37.5t37.5 15.5zM178 803q21 0 36.5 -15.5t15.5 -37.5t-15 -37
t-37 -15q-21 0 -37 15t-16 37t15.5 37.5t37.5 15.5zM428 803q21 0 36.5 -15.5t15.5 -37.5t-15 -37t-37 -15q-21 0 -37 15t-16 37t15.5 37.5t37.5 15.5z" />
    <glyph glyph-name="nine" unicode="9" 
d="M553 678q21 0 36.5 -15.5t15.5 -37.5t-15 -37t-37 -15q-21 0 -37 15t-16 37t15.5 37.5t37.5 15.5zM553 553q21 0 36.5 -15.5t15.5 -37.5t-15 -37t-37 -15q-21 0 -37 15t-16 37t15.5 37.5t37.5 15.5zM303 428q21 0 36.5 -15.5t15.5 -37.5t-15 -37t-37 -15q-21 0 -37 15
t-16 37t15.5 37.5t37.5 15.5zM551 303q22 0 37.5 -15.5t15.5 -37.5t-15 -37t-38 -15q-21 0 -36.5 15.5t-15.5 36.5q0 22 15.5 37.5t36.5 15.5zM490 178q22 0 37.5 -15.5t15.5 -37.5t-15 -37t-38 -15q-22 0 -37 15t-15 37q0 21 15 37t37 16zM428 53q21 0 36.5 -15.5
t15.5 -37.5t-15.5 -37.5t-36.5 -15.5q-22 0 -37.5 15.5t-15.5 37.5t15.5 37.5t37.5 15.5zM178 428q21 0 36.5 -15.5t15.5 -37.5t-15 -37t-37 -15q-21 0 -37 15t-16 37t15.5 37.5t37.5 15.5zM428 428q21 0 36.5 -15.5t15.5 -37.5t-15 -37t-37 -15q-21 0 -37 15t-16 37
t15.5 37.5t37.5 15.5zM53 678q21 0 36.5 -15.5t15.5 -37.5t-15 -37t-37 -15q-21 0 -37 15t-16 37t15.5 37.5t37.5 15.5zM53 553q21 0 36.5 -15.5t15.5 -37.5t-15 -37t-37 -15q-21 0 -37 15t-16 37t15.5 37.5t37.5 15.5zM303 53q21 0 36.5 -15.5t15.5 -37.5t-15.5 -37.5
t-36.5 -15.5q-22 0 -37.5 15.5t-15.5 37.5t15.5 37.5t37.5 15.5zM303 803q21 0 36.5 -15.5t15.5 -37.5t-15 -37t-37 -15q-21 0 -37 15t-16 37t15.5 37.5t37.5 15.5zM178 803q21 0 36.5 -15.5t15.5 -37.5t-15 -37t-37 -15q-21 0 -37 15t-16 37t15.5 37.5t37.5 15.5zM428 803
q21 0 36.5 -15.5t15.5 -37.5t-15 -37t-37 -15q-21 0 -37 15t-16 37t15.5 37.5t37.5 15.5zM553 428q21 0 36.5 -15.5t15.5 -37.5t-15 -37t-37 -15q-21 0 -37 15t-16 37t15.5 37.5t37.5 15.5zM178 53q21 0 36.5 -15.5t15.5 -37.5t-15.5 -37.5t-36.5 -15.5q-22 0 -37.5 15.5
t-15.5 37.5t15.5 37.5t37.5 15.5z" />
    <glyph glyph-name="colon" unicode=":" 
d="M178 553q21 0 36.5 -15.5t15.5 -37.5t-15 -37t-37 -15q-21 0 -37 15t-16 37t15.5 37.5t37.5 15.5zM53 553q21 0 36.5 -15.5t15.5 -37.5t-15 -37t-37 -15q-21 0 -37 15t-16 37t15.5 37.5t37.5 15.5zM178 428q21 0 36.5 -15.5t15.5 -37.5t-15 -37t-37 -15q-21 0 -37 15
t-16 37t15.5 37.5t37.5 15.5zM53 428q21 0 36.5 -15.5t15.5 -37.5t-15 -37t-37 -15q-21 0 -37 15t-16 37t15.5 37.5t37.5 15.5zM178 178q21 0 36.5 -15.5t15.5 -37.5t-15 -37t-37 -15q-21 0 -37 15t-16 37t15.5 37.5t37.5 15.5zM53 178q21 0 36.5 -15.5t15.5 -37.5t-15 -37
t-37 -15q-21 0 -37 15t-16 37t15.5 37.5t37.5 15.5zM178 53q21 0 36.5 -15.5t15.5 -37.5t-15.5 -37.5t-36.5 -15.5q-22 0 -37.5 15.5t-15.5 37.5t15.5 37.5t37.5 15.5zM53 53q21 0 36.5 -15.5t15.5 -37.5t-15.5 -37.5t-36.5 -15.5q-22 0 -37.5 15.5t-15.5 37.5t15.5 37.5
t37.5 15.5z" />
    <glyph glyph-name="semicolon" unicode=";" 
d="M178 553q21 0 36.5 -15.5t15.5 -37.5t-15 -37t-37 -15q-21 0 -37 15t-16 37t15.5 37.5t37.5 15.5zM53 -198q21 0 36.5 -15.5t15.5 -36.5q0 -22 -15.5 -37.5t-36.5 -15.5q-22 0 -37.5 15.5t-15.5 37.5t15 37t38 15zM115 -73q21 0 37 -15t16 -37t-15.5 -37.5t-37.5 -15.5
t-37 15t-15 38q0 22 15 37t37 15zM53 553q21 0 36.5 -15.5t15.5 -37.5t-15 -37t-37 -15q-21 0 -37 15t-16 37t15.5 37.5t37.5 15.5zM178 428q21 0 36.5 -15.5t15.5 -37.5t-15 -37t-37 -15q-21 0 -37 15t-16 37t15.5 37.5t37.5 15.5zM53 428q21 0 36.5 -15.5t15.5 -37.5
t-15 -37t-37 -15q-21 0 -37 15t-16 37t15.5 37.5t37.5 15.5zM178 178q21 0 36.5 -15.5t15.5 -37.5t-15 -37t-37 -15q-21 0 -37 15t-16 37t15.5 37.5t37.5 15.5zM53 178q21 0 36.5 -15.5t15.5 -37.5t-15 -37t-37 -15q-21 0 -37 15t-16 37t15.5 37.5t37.5 15.5zM178 53
q21 0 36.5 -15.5t15.5 -37.5t-15.5 -37.5t-36.5 -15.5q-22 0 -37.5 15.5t-15.5 37.5t15.5 37.5t37.5 15.5zM53 53q21 0 36.5 -15.5t15.5 -37.5t-15.5 -37.5t-36.5 -15.5q-22 0 -37.5 15.5t-15.5 37.5t15.5 37.5t37.5 15.5z" />
    <glyph glyph-name="less" unicode="&#x3c;" 
d="M428 803q21 0 36.5 -15.5t15.5 -37.5t-15 -37t-37 -15q-21 0 -37 15t-16 37t15.5 37.5t37.5 15.5zM303 678q21 0 36.5 -15.5t15.5 -37.5t-15 -37t-37 -15q-21 0 -37 15t-16 37t15.5 37.5t37.5 15.5zM303 178q21 0 36.5 -15.5t15.5 -37.5t-15 -37t-37 -15q-21 0 -37 15
t-16 37t15.5 37.5t37.5 15.5zM53 428q21 0 36.5 -15.5t15.5 -37.5t-15 -37t-37 -15q-21 0 -37 15t-16 37t15.5 37.5t37.5 15.5zM428 53q21 0 36.5 -15.5t15.5 -37.5t-15.5 -37.5t-36.5 -15.5q-22 0 -37.5 15.5t-15.5 37.5t15.5 37.5t37.5 15.5zM178 303q21 0 36.5 -15.5
t15.5 -37.5t-15 -37t-37 -15q-21 0 -37 15t-16 37t15.5 37.5t37.5 15.5zM178 553q21 0 36.5 -15.5t15.5 -37.5t-15 -37t-37 -15q-21 0 -37 15t-16 37t15.5 37.5t37.5 15.5z" />
    <glyph glyph-name="equal" unicode="=" 
d="M303 553q21 0 36.5 -15.5t15.5 -37.5t-15 -37t-37 -15q-21 0 -37 15t-16 37t15.5 37.5t37.5 15.5zM178 553q21 0 36.5 -15.5t15.5 -37.5t-15 -37t-37 -15q-21 0 -37 15t-16 37t15.5 37.5t37.5 15.5zM428 553q21 0 36.5 -15.5t15.5 -37.5t-15 -37t-37 -15q-21 0 -37 15
t-16 37t15.5 37.5t37.5 15.5zM51 553q22 0 37.5 -15.5t15.5 -37.5t-15 -37t-38 -15q-21 0 -36.5 15.5t-15.5 36.5q0 22 15.5 37.5t36.5 15.5zM551 553q22 0 37.5 -15.5t15.5 -37.5t-15 -37t-38 -15q-21 0 -36.5 15.5t-15.5 36.5q0 22 15.5 37.5t36.5 15.5zM303 303
q21 0 36.5 -15.5t15.5 -37.5t-15 -37t-37 -15q-21 0 -37 15t-16 37t15.5 37.5t37.5 15.5zM178 303q21 0 36.5 -15.5t15.5 -37.5t-15 -37t-37 -15q-21 0 -37 15t-16 37t15.5 37.5t37.5 15.5zM428 303q21 0 36.5 -15.5t15.5 -37.5t-15 -37t-37 -15q-21 0 -37 15t-16 37
t15.5 37.5t37.5 15.5zM51 303q22 0 37.5 -15.5t15.5 -37.5t-15 -37t-38 -15q-21 0 -36.5 15.5t-15.5 36.5q0 22 15.5 37.5t36.5 15.5zM551 303q22 0 37.5 -15.5t15.5 -37.5t-15 -37t-38 -15q-21 0 -36.5 15.5t-15.5 36.5q0 22 15.5 37.5t36.5 15.5z" />
    <glyph glyph-name="greater" unicode="&#x3e;" 
d="M53 803q21 0 36.5 -15.5t15.5 -37.5t-15 -37t-37 -15q-21 0 -37 15t-16 37t15.5 37.5t37.5 15.5zM178 678q21 0 36.5 -15.5t15.5 -37.5t-15 -37t-37 -15q-21 0 -37 15t-16 37t15.5 37.5t37.5 15.5zM178 178q21 0 36.5 -15.5t15.5 -37.5t-15 -37t-37 -15q-21 0 -37 15
t-16 37t15.5 37.5t37.5 15.5zM428 428q21 0 36.5 -15.5t15.5 -37.5t-15 -37t-37 -15q-21 0 -37 15t-16 37t15.5 37.5t37.5 15.5zM53 53q21 0 36.5 -15.5t15.5 -37.5t-15.5 -37.5t-36.5 -15.5q-22 0 -37.5 15.5t-15.5 37.5t15.5 37.5t37.5 15.5zM303 303q21 0 36.5 -15.5
t15.5 -37.5t-15 -37t-37 -15q-21 0 -37 15t-16 37t15.5 37.5t37.5 15.5zM303 553q21 0 36.5 -15.5t15.5 -37.5t-15 -37t-37 -15q-21 0 -37 15t-16 37t15.5 37.5t37.5 15.5z" />
    <glyph glyph-name="question" unicode="?" 
d="M553 678q21 0 36.5 -15.5t15.5 -37.5t-15 -37t-37 -15q-21 0 -37 15t-16 37t15.5 37.5t37.5 15.5zM553 553q21 0 36.5 -15.5t15.5 -37.5t-15 -37t-37 -15q-21 0 -37 15t-16 37t15.5 37.5t37.5 15.5zM303 428q21 0 36.5 -15.5t15.5 -37.5t-15 -37t-37 -15q-21 0 -37 15
t-16 37t15.5 37.5t37.5 15.5zM301 303q22 0 37.5 -15.5t15.5 -37.5t-15 -37t-38 -15q-21 0 -36.5 15.5t-15.5 36.5q0 22 15.5 37.5t36.5 15.5zM303 53q21 0 36.5 -15.5t15.5 -37.5t-15.5 -37.5t-36.5 -15.5q-22 0 -37.5 15.5t-15.5 37.5t15.5 37.5t37.5 15.5zM428 428
q21 0 36.5 -15.5t15.5 -37.5t-15 -37t-37 -15q-21 0 -37 15t-16 37t15.5 37.5t37.5 15.5zM53 678q21 0 36.5 -15.5t15.5 -37.5t-15 -37t-37 -15q-21 0 -37 15t-16 37t15.5 37.5t37.5 15.5zM303 803q21 0 36.5 -15.5t15.5 -37.5t-15 -37t-37 -15q-21 0 -37 15t-16 37
t15.5 37.5t37.5 15.5zM178 803q21 0 36.5 -15.5t15.5 -37.5t-15 -37t-37 -15q-21 0 -37 15t-16 37t15.5 37.5t37.5 15.5zM428 803q21 0 36.5 -15.5t15.5 -37.5t-15 -37t-37 -15q-21 0 -37 15t-16 37t15.5 37.5t37.5 15.5z" />
    <glyph glyph-name="at" unicode="@" 
d="M178 678q21 0 36.5 -15.5t15.5 -37.5t-15 -37t-37 -15q-21 0 -37 15t-16 37t15.5 37.5t37.5 15.5zM115 53q22 0 37.5 -15.5t15.5 -37.5t-15.5 -37.5t-37.5 -15.5t-37 15t-15 38q0 21 15 37t37 16zM53 678q21 0 36.5 -15.5t15.5 -37.5t-15 -37t-37 -15q-21 0 -37 15
t-16 37t15.5 37.5t37.5 15.5zM365 53q22 0 37.5 -15.5t15.5 -37.5t-15.5 -37.5t-37.5 -15.5t-37 15t-15 38q0 21 15 37t37 16zM301 240q22 0 37.5 -15.5t15.5 -36.5q0 -22 -15.5 -37.5t-37.5 -15.5q-21 0 -36.5 15.5t-15.5 37.5q0 21 15.5 36.5t36.5 15.5zM-10 428
q22 0 37.5 -15.5t15.5 -37.5t-15 -37t-38 -15q-21 0 -37 15t-16 37t15.5 37.5t37.5 15.5zM-11 303q22 0 37 -15t15 -38q0 -22 -15 -37t-37 -15q-21 0 -37 15t-16 37t15.5 37.5t37.5 15.5zM-10 178q22 0 37.5 -15.5t15.5 -37.5t-15 -37t-38 -15q-21 0 -37 15t-16 37
t15.5 37.5t37.5 15.5zM303 678q21 0 36.5 -15.5t15.5 -37.5t-15 -37t-37 -15q-21 0 -37 15t-16 37t15.5 37.5t37.5 15.5zM303 365q21 0 36.5 -15.5t15.5 -36.5q0 -22 -15.5 -37.5t-36.5 -15.5q-22 0 -37.5 15.5t-15.5 37.5q0 21 15.5 36.5t37.5 15.5zM240 53
q22 0 37.5 -15.5t15.5 -37.5t-15.5 -37.5t-37.5 -15.5t-37 15t-15 38q0 21 15 37t37 16zM-10 553q22 0 37.5 -15.5t15.5 -37.5t-15 -37t-38 -15q-21 0 -37 15t-16 37t15.5 37.5t37.5 15.5zM303 490q21 0 36.5 -15.5t15.5 -36.5q0 -22 -15.5 -37.5t-36.5 -15.5
q-22 0 -37.5 15.5t-15.5 37.5q0 21 15.5 36.5t37.5 15.5zM178 240q21 0 36.5 -15.5t15.5 -36.5q0 -22 -15.5 -37.5t-36.5 -15.5q-22 0 -37.5 15.5t-15.5 37.5q0 21 15.5 36.5t37.5 15.5zM115 365q22 0 37.5 -15.5t15.5 -36.5q0 -22 -15.5 -37.5t-37.5 -15.5t-37 15t-15 38
q0 21 15.5 36.5t36.5 15.5zM178 490q21 0 36.5 -15.5t15.5 -36.5q0 -22 -15.5 -37.5t-36.5 -15.5q-22 0 -37.5 15.5t-15.5 37.5q0 21 15.5 36.5t37.5 15.5zM426 240q22 0 37.5 -15.5t15.5 -36.5q0 -22 -15.5 -37.5t-37.5 -15.5q-21 0 -36.5 15.5t-15.5 37.5q0 21 15.5 36.5
t36.5 15.5zM490 428q22 0 37.5 -15.5t15.5 -37.5t-15 -37t-38 -15q-22 0 -37 15t-15 37q0 21 15 37t37 16zM490 553q22 0 37.5 -15.5t15.5 -37.5t-15 -37t-38 -15q-22 0 -37 15t-15 37q0 21 15 37t37 16zM428 678q21 0 36.5 -15.5t15.5 -37.5t-15 -37t-37 -15q-21 0 -37 15
t-16 37t15.5 37.5t37.5 15.5z" />
    <glyph glyph-name="A" unicode="A" 
d="M303 803q21 0 36.5 -15.5t15.5 -37.5t-15 -37t-37 -15q-21 0 -37 15t-16 37t15.5 37.5t37.5 15.5zM303 303q21 0 36.5 -15.5t15.5 -37.5t-15 -37t-37 -15q-21 0 -37 15t-16 37t15.5 37.5t37.5 15.5zM53 53q21 0 36.5 -15.5t15.5 -37.5t-15.5 -37.5t-36.5 -15.5
q-22 0 -37.5 15.5t-15.5 37.5t15.5 37.5t37.5 15.5zM178 303q21 0 36.5 -15.5t15.5 -37.5t-15 -37t-37 -15q-21 0 -37 15t-16 37t15.5 37.5t37.5 15.5zM428 303q21 0 36.5 -15.5t15.5 -37.5t-15 -37t-37 -15q-21 0 -37 15t-16 37t15.5 37.5t37.5 15.5zM240 678
q22 0 37.5 -15.5t15.5 -37.5t-15 -37t-38 -15q-22 0 -37 15t-15 37q0 21 15 37t37 16zM178 553q21 0 36.5 -15.5t15.5 -37.5t-15 -37t-37 -15q-21 0 -37 15t-16 37t15.5 37.5t37.5 15.5zM115 428q22 0 37.5 -15.5t15.5 -37.5t-15 -37t-38 -15q-22 0 -37 15t-15 37
q0 21 15 37t37 16zM51 303q22 0 37.5 -15.5t15.5 -37.5t-15 -37t-38 -15q-21 0 -36.5 15.5t-15.5 36.5q0 22 15.5 37.5t36.5 15.5zM53 178q21 0 36.5 -15.5t15.5 -37.5t-15 -37t-37 -15q-21 0 -37 15t-16 37t15.5 37.5t37.5 15.5zM553 53q21 0 36.5 -15.5t15.5 -37.5
t-15.5 -37.5t-36.5 -15.5q-22 0 -37.5 15.5t-15.5 37.5t15.5 37.5t37.5 15.5zM365 678q22 0 37.5 -15.5t15.5 -37.5t-15 -37t-38 -15q-22 0 -37 15t-15 37q0 21 15 37t37 16zM428 553q21 0 36.5 -15.5t15.5 -37.5t-15 -37t-37 -15q-21 0 -37 15t-16 37t15.5 37.5t37.5 15.5z
M490 428q22 0 37.5 -15.5t15.5 -37.5t-15 -37t-38 -15q-22 0 -37 15t-15 37q0 21 15 37t37 16zM551 303q22 0 37.5 -15.5t15.5 -37.5t-15 -37t-38 -15q-21 0 -36.5 15.5t-15.5 36.5q0 22 15.5 37.5t36.5 15.5zM553 178q21 0 36.5 -15.5t15.5 -37.5t-15 -37t-37 -15
q-21 0 -37 15t-16 37t15.5 37.5t37.5 15.5z" />
    <glyph glyph-name="B" unicode="B" 
d="M553 678q21 0 36.5 -15.5t15.5 -37.5t-15 -37t-37 -15q-21 0 -37 15t-16 37t15.5 37.5t37.5 15.5zM553 553q21 0 36.5 -15.5t15.5 -37.5t-15 -37t-37 -15q-21 0 -37 15t-16 37t15.5 37.5t37.5 15.5zM303 428q21 0 36.5 -15.5t15.5 -37.5t-15 -37t-37 -15q-21 0 -37 15
t-16 37t15.5 37.5t37.5 15.5zM551 303q22 0 37.5 -15.5t15.5 -37.5t-15 -37t-38 -15q-21 0 -36.5 15.5t-15.5 36.5q0 22 15.5 37.5t36.5 15.5zM553 178q21 0 36.5 -15.5t15.5 -37.5t-15 -37t-37 -15q-21 0 -37 15t-16 37t15.5 37.5t37.5 15.5zM303 53q21 0 36.5 -15.5
t15.5 -37.5t-15.5 -37.5t-36.5 -15.5q-22 0 -37.5 15.5t-15.5 37.5t15.5 37.5t37.5 15.5zM53 53q21 0 36.5 -15.5t15.5 -37.5t-15.5 -37.5t-36.5 -15.5q-22 0 -37.5 15.5t-15.5 37.5t15.5 37.5t37.5 15.5zM53 803q21 0 36.5 -15.5t15.5 -37.5t-15 -37t-37 -15q-21 0 -37 15
t-16 37t15.5 37.5t37.5 15.5zM428 53q21 0 36.5 -15.5t15.5 -37.5t-15.5 -37.5t-36.5 -15.5q-22 0 -37.5 15.5t-15.5 37.5t15.5 37.5t37.5 15.5zM428 428q21 0 36.5 -15.5t15.5 -37.5t-15 -37t-37 -15q-21 0 -37 15t-16 37t15.5 37.5t37.5 15.5zM115 678q22 0 37.5 -15.5
t15.5 -37.5t-15 -37t-38 -15q-22 0 -37 15t-15 37q0 21 15 37t37 16zM115 553q22 0 37.5 -15.5t15.5 -37.5t-15 -37t-38 -15q-22 0 -37 15t-15 37q0 21 15 37t37 16zM115 428q22 0 37.5 -15.5t15.5 -37.5t-15 -37t-38 -15q-22 0 -37 15t-15 37q0 21 15 37t37 16zM114 303
q22 0 37 -15t15 -38q0 -22 -15 -37t-37 -15q-21 0 -37 15t-16 37t15.5 37.5t37.5 15.5zM115 178q22 0 37.5 -15.5t15.5 -37.5t-15 -37t-38 -15q-22 0 -37 15t-15 37q0 21 15 37t37 16zM178 53q21 0 36.5 -15.5t15.5 -37.5t-15.5 -37.5t-36.5 -15.5q-22 0 -37.5 15.5
t-15.5 37.5t15.5 37.5t37.5 15.5zM178 803q21 0 36.5 -15.5t15.5 -37.5t-15 -37t-37 -15q-21 0 -37 15t-16 37t15.5 37.5t37.5 15.5zM303 803q21 0 36.5 -15.5t15.5 -37.5t-15 -37t-37 -15q-21 0 -37 15t-16 37t15.5 37.5t37.5 15.5zM428 803q21 0 36.5 -15.5t15.5 -37.5
t-15 -37t-37 -15q-21 0 -37 15t-16 37t15.5 37.5t37.5 15.5z" />
    <glyph glyph-name="C" unicode="C" 
d="M553 678q21 0 36.5 -15.5t15.5 -37.5t-15 -37t-37 -15q-21 0 -37 15t-16 37t15.5 37.5t37.5 15.5zM303 803q21 0 36.5 -15.5t15.5 -37.5t-15 -37t-37 -15q-21 0 -37 15t-16 37t15.5 37.5t37.5 15.5zM553 178q21 0 36.5 -15.5t15.5 -37.5t-15 -37t-37 -15q-21 0 -37 15
t-16 37t15.5 37.5t37.5 15.5zM303 53q21 0 36.5 -15.5t15.5 -37.5t-15.5 -37.5t-36.5 -15.5q-22 0 -37.5 15.5t-15.5 37.5t15.5 37.5t37.5 15.5zM178 53q21 0 36.5 -15.5t15.5 -37.5t-15.5 -37.5t-36.5 -15.5q-22 0 -37.5 15.5t-15.5 37.5t15.5 37.5t37.5 15.5zM178 803
q21 0 36.5 -15.5t15.5 -37.5t-15 -37t-37 -15q-21 0 -37 15t-16 37t15.5 37.5t37.5 15.5zM428 53q21 0 36.5 -15.5t15.5 -37.5t-15.5 -37.5t-36.5 -15.5q-22 0 -37.5 15.5t-15.5 37.5t15.5 37.5t37.5 15.5zM428 803q21 0 36.5 -15.5t15.5 -37.5t-15 -37t-37 -15
q-21 0 -37 15t-16 37t15.5 37.5t37.5 15.5zM53 678q21 0 36.5 -15.5t15.5 -37.5t-15 -37t-37 -15q-21 0 -37 15t-16 37t15.5 37.5t37.5 15.5zM53 553q21 0 36.5 -15.5t15.5 -37.5t-15 -37t-37 -15q-21 0 -37 15t-16 37t15.5 37.5t37.5 15.5zM53 428q21 0 36.5 -15.5
t15.5 -37.5t-15 -37t-37 -15q-21 0 -37 15t-16 37t15.5 37.5t37.5 15.5zM51 303q22 0 37.5 -15.5t15.5 -37.5t-15 -37t-38 -15q-21 0 -36.5 15.5t-15.5 36.5q0 22 15.5 37.5t36.5 15.5zM53 178q21 0 36.5 -15.5t15.5 -37.5t-15 -37t-37 -15q-21 0 -37 15t-16 37t15.5 37.5
t37.5 15.5z" />
    <glyph glyph-name="D" unicode="D" 
d="M553 678q21 0 36.5 -15.5t15.5 -37.5t-15 -37t-37 -15q-21 0 -37 15t-16 37t15.5 37.5t37.5 15.5zM553 553q21 0 36.5 -15.5t15.5 -37.5t-15 -37t-37 -15q-21 0 -37 15t-16 37t15.5 37.5t37.5 15.5zM303 803q21 0 36.5 -15.5t15.5 -37.5t-15 -37t-37 -15q-21 0 -37 15
t-16 37t15.5 37.5t37.5 15.5zM553 428q21 0 36.5 -15.5t15.5 -37.5t-15 -37t-37 -15q-21 0 -37 15t-16 37t15.5 37.5t37.5 15.5zM551 303q22 0 37.5 -15.5t15.5 -37.5t-15 -37t-38 -15q-21 0 -36.5 15.5t-15.5 36.5q0 22 15.5 37.5t36.5 15.5zM553 178q21 0 36.5 -15.5
t15.5 -37.5t-15 -37t-37 -15q-21 0 -37 15t-16 37t15.5 37.5t37.5 15.5zM303 53q21 0 36.5 -15.5t15.5 -37.5t-15.5 -37.5t-36.5 -15.5q-22 0 -37.5 15.5t-15.5 37.5t15.5 37.5t37.5 15.5zM53 53q21 0 36.5 -15.5t15.5 -37.5t-15.5 -37.5t-36.5 -15.5q-22 0 -37.5 15.5
t-15.5 37.5t15.5 37.5t37.5 15.5zM53 803q21 0 36.5 -15.5t15.5 -37.5t-15 -37t-37 -15q-21 0 -37 15t-16 37t15.5 37.5t37.5 15.5zM428 53q21 0 36.5 -15.5t15.5 -37.5t-15.5 -37.5t-36.5 -15.5q-22 0 -37.5 15.5t-15.5 37.5t15.5 37.5t37.5 15.5zM428 803q21 0 36.5 -15.5
t15.5 -37.5t-15 -37t-37 -15q-21 0 -37 15t-16 37t15.5 37.5t37.5 15.5zM115 678q22 0 37.5 -15.5t15.5 -37.5t-15 -37t-38 -15q-22 0 -37 15t-15 37q0 21 15 37t37 16zM115 553q22 0 37.5 -15.5t15.5 -37.5t-15 -37t-38 -15q-22 0 -37 15t-15 37q0 21 15 37t37 16zM115 428
q22 0 37.5 -15.5t15.5 -37.5t-15 -37t-38 -15q-22 0 -37 15t-15 37q0 21 15 37t37 16zM114 303q22 0 37 -15t15 -38q0 -22 -15 -37t-37 -15q-21 0 -37 15t-16 37t15.5 37.5t37.5 15.5zM115 178q22 0 37.5 -15.5t15.5 -37.5t-15 -37t-38 -15q-22 0 -37 15t-15 37q0 21 15 37
t37 16zM178 53q21 0 36.5 -15.5t15.5 -37.5t-15.5 -37.5t-36.5 -15.5q-22 0 -37.5 15.5t-15.5 37.5t15.5 37.5t37.5 15.5zM178 803q21 0 36.5 -15.5t15.5 -37.5t-15 -37t-37 -15q-21 0 -37 15t-16 37t15.5 37.5t37.5 15.5z" />
    <glyph glyph-name="E" unicode="E" 
d="M53 803q21 0 36.5 -15.5t15.5 -37.5t-15 -37t-37 -15q-21 0 -37 15t-16 37t15.5 37.5t37.5 15.5zM303 803q21 0 36.5 -15.5t15.5 -37.5t-15 -37t-37 -15q-21 0 -37 15t-16 37t15.5 37.5t37.5 15.5zM53 53q21 0 36.5 -15.5t15.5 -37.5t-15.5 -37.5t-36.5 -15.5
q-22 0 -37.5 15.5t-15.5 37.5t15.5 37.5t37.5 15.5zM178 803q21 0 36.5 -15.5t15.5 -37.5t-15 -37t-37 -15q-21 0 -37 15t-16 37t15.5 37.5t37.5 15.5zM428 803q21 0 36.5 -15.5t15.5 -37.5t-15 -37t-37 -15q-21 0 -37 15t-16 37t15.5 37.5t37.5 15.5zM53 678
q21 0 36.5 -15.5t15.5 -37.5t-15 -37t-37 -15q-21 0 -37 15t-16 37t15.5 37.5t37.5 15.5zM53 553q21 0 36.5 -15.5t15.5 -37.5t-15 -37t-37 -15q-21 0 -37 15t-16 37t15.5 37.5t37.5 15.5zM53 428q21 0 36.5 -15.5t15.5 -37.5t-15 -37t-37 -15q-21 0 -37 15t-16 37
t15.5 37.5t37.5 15.5zM51 303q22 0 37.5 -15.5t15.5 -37.5t-15 -37t-38 -15q-21 0 -36.5 15.5t-15.5 36.5q0 22 15.5 37.5t36.5 15.5zM53 178q21 0 36.5 -15.5t15.5 -37.5t-15 -37t-37 -15q-21 0 -37 15t-16 37t15.5 37.5t37.5 15.5zM553 803q21 0 36.5 -15.5t15.5 -37.5
t-15 -37t-37 -15q-21 0 -37 15t-16 37t15.5 37.5t37.5 15.5zM303 428q21 0 36.5 -15.5t15.5 -37.5t-15 -37t-37 -15q-21 0 -37 15t-16 37t15.5 37.5t37.5 15.5zM178 428q21 0 36.5 -15.5t15.5 -37.5t-15 -37t-37 -15q-21 0 -37 15t-16 37t15.5 37.5t37.5 15.5zM428 428
q21 0 36.5 -15.5t15.5 -37.5t-15 -37t-37 -15q-21 0 -37 15t-16 37t15.5 37.5t37.5 15.5zM303 53q21 0 36.5 -15.5t15.5 -37.5t-15.5 -37.5t-36.5 -15.5q-22 0 -37.5 15.5t-15.5 37.5t15.5 37.5t37.5 15.5zM178 53q21 0 36.5 -15.5t15.5 -37.5t-15.5 -37.5t-36.5 -15.5
q-22 0 -37.5 15.5t-15.5 37.5t15.5 37.5t37.5 15.5zM428 53q21 0 36.5 -15.5t15.5 -37.5t-15.5 -37.5t-36.5 -15.5q-22 0 -37.5 15.5t-15.5 37.5t15.5 37.5t37.5 15.5zM553 53q21 0 36.5 -15.5t15.5 -37.5t-15.5 -37.5t-36.5 -15.5q-22 0 -37.5 15.5t-15.5 37.5t15.5 37.5
t37.5 15.5z" />
    <glyph glyph-name="F" unicode="F" 
d="M53 803q21 0 36.5 -15.5t15.5 -37.5t-15 -37t-37 -15q-21 0 -37 15t-16 37t15.5 37.5t37.5 15.5zM303 803q21 0 36.5 -15.5t15.5 -37.5t-15 -37t-37 -15q-21 0 -37 15t-16 37t15.5 37.5t37.5 15.5zM53 53q21 0 36.5 -15.5t15.5 -37.5t-15.5 -37.5t-36.5 -15.5
q-22 0 -37.5 15.5t-15.5 37.5t15.5 37.5t37.5 15.5zM178 803q21 0 36.5 -15.5t15.5 -37.5t-15 -37t-37 -15q-21 0 -37 15t-16 37t15.5 37.5t37.5 15.5zM428 803q21 0 36.5 -15.5t15.5 -37.5t-15 -37t-37 -15q-21 0 -37 15t-16 37t15.5 37.5t37.5 15.5zM53 678
q21 0 36.5 -15.5t15.5 -37.5t-15 -37t-37 -15q-21 0 -37 15t-16 37t15.5 37.5t37.5 15.5zM53 553q21 0 36.5 -15.5t15.5 -37.5t-15 -37t-37 -15q-21 0 -37 15t-16 37t15.5 37.5t37.5 15.5zM53 428q21 0 36.5 -15.5t15.5 -37.5t-15 -37t-37 -15q-21 0 -37 15t-16 37
t15.5 37.5t37.5 15.5zM51 303q22 0 37.5 -15.5t15.5 -37.5t-15 -37t-38 -15q-21 0 -36.5 15.5t-15.5 36.5q0 22 15.5 37.5t36.5 15.5zM53 178q21 0 36.5 -15.5t15.5 -37.5t-15 -37t-37 -15q-21 0 -37 15t-16 37t15.5 37.5t37.5 15.5zM553 803q21 0 36.5 -15.5t15.5 -37.5
t-15 -37t-37 -15q-21 0 -37 15t-16 37t15.5 37.5t37.5 15.5zM303 428q21 0 36.5 -15.5t15.5 -37.5t-15 -37t-37 -15q-21 0 -37 15t-16 37t15.5 37.5t37.5 15.5zM178 428q21 0 36.5 -15.5t15.5 -37.5t-15 -37t-37 -15q-21 0 -37 15t-16 37t15.5 37.5t37.5 15.5zM428 428
q21 0 36.5 -15.5t15.5 -37.5t-15 -37t-37 -15q-21 0 -37 15t-16 37t15.5 37.5t37.5 15.5z" />
    <glyph glyph-name="G" unicode="G" 
d="M553 678q21 0 36.5 -15.5t15.5 -37.5t-15 -37t-37 -15q-21 0 -37 15t-16 37t15.5 37.5t37.5 15.5zM428 428q21 0 36.5 -15.5t15.5 -37.5t-15 -37t-37 -15q-21 0 -37 15t-16 37t15.5 37.5t37.5 15.5zM303 803q21 0 36.5 -15.5t15.5 -37.5t-15 -37t-37 -15q-21 0 -37 15
t-16 37t15.5 37.5t37.5 15.5zM553 428q21 0 36.5 -15.5t15.5 -37.5t-15 -37t-37 -15q-21 0 -37 15t-16 37t15.5 37.5t37.5 15.5zM551 303q22 0 37.5 -15.5t15.5 -37.5t-15 -37t-38 -15q-21 0 -36.5 15.5t-15.5 36.5q0 22 15.5 37.5t36.5 15.5zM553 178q21 0 36.5 -15.5
t15.5 -37.5t-15 -37t-37 -15q-21 0 -37 15t-16 37t15.5 37.5t37.5 15.5zM303 53q21 0 36.5 -15.5t15.5 -37.5t-15.5 -37.5t-36.5 -15.5q-22 0 -37.5 15.5t-15.5 37.5t15.5 37.5t37.5 15.5zM178 53q21 0 36.5 -15.5t15.5 -37.5t-15.5 -37.5t-36.5 -15.5q-22 0 -37.5 15.5
t-15.5 37.5t15.5 37.5t37.5 15.5zM178 803q21 0 36.5 -15.5t15.5 -37.5t-15 -37t-37 -15q-21 0 -37 15t-16 37t15.5 37.5t37.5 15.5zM428 53q21 0 36.5 -15.5t15.5 -37.5t-15.5 -37.5t-36.5 -15.5q-22 0 -37.5 15.5t-15.5 37.5t15.5 37.5t37.5 15.5zM428 803
q21 0 36.5 -15.5t15.5 -37.5t-15 -37t-37 -15q-21 0 -37 15t-16 37t15.5 37.5t37.5 15.5zM53 678q21 0 36.5 -15.5t15.5 -37.5t-15 -37t-37 -15q-21 0 -37 15t-16 37t15.5 37.5t37.5 15.5zM53 553q21 0 36.5 -15.5t15.5 -37.5t-15 -37t-37 -15q-21 0 -37 15t-16 37
t15.5 37.5t37.5 15.5zM53 428q21 0 36.5 -15.5t15.5 -37.5t-15 -37t-37 -15q-21 0 -37 15t-16 37t15.5 37.5t37.5 15.5zM51 303q22 0 37.5 -15.5t15.5 -37.5t-15 -37t-38 -15q-21 0 -36.5 15.5t-15.5 36.5q0 22 15.5 37.5t36.5 15.5zM53 178q21 0 36.5 -15.5t15.5 -37.5
t-15 -37t-37 -15q-21 0 -37 15t-16 37t15.5 37.5t37.5 15.5z" />
    <glyph glyph-name="H" unicode="H" 
d="M553 803q21 0 36.5 -15.5t15.5 -37.5t-15 -37t-37 -15q-21 0 -37 15t-16 37t15.5 37.5t37.5 15.5zM53 803q21 0 36.5 -15.5t15.5 -37.5t-15 -37t-37 -15q-21 0 -37 15t-16 37t15.5 37.5t37.5 15.5zM303 428q21 0 36.5 -15.5t15.5 -37.5t-15 -37t-37 -15q-21 0 -37 15
t-16 37t15.5 37.5t37.5 15.5zM53 53q21 0 36.5 -15.5t15.5 -37.5t-15.5 -37.5t-36.5 -15.5q-22 0 -37.5 15.5t-15.5 37.5t15.5 37.5t37.5 15.5zM178 428q21 0 36.5 -15.5t15.5 -37.5t-15 -37t-37 -15q-21 0 -37 15t-16 37t15.5 37.5t37.5 15.5zM428 428q21 0 36.5 -15.5
t15.5 -37.5t-15 -37t-37 -15q-21 0 -37 15t-16 37t15.5 37.5t37.5 15.5zM53 678q21 0 36.5 -15.5t15.5 -37.5t-15 -37t-37 -15q-21 0 -37 15t-16 37t15.5 37.5t37.5 15.5zM53 553q21 0 36.5 -15.5t15.5 -37.5t-15 -37t-37 -15q-21 0 -37 15t-16 37t15.5 37.5t37.5 15.5z
M53 428q21 0 36.5 -15.5t15.5 -37.5t-15 -37t-37 -15q-21 0 -37 15t-16 37t15.5 37.5t37.5 15.5zM51 303q22 0 37.5 -15.5t15.5 -37.5t-15 -37t-38 -15q-21 0 -36.5 15.5t-15.5 36.5q0 22 15.5 37.5t36.5 15.5zM53 178q21 0 36.5 -15.5t15.5 -37.5t-15 -37t-37 -15
q-21 0 -37 15t-16 37t15.5 37.5t37.5 15.5zM553 53q21 0 36.5 -15.5t15.5 -37.5t-15.5 -37.5t-36.5 -15.5q-22 0 -37.5 15.5t-15.5 37.5t15.5 37.5t37.5 15.5zM553 678q21 0 36.5 -15.5t15.5 -37.5t-15 -37t-37 -15q-21 0 -37 15t-16 37t15.5 37.5t37.5 15.5zM553 553
q21 0 36.5 -15.5t15.5 -37.5t-15 -37t-37 -15q-21 0 -37 15t-16 37t15.5 37.5t37.5 15.5zM553 428q21 0 36.5 -15.5t15.5 -37.5t-15 -37t-37 -15q-21 0 -37 15t-16 37t15.5 37.5t37.5 15.5zM551 303q22 0 37.5 -15.5t15.5 -37.5t-15 -37t-38 -15q-21 0 -36.5 15.5
t-15.5 36.5q0 22 15.5 37.5t36.5 15.5zM553 178q21 0 36.5 -15.5t15.5 -37.5t-15 -37t-37 -15q-21 0 -37 15t-16 37t15.5 37.5t37.5 15.5z" />
    <glyph glyph-name="I" unicode="I" 
d="M428 53q21 0 36.5 -15.5t15.5 -37.5t-15.5 -37.5t-36.5 -15.5q-22 0 -37.5 15.5t-15.5 37.5t15.5 37.5t37.5 15.5zM178 53q21 0 36.5 -15.5t15.5 -37.5t-15.5 -37.5t-36.5 -15.5q-22 0 -37.5 15.5t-15.5 37.5t15.5 37.5t37.5 15.5zM303 803q21 0 36.5 -15.5t15.5 -37.5
t-15 -37t-37 -15q-21 0 -37 15t-16 37t15.5 37.5t37.5 15.5zM303 53q21 0 36.5 -15.5t15.5 -37.5t-15.5 -37.5t-36.5 -15.5q-22 0 -37.5 15.5t-15.5 37.5t15.5 37.5t37.5 15.5zM178 803q21 0 36.5 -15.5t15.5 -37.5t-15 -37t-37 -15q-21 0 -37 15t-16 37t15.5 37.5
t37.5 15.5zM428 803q21 0 36.5 -15.5t15.5 -37.5t-15 -37t-37 -15q-21 0 -37 15t-16 37t15.5 37.5t37.5 15.5zM303 678q21 0 36.5 -15.5t15.5 -37.5t-15 -37t-37 -15q-21 0 -37 15t-16 37t15.5 37.5t37.5 15.5zM303 553q21 0 36.5 -15.5t15.5 -37.5t-15 -37t-37 -15
q-21 0 -37 15t-16 37t15.5 37.5t37.5 15.5zM303 428q21 0 36.5 -15.5t15.5 -37.5t-15 -37t-37 -15q-21 0 -37 15t-16 37t15.5 37.5t37.5 15.5zM301 303q22 0 37.5 -15.5t15.5 -37.5t-15 -37t-38 -15q-21 0 -36.5 15.5t-15.5 36.5q0 22 15.5 37.5t36.5 15.5zM303 178
q21 0 36.5 -15.5t15.5 -37.5t-15 -37t-37 -15q-21 0 -37 15t-16 37t15.5 37.5t37.5 15.5z" />
    <glyph glyph-name="J" unicode="J" 
d="M428 678q21 0 36.5 -15.5t15.5 -37.5t-15 -37t-37 -15q-21 0 -37 15t-16 37t15.5 37.5t37.5 15.5zM428 553q21 0 36.5 -15.5t15.5 -37.5t-15 -37t-37 -15q-21 0 -37 15t-16 37t15.5 37.5t37.5 15.5zM303 803q21 0 36.5 -15.5t15.5 -37.5t-15 -37t-37 -15q-21 0 -37 15
t-16 37t15.5 37.5t37.5 15.5zM428 428q21 0 36.5 -15.5t15.5 -37.5t-15 -37t-37 -15q-21 0 -37 15t-16 37t15.5 37.5t37.5 15.5zM426 303q22 0 37.5 -15.5t15.5 -37.5t-15 -37t-38 -15q-21 0 -36.5 15.5t-15.5 36.5q0 22 15.5 37.5t36.5 15.5zM428 178q21 0 36.5 -15.5
t15.5 -37.5t-15 -37t-37 -15q-21 0 -37 15t-16 37t15.5 37.5t37.5 15.5zM178 53q21 0 36.5 -15.5t15.5 -37.5t-15.5 -37.5t-36.5 -15.5q-22 0 -37.5 15.5t-15.5 37.5t15.5 37.5t37.5 15.5zM553 803q21 0 36.5 -15.5t15.5 -37.5t-15 -37t-37 -15q-21 0 -37 15t-16 37
t15.5 37.5t37.5 15.5zM303 53q21 0 36.5 -15.5t15.5 -37.5t-15.5 -37.5t-36.5 -15.5q-22 0 -37.5 15.5t-15.5 37.5t15.5 37.5t37.5 15.5zM428 803q21 0 36.5 -15.5t15.5 -37.5t-15 -37t-37 -15q-21 0 -37 15t-16 37t15.5 37.5t37.5 15.5zM51 303q22 0 37.5 -15.5t15.5 -37.5
t-15 -37t-38 -15q-21 0 -36.5 15.5t-15.5 36.5q0 22 15.5 37.5t36.5 15.5zM53 178q21 0 36.5 -15.5t15.5 -37.5t-15 -37t-37 -15q-21 0 -37 15t-16 37t15.5 37.5t37.5 15.5z" />
    <glyph glyph-name="K" unicode="K" 
d="M428 678q21 0 36.5 -15.5t15.5 -37.5t-15 -37t-37 -15q-21 0 -37 15t-16 37t15.5 37.5t37.5 15.5zM303 303q21 0 36.5 -15.5t15.5 -37.5t-15 -37t-37 -15q-21 0 -37 15t-16 37t15.5 37.5t37.5 15.5zM428 178q21 0 36.5 -15.5t15.5 -37.5t-15 -37t-37 -15q-21 0 -37 15
t-16 37t15.5 37.5t37.5 15.5zM53 53q21 0 36.5 -15.5t15.5 -37.5t-15.5 -37.5t-36.5 -15.5q-22 0 -37.5 15.5t-15.5 37.5t15.5 37.5t37.5 15.5zM53 803q21 0 36.5 -15.5t15.5 -37.5t-15 -37t-37 -15q-21 0 -37 15t-16 37t15.5 37.5t37.5 15.5zM553 53q21 0 36.5 -15.5
t15.5 -37.5t-15.5 -37.5t-36.5 -15.5q-22 0 -37.5 15.5t-15.5 37.5t15.5 37.5t37.5 15.5zM53 678q21 0 36.5 -15.5t15.5 -37.5t-15 -37t-37 -15q-21 0 -37 15t-16 37t15.5 37.5t37.5 15.5zM53 553q21 0 36.5 -15.5t15.5 -37.5t-15 -37t-37 -15q-21 0 -37 15t-16 37
t15.5 37.5t37.5 15.5zM53 428q21 0 36.5 -15.5t15.5 -37.5t-15 -37t-37 -15q-21 0 -37 15t-16 37t15.5 37.5t37.5 15.5zM51 303q22 0 37.5 -15.5t15.5 -37.5t-15 -37t-38 -15q-21 0 -36.5 15.5t-15.5 36.5q0 22 15.5 37.5t36.5 15.5zM53 178q21 0 36.5 -15.5t15.5 -37.5
t-15 -37t-37 -15q-21 0 -37 15t-16 37t15.5 37.5t37.5 15.5zM178 428q21 0 36.5 -15.5t15.5 -37.5t-15 -37t-37 -15q-21 0 -37 15t-16 37t15.5 37.5t37.5 15.5zM303 553q21 0 36.5 -15.5t15.5 -37.5t-15 -37t-37 -15q-21 0 -37 15t-16 37t15.5 37.5t37.5 15.5zM553 803
q21 0 36.5 -15.5t15.5 -37.5t-15 -37t-37 -15q-21 0 -37 15t-16 37t15.5 37.5t37.5 15.5z" />
    <glyph glyph-name="L" unicode="L" 
d="M53 803q21 0 36.5 -15.5t15.5 -37.5t-15 -37t-37 -15q-21 0 -37 15t-16 37t15.5 37.5t37.5 15.5zM303 53q21 0 36.5 -15.5t15.5 -37.5t-15.5 -37.5t-36.5 -15.5q-22 0 -37.5 15.5t-15.5 37.5t15.5 37.5t37.5 15.5zM53 53q21 0 36.5 -15.5t15.5 -37.5t-15.5 -37.5
t-36.5 -15.5q-22 0 -37.5 15.5t-15.5 37.5t15.5 37.5t37.5 15.5zM178 53q21 0 36.5 -15.5t15.5 -37.5t-15.5 -37.5t-36.5 -15.5q-22 0 -37.5 15.5t-15.5 37.5t15.5 37.5t37.5 15.5zM428 53q21 0 36.5 -15.5t15.5 -37.5t-15.5 -37.5t-36.5 -15.5q-22 0 -37.5 15.5t-15.5 37.5
t15.5 37.5t37.5 15.5zM53 678q21 0 36.5 -15.5t15.5 -37.5t-15 -37t-37 -15q-21 0 -37 15t-16 37t15.5 37.5t37.5 15.5zM53 553q21 0 36.5 -15.5t15.5 -37.5t-15 -37t-37 -15q-21 0 -37 15t-16 37t15.5 37.5t37.5 15.5zM53 428q21 0 36.5 -15.5t15.5 -37.5t-15 -37t-37 -15
q-21 0 -37 15t-16 37t15.5 37.5t37.5 15.5zM51 303q22 0 37.5 -15.5t15.5 -37.5t-15 -37t-38 -15q-21 0 -36.5 15.5t-15.5 36.5q0 22 15.5 37.5t36.5 15.5zM53 178q21 0 36.5 -15.5t15.5 -37.5t-15 -37t-37 -15q-21 0 -37 15t-16 37t15.5 37.5t37.5 15.5zM553 53
q21 0 36.5 -15.5t15.5 -37.5t-15.5 -37.5t-36.5 -15.5q-22 0 -37.5 15.5t-15.5 37.5t15.5 37.5t37.5 15.5z" />
    <glyph glyph-name="M" unicode="M" 
d="M553 803q21 0 36.5 -15.5t15.5 -37.5t-15 -37t-37 -15q-21 0 -37 15t-16 37t15.5 37.5t37.5 15.5zM53 803q21 0 36.5 -15.5t15.5 -37.5t-15 -37t-37 -15q-21 0 -37 15t-16 37t15.5 37.5t37.5 15.5zM303 303q21 0 36.5 -15.5t15.5 -37.5t-15 -37t-37 -15q-21 0 -37 15
t-16 37t15.5 37.5t37.5 15.5zM53 53q21 0 36.5 -15.5t15.5 -37.5t-15.5 -37.5t-36.5 -15.5q-22 0 -37.5 15.5t-15.5 37.5t15.5 37.5t37.5 15.5zM178 678q21 0 36.5 -15.5t15.5 -37.5t-15 -37t-37 -15q-21 0 -37 15t-16 37t15.5 37.5t37.5 15.5zM428 678q21 0 36.5 -15.5
t15.5 -37.5t-15 -37t-37 -15q-21 0 -37 15t-16 37t15.5 37.5t37.5 15.5zM53 678q21 0 36.5 -15.5t15.5 -37.5t-15 -37t-37 -15q-21 0 -37 15t-16 37t15.5 37.5t37.5 15.5zM53 553q21 0 36.5 -15.5t15.5 -37.5t-15 -37t-37 -15q-21 0 -37 15t-16 37t15.5 37.5t37.5 15.5z
M53 428q21 0 36.5 -15.5t15.5 -37.5t-15 -37t-37 -15q-21 0 -37 15t-16 37t15.5 37.5t37.5 15.5zM51 303q22 0 37.5 -15.5t15.5 -37.5t-15 -37t-38 -15q-21 0 -36.5 15.5t-15.5 36.5q0 22 15.5 37.5t36.5 15.5zM53 178q21 0 36.5 -15.5t15.5 -37.5t-15 -37t-37 -15
q-21 0 -37 15t-16 37t15.5 37.5t37.5 15.5zM553 53q21 0 36.5 -15.5t15.5 -37.5t-15.5 -37.5t-36.5 -15.5q-22 0 -37.5 15.5t-15.5 37.5t15.5 37.5t37.5 15.5zM553 678q21 0 36.5 -15.5t15.5 -37.5t-15 -37t-37 -15q-21 0 -37 15t-16 37t15.5 37.5t37.5 15.5zM553 553
q21 0 36.5 -15.5t15.5 -37.5t-15 -37t-37 -15q-21 0 -37 15t-16 37t15.5 37.5t37.5 15.5zM553 428q21 0 36.5 -15.5t15.5 -37.5t-15 -37t-37 -15q-21 0 -37 15t-16 37t15.5 37.5t37.5 15.5zM551 303q22 0 37.5 -15.5t15.5 -37.5t-15 -37t-38 -15q-21 0 -36.5 15.5
t-15.5 36.5q0 22 15.5 37.5t36.5 15.5zM553 178q21 0 36.5 -15.5t15.5 -37.5t-15 -37t-37 -15q-21 0 -37 15t-16 37t15.5 37.5t37.5 15.5zM365 553q22 0 37.5 -15.5t15.5 -37.5t-15 -37t-38 -15q-22 0 -37 15t-15 37q0 21 15 37t37 16zM240 553q22 0 37.5 -15.5t15.5 -37.5
t-15 -37t-38 -15q-22 0 -37 15t-15 37q0 21 15 37t37 16zM303 428q21 0 36.5 -15.5t15.5 -37.5t-15 -37t-37 -15q-21 0 -37 15t-16 37t15.5 37.5t37.5 15.5z" />
    <glyph glyph-name="N" unicode="N" 
d="M553 803q21 0 36.5 -15.5t15.5 -37.5t-15 -37t-37 -15q-21 0 -37 15t-16 37t15.5 37.5t37.5 15.5zM53 803q21 0 36.5 -15.5t15.5 -37.5t-15 -37t-37 -15q-21 0 -37 15t-16 37t15.5 37.5t37.5 15.5zM303 428q21 0 36.5 -15.5t15.5 -37.5t-15 -37t-37 -15q-21 0 -37 15
t-16 37t15.5 37.5t37.5 15.5zM53 53q21 0 36.5 -15.5t15.5 -37.5t-15.5 -37.5t-36.5 -15.5q-22 0 -37.5 15.5t-15.5 37.5t15.5 37.5t37.5 15.5zM178 678q21 0 36.5 -15.5t15.5 -37.5t-15 -37t-37 -15q-21 0 -37 15t-16 37t15.5 37.5t37.5 15.5zM428 178q21 0 36.5 -15.5
t15.5 -37.5t-15 -37t-37 -15q-21 0 -37 15t-16 37t15.5 37.5t37.5 15.5zM53 678q21 0 36.5 -15.5t15.5 -37.5t-15 -37t-37 -15q-21 0 -37 15t-16 37t15.5 37.5t37.5 15.5zM53 553q21 0 36.5 -15.5t15.5 -37.5t-15 -37t-37 -15q-21 0 -37 15t-16 37t15.5 37.5t37.5 15.5z
M53 428q21 0 36.5 -15.5t15.5 -37.5t-15 -37t-37 -15q-21 0 -37 15t-16 37t15.5 37.5t37.5 15.5zM51 303q22 0 37.5 -15.5t15.5 -37.5t-15 -37t-38 -15q-21 0 -36.5 15.5t-15.5 36.5q0 22 15.5 37.5t36.5 15.5zM53 178q21 0 36.5 -15.5t15.5 -37.5t-15 -37t-37 -15
q-21 0 -37 15t-16 37t15.5 37.5t37.5 15.5zM553 53q21 0 36.5 -15.5t15.5 -37.5t-15.5 -37.5t-36.5 -15.5q-22 0 -37.5 15.5t-15.5 37.5t15.5 37.5t37.5 15.5zM553 678q21 0 36.5 -15.5t15.5 -37.5t-15 -37t-37 -15q-21 0 -37 15t-16 37t15.5 37.5t37.5 15.5zM553 553
q21 0 36.5 -15.5t15.5 -37.5t-15 -37t-37 -15q-21 0 -37 15t-16 37t15.5 37.5t37.5 15.5zM553 428q21 0 36.5 -15.5t15.5 -37.5t-15 -37t-37 -15q-21 0 -37 15t-16 37t15.5 37.5t37.5 15.5zM551 303q22 0 37.5 -15.5t15.5 -37.5t-15 -37t-38 -15q-21 0 -36.5 15.5
t-15.5 36.5q0 22 15.5 37.5t36.5 15.5zM553 178q21 0 36.5 -15.5t15.5 -37.5t-15 -37t-37 -15q-21 0 -37 15t-16 37t15.5 37.5t37.5 15.5zM365 303q22 0 37.5 -15.5t15.5 -37.5t-15 -37t-38 -15q-22 0 -37 15t-15 37q0 21 15 37t37 16zM240 553q22 0 37.5 -15.5t15.5 -37.5
t-15 -37t-38 -15q-22 0 -37 15t-15 37q0 21 15 37t37 16z" />
    <glyph glyph-name="O" unicode="O" 
d="M553 678q21 0 36.5 -15.5t15.5 -37.5t-15 -37t-37 -15q-21 0 -37 15t-16 37t15.5 37.5t37.5 15.5zM553 553q21 0 36.5 -15.5t15.5 -37.5t-15 -37t-37 -15q-21 0 -37 15t-16 37t15.5 37.5t37.5 15.5zM303 803q21 0 36.5 -15.5t15.5 -37.5t-15 -37t-37 -15q-21 0 -37 15
t-16 37t15.5 37.5t37.5 15.5zM553 428q21 0 36.5 -15.5t15.5 -37.5t-15 -37t-37 -15q-21 0 -37 15t-16 37t15.5 37.5t37.5 15.5zM551 303q22 0 37.5 -15.5t15.5 -37.5t-15 -37t-38 -15q-21 0 -36.5 15.5t-15.5 36.5q0 22 15.5 37.5t36.5 15.5zM553 178q21 0 36.5 -15.5
t15.5 -37.5t-15 -37t-37 -15q-21 0 -37 15t-16 37t15.5 37.5t37.5 15.5zM303 53q21 0 36.5 -15.5t15.5 -37.5t-15.5 -37.5t-36.5 -15.5q-22 0 -37.5 15.5t-15.5 37.5t15.5 37.5t37.5 15.5zM178 53q21 0 36.5 -15.5t15.5 -37.5t-15.5 -37.5t-36.5 -15.5q-22 0 -37.5 15.5
t-15.5 37.5t15.5 37.5t37.5 15.5zM178 803q21 0 36.5 -15.5t15.5 -37.5t-15 -37t-37 -15q-21 0 -37 15t-16 37t15.5 37.5t37.5 15.5zM428 53q21 0 36.5 -15.5t15.5 -37.5t-15.5 -37.5t-36.5 -15.5q-22 0 -37.5 15.5t-15.5 37.5t15.5 37.5t37.5 15.5zM428 803
q21 0 36.5 -15.5t15.5 -37.5t-15 -37t-37 -15q-21 0 -37 15t-16 37t15.5 37.5t37.5 15.5zM53 678q21 0 36.5 -15.5t15.5 -37.5t-15 -37t-37 -15q-21 0 -37 15t-16 37t15.5 37.5t37.5 15.5zM53 553q21 0 36.5 -15.5t15.5 -37.5t-15 -37t-37 -15q-21 0 -37 15t-16 37
t15.5 37.5t37.5 15.5zM53 428q21 0 36.5 -15.5t15.5 -37.5t-15 -37t-37 -15q-21 0 -37 15t-16 37t15.5 37.5t37.5 15.5zM51 303q22 0 37.5 -15.5t15.5 -37.5t-15 -37t-38 -15q-21 0 -36.5 15.5t-15.5 36.5q0 22 15.5 37.5t36.5 15.5zM53 178q21 0 36.5 -15.5t15.5 -37.5
t-15 -37t-37 -15q-21 0 -37 15t-16 37t15.5 37.5t37.5 15.5z" />
    <glyph glyph-name="P" unicode="P" 
d="M553 678q21 0 36.5 -15.5t15.5 -37.5t-15 -37t-37 -15q-21 0 -37 15t-16 37t15.5 37.5t37.5 15.5zM553 553q21 0 36.5 -15.5t15.5 -37.5t-15 -37t-37 -15q-21 0 -37 15t-16 37t15.5 37.5t37.5 15.5zM303 428q21 0 36.5 -15.5t15.5 -37.5t-15 -37t-37 -15q-21 0 -37 15
t-16 37t15.5 37.5t37.5 15.5zM53 53q21 0 36.5 -15.5t15.5 -37.5t-15.5 -37.5t-36.5 -15.5q-22 0 -37.5 15.5t-15.5 37.5t15.5 37.5t37.5 15.5zM53 803q21 0 36.5 -15.5t15.5 -37.5t-15 -37t-37 -15q-21 0 -37 15t-16 37t15.5 37.5t37.5 15.5zM428 428q21 0 36.5 -15.5
t15.5 -37.5t-15 -37t-37 -15q-21 0 -37 15t-16 37t15.5 37.5t37.5 15.5zM53 678q21 0 36.5 -15.5t15.5 -37.5t-15 -37t-37 -15q-21 0 -37 15t-16 37t15.5 37.5t37.5 15.5zM53 553q21 0 36.5 -15.5t15.5 -37.5t-15 -37t-37 -15q-21 0 -37 15t-16 37t15.5 37.5t37.5 15.5z
M53 428q21 0 36.5 -15.5t15.5 -37.5t-15 -37t-37 -15q-21 0 -37 15t-16 37t15.5 37.5t37.5 15.5zM51 303q22 0 37.5 -15.5t15.5 -37.5t-15 -37t-38 -15q-21 0 -36.5 15.5t-15.5 36.5q0 22 15.5 37.5t36.5 15.5zM53 178q21 0 36.5 -15.5t15.5 -37.5t-15 -37t-37 -15
q-21 0 -37 15t-16 37t15.5 37.5t37.5 15.5zM178 428q21 0 36.5 -15.5t15.5 -37.5t-15 -37t-37 -15q-21 0 -37 15t-16 37t15.5 37.5t37.5 15.5zM178 803q21 0 36.5 -15.5t15.5 -37.5t-15 -37t-37 -15q-21 0 -37 15t-16 37t15.5 37.5t37.5 15.5zM303 803q21 0 36.5 -15.5
t15.5 -37.5t-15 -37t-37 -15q-21 0 -37 15t-16 37t15.5 37.5t37.5 15.5zM428 803q21 0 36.5 -15.5t15.5 -37.5t-15 -37t-37 -15q-21 0 -37 15t-16 37t15.5 37.5t37.5 15.5z" />
    <glyph glyph-name="Q" unicode="Q" 
d="M553 678q21 0 36.5 -15.5t15.5 -37.5t-15 -37t-37 -15q-21 0 -37 15t-16 37t15.5 37.5t37.5 15.5zM553 553q21 0 36.5 -15.5t15.5 -37.5t-15 -37t-37 -15q-21 0 -37 15t-16 37t15.5 37.5t37.5 15.5zM303 803q21 0 36.5 -15.5t15.5 -37.5t-15 -37t-37 -15q-21 0 -37 15
t-16 37t15.5 37.5t37.5 15.5zM553 428q21 0 36.5 -15.5t15.5 -37.5t-15 -37t-37 -15q-21 0 -37 15t-16 37t15.5 37.5t37.5 15.5zM551 303q22 0 37.5 -15.5t15.5 -37.5t-15 -37t-38 -15q-21 0 -36.5 15.5t-15.5 36.5q0 22 15.5 37.5t36.5 15.5zM553 178q21 0 36.5 -15.5
t15.5 -37.5t-15 -37t-37 -15q-21 0 -37 15t-16 37t15.5 37.5t37.5 15.5zM303 53q21 0 36.5 -15.5t15.5 -37.5t-15.5 -37.5t-36.5 -15.5q-22 0 -37.5 15.5t-15.5 37.5t15.5 37.5t37.5 15.5zM178 53q21 0 36.5 -15.5t15.5 -37.5t-15.5 -37.5t-36.5 -15.5q-22 0 -37.5 15.5
t-15.5 37.5t15.5 37.5t37.5 15.5zM178 803q21 0 36.5 -15.5t15.5 -37.5t-15 -37t-37 -15q-21 0 -37 15t-16 37t15.5 37.5t37.5 15.5zM490 -73q21 0 37 -15t16 -37t-15.5 -37.5t-37.5 -15.5t-37 15t-15 38q0 22 15 37t37 15zM428 803q21 0 36.5 -15.5t15.5 -37.5t-15 -37
t-37 -15q-21 0 -37 15t-16 37t15.5 37.5t37.5 15.5zM53 678q21 0 36.5 -15.5t15.5 -37.5t-15 -37t-37 -15q-21 0 -37 15t-16 37t15.5 37.5t37.5 15.5zM53 553q21 0 36.5 -15.5t15.5 -37.5t-15 -37t-37 -15q-21 0 -37 15t-16 37t15.5 37.5t37.5 15.5zM53 428q21 0 36.5 -15.5
t15.5 -37.5t-15 -37t-37 -15q-21 0 -37 15t-16 37t15.5 37.5t37.5 15.5zM51 303q22 0 37.5 -15.5t15.5 -37.5t-15 -37t-38 -15q-21 0 -36.5 15.5t-15.5 36.5q0 22 15.5 37.5t36.5 15.5zM53 178q21 0 36.5 -15.5t15.5 -37.5t-15 -37t-37 -15q-21 0 -37 15t-16 37t15.5 37.5
t37.5 15.5zM365 178q22 0 37.5 -15.5t15.5 -37.5t-15 -37t-38 -15q-22 0 -37 15t-15 37q0 21 15 37t37 16zM428 53q21 0 36.5 -15.5t15.5 -37.5t-15.5 -37.5t-36.5 -15.5q-22 0 -37.5 15.5t-15.5 37.5t15.5 37.5t37.5 15.5z" />
    <glyph glyph-name="R" unicode="R" 
d="M553 678q21 0 36.5 -15.5t15.5 -37.5t-15 -37t-37 -15q-21 0 -37 15t-16 37t15.5 37.5t37.5 15.5zM553 553q21 0 36.5 -15.5t15.5 -37.5t-15 -37t-37 -15q-21 0 -37 15t-16 37t15.5 37.5t37.5 15.5zM303 428q21 0 36.5 -15.5t15.5 -37.5t-15 -37t-37 -15q-21 0 -37 15
t-16 37t15.5 37.5t37.5 15.5zM428 303q21 0 36.5 -15.5t15.5 -37.5t-15 -37t-37 -15q-21 0 -37 15t-16 37t15.5 37.5t37.5 15.5zM490 178q22 0 37.5 -15.5t15.5 -37.5t-15 -37t-38 -15q-22 0 -37 15t-15 37q0 21 15 37t37 16zM53 53q21 0 36.5 -15.5t15.5 -37.5t-15.5 -37.5
t-36.5 -15.5q-22 0 -37.5 15.5t-15.5 37.5t15.5 37.5t37.5 15.5zM53 803q21 0 36.5 -15.5t15.5 -37.5t-15 -37t-37 -15q-21 0 -37 15t-16 37t15.5 37.5t37.5 15.5zM553 53q21 0 36.5 -15.5t15.5 -37.5t-15.5 -37.5t-36.5 -15.5q-22 0 -37.5 15.5t-15.5 37.5t15.5 37.5
t37.5 15.5zM428 428q21 0 36.5 -15.5t15.5 -37.5t-15 -37t-37 -15q-21 0 -37 15t-16 37t15.5 37.5t37.5 15.5zM53 678q21 0 36.5 -15.5t15.5 -37.5t-15 -37t-37 -15q-21 0 -37 15t-16 37t15.5 37.5t37.5 15.5zM53 553q21 0 36.5 -15.5t15.5 -37.5t-15 -37t-37 -15
q-21 0 -37 15t-16 37t15.5 37.5t37.5 15.5zM53 428q21 0 36.5 -15.5t15.5 -37.5t-15 -37t-37 -15q-21 0 -37 15t-16 37t15.5 37.5t37.5 15.5zM51 303q22 0 37.5 -15.5t15.5 -37.5t-15 -37t-38 -15q-21 0 -36.5 15.5t-15.5 36.5q0 22 15.5 37.5t36.5 15.5zM53 178
q21 0 36.5 -15.5t15.5 -37.5t-15 -37t-37 -15q-21 0 -37 15t-16 37t15.5 37.5t37.5 15.5zM178 428q21 0 36.5 -15.5t15.5 -37.5t-15 -37t-37 -15q-21 0 -37 15t-16 37t15.5 37.5t37.5 15.5zM178 803q21 0 36.5 -15.5t15.5 -37.5t-15 -37t-37 -15q-21 0 -37 15t-16 37
t15.5 37.5t37.5 15.5zM303 803q21 0 36.5 -15.5t15.5 -37.5t-15 -37t-37 -15q-21 0 -37 15t-16 37t15.5 37.5t37.5 15.5zM428 803q21 0 36.5 -15.5t15.5 -37.5t-15 -37t-37 -15q-21 0 -37 15t-16 37t15.5 37.5t37.5 15.5z" />
    <glyph glyph-name="S" unicode="S" 
d="M553 678q21 0 36.5 -15.5t15.5 -37.5t-15 -37t-37 -15q-21 0 -37 15t-16 37t15.5 37.5t37.5 15.5zM178 428q21 0 36.5 -15.5t15.5 -37.5t-15 -37t-37 -15q-21 0 -37 15t-16 37t15.5 37.5t37.5 15.5zM303 803q21 0 36.5 -15.5t15.5 -37.5t-15 -37t-37 -15q-21 0 -37 15
t-16 37t15.5 37.5t37.5 15.5zM428 428q21 0 36.5 -15.5t15.5 -37.5t-15 -37t-37 -15q-21 0 -37 15t-16 37t15.5 37.5t37.5 15.5zM551 303q22 0 37.5 -15.5t15.5 -37.5t-15 -37t-38 -15q-21 0 -36.5 15.5t-15.5 36.5q0 22 15.5 37.5t36.5 15.5zM553 178q21 0 36.5 -15.5
t15.5 -37.5t-15 -37t-37 -15q-21 0 -37 15t-16 37t15.5 37.5t37.5 15.5zM303 53q21 0 36.5 -15.5t15.5 -37.5t-15.5 -37.5t-36.5 -15.5q-22 0 -37.5 15.5t-15.5 37.5t15.5 37.5t37.5 15.5zM178 53q21 0 36.5 -15.5t15.5 -37.5t-15.5 -37.5t-36.5 -15.5q-22 0 -37.5 15.5
t-15.5 37.5t15.5 37.5t37.5 15.5zM178 803q21 0 36.5 -15.5t15.5 -37.5t-15 -37t-37 -15q-21 0 -37 15t-16 37t15.5 37.5t37.5 15.5zM428 53q21 0 36.5 -15.5t15.5 -37.5t-15.5 -37.5t-36.5 -15.5q-22 0 -37.5 15.5t-15.5 37.5t15.5 37.5t37.5 15.5zM428 803
q21 0 36.5 -15.5t15.5 -37.5t-15 -37t-37 -15q-21 0 -37 15t-16 37t15.5 37.5t37.5 15.5zM53 678q21 0 36.5 -15.5t15.5 -37.5t-15 -37t-37 -15q-21 0 -37 15t-16 37t15.5 37.5t37.5 15.5zM53 553q21 0 36.5 -15.5t15.5 -37.5t-15 -37t-37 -15q-21 0 -37 15t-16 37
t15.5 37.5t37.5 15.5zM303 428q21 0 36.5 -15.5t15.5 -37.5t-15 -37t-37 -15q-21 0 -37 15t-16 37t15.5 37.5t37.5 15.5zM53 178q21 0 36.5 -15.5t15.5 -37.5t-15 -37t-37 -15q-21 0 -37 15t-16 37t15.5 37.5t37.5 15.5z" />
    <glyph glyph-name="T" unicode="T" 
d="M553 803q21 0 36.5 -15.5t15.5 -37.5t-15 -37t-37 -15q-21 0 -37 15t-16 37t15.5 37.5t37.5 15.5zM53 803q21 0 36.5 -15.5t15.5 -37.5t-15 -37t-37 -15q-21 0 -37 15t-16 37t15.5 37.5t37.5 15.5zM303 803q21 0 36.5 -15.5t15.5 -37.5t-15 -37t-37 -15q-21 0 -37 15
t-16 37t15.5 37.5t37.5 15.5zM303 53q21 0 36.5 -15.5t15.5 -37.5t-15.5 -37.5t-36.5 -15.5q-22 0 -37.5 15.5t-15.5 37.5t15.5 37.5t37.5 15.5zM178 803q21 0 36.5 -15.5t15.5 -37.5t-15 -37t-37 -15q-21 0 -37 15t-16 37t15.5 37.5t37.5 15.5zM428 803q21 0 36.5 -15.5
t15.5 -37.5t-15 -37t-37 -15q-21 0 -37 15t-16 37t15.5 37.5t37.5 15.5zM303 678q21 0 36.5 -15.5t15.5 -37.5t-15 -37t-37 -15q-21 0 -37 15t-16 37t15.5 37.5t37.5 15.5zM303 553q21 0 36.5 -15.5t15.5 -37.5t-15 -37t-37 -15q-21 0 -37 15t-16 37t15.5 37.5t37.5 15.5z
M303 428q21 0 36.5 -15.5t15.5 -37.5t-15 -37t-37 -15q-21 0 -37 15t-16 37t15.5 37.5t37.5 15.5zM301 303q22 0 37.5 -15.5t15.5 -37.5t-15 -37t-38 -15q-21 0 -36.5 15.5t-15.5 36.5q0 22 15.5 37.5t36.5 15.5zM303 178q21 0 36.5 -15.5t15.5 -37.5t-15 -37t-37 -15
q-21 0 -37 15t-16 37t15.5 37.5t37.5 15.5z" />
    <glyph glyph-name="U" unicode="U" 
d="M553 678q21 0 36.5 -15.5t15.5 -37.5t-15 -37t-37 -15q-21 0 -37 15t-16 37t15.5 37.5t37.5 15.5zM553 553q21 0 36.5 -15.5t15.5 -37.5t-15 -37t-37 -15q-21 0 -37 15t-16 37t15.5 37.5t37.5 15.5zM553 428q21 0 36.5 -15.5t15.5 -37.5t-15 -37t-37 -15q-21 0 -37 15
t-16 37t15.5 37.5t37.5 15.5zM551 303q22 0 37.5 -15.5t15.5 -37.5t-15 -37t-38 -15q-21 0 -36.5 15.5t-15.5 36.5q0 22 15.5 37.5t36.5 15.5zM553 178q21 0 36.5 -15.5t15.5 -37.5t-15 -37t-37 -15q-21 0 -37 15t-16 37t15.5 37.5t37.5 15.5zM303 53q21 0 36.5 -15.5
t15.5 -37.5t-15.5 -37.5t-36.5 -15.5q-22 0 -37.5 15.5t-15.5 37.5t15.5 37.5t37.5 15.5zM178 53q21 0 36.5 -15.5t15.5 -37.5t-15.5 -37.5t-36.5 -15.5q-22 0 -37.5 15.5t-15.5 37.5t15.5 37.5t37.5 15.5zM53 803q21 0 36.5 -15.5t15.5 -37.5t-15 -37t-37 -15q-21 0 -37 15
t-16 37t15.5 37.5t37.5 15.5zM428 53q21 0 36.5 -15.5t15.5 -37.5t-15.5 -37.5t-36.5 -15.5q-22 0 -37.5 15.5t-15.5 37.5t15.5 37.5t37.5 15.5zM553 803q21 0 36.5 -15.5t15.5 -37.5t-15 -37t-37 -15q-21 0 -37 15t-16 37t15.5 37.5t37.5 15.5zM53 678q21 0 36.5 -15.5
t15.5 -37.5t-15 -37t-37 -15q-21 0 -37 15t-16 37t15.5 37.5t37.5 15.5zM53 553q21 0 36.5 -15.5t15.5 -37.5t-15 -37t-37 -15q-21 0 -37 15t-16 37t15.5 37.5t37.5 15.5zM53 428q21 0 36.5 -15.5t15.5 -37.5t-15 -37t-37 -15q-21 0 -37 15t-16 37t15.5 37.5t37.5 15.5z
M51 303q22 0 37.5 -15.5t15.5 -37.5t-15 -37t-38 -15q-21 0 -36.5 15.5t-15.5 36.5q0 22 15.5 37.5t36.5 15.5zM53 178q21 0 36.5 -15.5t15.5 -37.5t-15 -37t-37 -15q-21 0 -37 15t-16 37t15.5 37.5t37.5 15.5z" />
    <glyph glyph-name="V" unicode="V" 
d="M553 678q21 0 36.5 -15.5t15.5 -37.5t-15 -37t-37 -15q-21 0 -37 15t-16 37t15.5 37.5t37.5 15.5zM553 553q21 0 36.5 -15.5t15.5 -37.5t-15 -37t-37 -15q-21 0 -37 15t-16 37t15.5 37.5t37.5 15.5zM490 428q22 0 37.5 -15.5t15.5 -37.5t-15 -37t-38 -15q-22 0 -37 15
t-15 37q0 21 15 37t37 16zM428 303q21 0 36.5 -15.5t15.5 -37.5t-15 -37t-37 -15q-21 0 -37 15t-16 37t15.5 37.5t37.5 15.5zM365 178q22 0 37.5 -15.5t15.5 -37.5t-15 -37t-38 -15q-22 0 -37 15t-15 37q0 21 15 37t37 16zM303 53q21 0 36.5 -15.5t15.5 -37.5t-15.5 -37.5
t-36.5 -15.5q-22 0 -37.5 15.5t-15.5 37.5t15.5 37.5t37.5 15.5zM53 803q21 0 36.5 -15.5t15.5 -37.5t-15 -37t-37 -15q-21 0 -37 15t-16 37t15.5 37.5t37.5 15.5zM553 803q21 0 36.5 -15.5t15.5 -37.5t-15 -37t-37 -15q-21 0 -37 15t-16 37t15.5 37.5t37.5 15.5zM53 678
q21 0 36.5 -15.5t15.5 -37.5t-15 -37t-37 -15q-21 0 -37 15t-16 37t15.5 37.5t37.5 15.5zM53 553q21 0 36.5 -15.5t15.5 -37.5t-15 -37t-37 -15q-21 0 -37 15t-16 37t15.5 37.5t37.5 15.5zM115 428q22 0 37.5 -15.5t15.5 -37.5t-15 -37t-38 -15q-22 0 -37 15t-15 37
q0 21 15 37t37 16zM178 303q21 0 36.5 -15.5t15.5 -37.5t-15 -37t-37 -15q-21 0 -37 15t-16 37t15.5 37.5t37.5 15.5zM240 178q22 0 37.5 -15.5t15.5 -37.5t-15 -37t-38 -15q-22 0 -37 15t-15 37q0 21 15 37t37 16z" />
    <glyph glyph-name="W" unicode="W" 
d="M53 -53q-22 0 -37.5 15.5t-15.5 37.5t15.5 37.5t37.5 15.5q21 0 36.5 -15.5t15.5 -37.5t-15.5 -37.5t-36.5 -15.5zM553 -53q-22 0 -37.5 15.5t-15.5 37.5t15.5 37.5t37.5 15.5q21 0 36.5 -15.5t15.5 -37.5t-15.5 -37.5t-36.5 -15.5zM303 448q-21 0 -37 15t-16 37
t15.5 37.5t37.5 15.5q21 0 36.5 -15.5t15.5 -37.5t-15 -37t-37 -15zM553 698q-21 0 -37 15t-16 37t15.5 37.5t37.5 15.5q21 0 36.5 -15.5t15.5 -37.5t-15 -37t-37 -15zM428 73q-21 0 -37 15t-16 37t15.5 37.5t37.5 15.5q21 0 36.5 -15.5t15.5 -37.5t-15 -37t-37 -15zM178 73
q-21 0 -37 15t-16 37t15.5 37.5t37.5 15.5q21 0 36.5 -15.5t15.5 -37.5t-15 -37t-37 -15zM553 73q-21 0 -37 15t-16 37t15.5 37.5t37.5 15.5q21 0 36.5 -15.5t15.5 -37.5t-15 -37t-37 -15zM553 198q-21 0 -37 15t-16 37t15.5 37.5t37.5 15.5q21 0 36.5 -15.5t15.5 -37.5
t-15 -37t-37 -15zM553 323q-21 0 -37 15t-16 37t15.5 37.5t37.5 15.5q21 0 36.5 -15.5t15.5 -37.5t-15 -37t-37 -15zM554 448q-21 0 -37 15t-16 37t15.5 37.5t37.5 15.5t37 -15t15 -38q0 -22 -15 -37t-37 -15zM553 573q-21 0 -37 15t-16 37t15.5 37.5t37.5 15.5
q21 0 36.5 -15.5t15.5 -37.5t-15 -37t-37 -15zM53 698q-21 0 -37 15t-16 37t15.5 37.5t37.5 15.5q21 0 36.5 -15.5t15.5 -37.5t-15 -37t-37 -15zM53 73q-21 0 -37 15t-16 37t15.5 37.5t37.5 15.5q21 0 36.5 -15.5t15.5 -37.5t-15 -37t-37 -15zM53 198q-21 0 -37 15t-16 37
t15.5 37.5t37.5 15.5q21 0 36.5 -15.5t15.5 -37.5t-15 -37t-37 -15zM53 323q-21 0 -37 15t-16 37t15.5 37.5t37.5 15.5q21 0 36.5 -15.5t15.5 -37.5t-15 -37t-37 -15zM54 448q-21 0 -37 15t-16 37t15.5 37.5t37.5 15.5t37 -15t15 -38q0 -22 -15 -37t-37 -15zM53 573
q-21 0 -37 15t-16 37t15.5 37.5t37.5 15.5q21 0 36.5 -15.5t15.5 -37.5t-15 -37t-37 -15zM240 198q-22 0 -37 15t-15 37q0 21 15 37t37 16t37.5 -15.5t15.5 -37.5t-15 -37t-38 -15zM365 198q-22 0 -37 15t-15 37q0 21 15 37t37 16t37.5 -15.5t15.5 -37.5t-15 -37t-38 -15z
M303 323q-21 0 -37 15t-16 37t15.5 37.5t37.5 15.5q21 0 36.5 -15.5t15.5 -37.5t-15 -37t-37 -15z" />
    <glyph glyph-name="X" unicode="X" 
d="M553 803q21 0 36.5 -15.5t15.5 -37.5t-15 -37t-37 -15q-21 0 -37 15t-16 37t15.5 37.5t37.5 15.5zM428 678q21 0 36.5 -15.5t15.5 -37.5t-15 -37t-37 -15q-21 0 -37 15t-16 37t15.5 37.5t37.5 15.5zM428 178q21 0 36.5 -15.5t15.5 -37.5t-15 -37t-37 -15q-21 0 -37 15
t-16 37t15.5 37.5t37.5 15.5zM303 428q21 0 36.5 -15.5t15.5 -37.5t-15 -37t-37 -15q-21 0 -37 15t-16 37t15.5 37.5t37.5 15.5zM303 303q21 0 36.5 -15.5t15.5 -37.5t-15 -37t-37 -15q-21 0 -37 15t-16 37t15.5 37.5t37.5 15.5zM53 53q21 0 36.5 -15.5t15.5 -37.5
t-15.5 -37.5t-36.5 -15.5q-22 0 -37.5 15.5t-15.5 37.5t15.5 37.5t37.5 15.5zM178 178q21 0 36.5 -15.5t15.5 -37.5t-15 -37t-37 -15q-21 0 -37 15t-16 37t15.5 37.5t37.5 15.5zM53 803q21 0 36.5 -15.5t15.5 -37.5t-15 -37t-37 -15q-21 0 -37 15t-16 37t15.5 37.5
t37.5 15.5zM178 678q21 0 36.5 -15.5t15.5 -37.5t-15 -37t-37 -15q-21 0 -37 15t-16 37t15.5 37.5t37.5 15.5zM303 553q21 0 36.5 -15.5t15.5 -37.5t-15 -37t-37 -15q-21 0 -37 15t-16 37t15.5 37.5t37.5 15.5zM553 53q21 0 36.5 -15.5t15.5 -37.5t-15.5 -37.5t-36.5 -15.5
q-22 0 -37.5 15.5t-15.5 37.5t15.5 37.5t37.5 15.5z" />
    <glyph glyph-name="Y" unicode="Y" 
d="M553 803q21 0 36.5 -15.5t15.5 -37.5t-15 -37t-37 -15q-21 0 -37 15t-16 37t15.5 37.5t37.5 15.5zM490 678q22 0 37.5 -15.5t15.5 -37.5t-15 -37t-38 -15q-22 0 -37 15t-15 37q0 21 15 37t37 16zM428 553q21 0 36.5 -15.5t15.5 -37.5t-15 -37t-37 -15q-21 0 -37 15
t-16 37t15.5 37.5t37.5 15.5zM365 428q22 0 37.5 -15.5t15.5 -37.5t-15 -37t-38 -15q-22 0 -37 15t-15 37q0 21 15 37t37 16zM303 303q21 0 36.5 -15.5t15.5 -37.5t-15 -37t-37 -15q-21 0 -37 15t-16 37t15.5 37.5t37.5 15.5zM303 53q21 0 36.5 -15.5t15.5 -37.5
t-15.5 -37.5t-36.5 -15.5q-22 0 -37.5 15.5t-15.5 37.5t15.5 37.5t37.5 15.5zM303 178q21 0 36.5 -15.5t15.5 -37.5t-15 -37t-37 -15q-21 0 -37 15t-16 37t15.5 37.5t37.5 15.5zM53 803q21 0 36.5 -15.5t15.5 -37.5t-15 -37t-37 -15q-21 0 -37 15t-16 37t15.5 37.5
t37.5 15.5zM115 678q22 0 37.5 -15.5t15.5 -37.5t-15 -37t-38 -15q-22 0 -37 15t-15 37q0 21 15 37t37 16zM178 553q21 0 36.5 -15.5t15.5 -37.5t-15 -37t-37 -15q-21 0 -37 15t-16 37t15.5 37.5t37.5 15.5zM240 428q22 0 37.5 -15.5t15.5 -37.5t-15 -37t-38 -15
q-22 0 -37 15t-15 37q0 21 15 37t37 16z" />
    <glyph glyph-name="Z" unicode="Z" 
d="M50 803q22 0 37.5 -15.5t15.5 -37.5t-15 -37t-38 -15q-21 0 -37 15t-16 37t15.5 37.5t37.5 15.5zM550 803q22 0 37.5 -15.5t15.5 -37.5t-15 -37t-38 -15q-22 0 -37 15t-15 37q0 21 15 37t37 16zM300 428q22 0 37.5 -15.5t15.5 -37.5t-15 -37t-38 -15q-22 0 -37 15t-15 37
q0 21 15 37t37 16zM550 53q22 0 37.5 -15.5t15.5 -37.5t-15.5 -37.5t-37.5 -15.5t-37 15t-15 38q0 21 15 37t37 16zM425 678q22 0 37.5 -15.5t15.5 -37.5t-15 -37t-38 -15q-22 0 -37 15t-15 37q0 21 15 37t37 16zM175 178q22 0 37.5 -15.5t15.5 -37.5t-15 -37t-38 -15
q-22 0 -37 15t-15 37q0 21 15 37t37 16zM178 53q21 0 36.5 -15.5t15.5 -37.5t-15.5 -37.5t-36.5 -15.5q-22 0 -37.5 15.5t-15.5 37.5t15.5 37.5t37.5 15.5zM50 53q22 0 37.5 -15.5t15.5 -37.5t-15.5 -37.5t-37.5 -15.5t-37.5 15.5t-15.5 37.5t15.5 37.5t37.5 15.5zM178 803
q21 0 36.5 -15.5t15.5 -37.5t-15 -37t-37 -15q-21 0 -37 15t-16 37t15.5 37.5t37.5 15.5zM303 803q21 0 36.5 -15.5t15.5 -37.5t-15 -37t-37 -15q-21 0 -37 15t-16 37t15.5 37.5t37.5 15.5zM428 803q21 0 36.5 -15.5t15.5 -37.5t-15 -37t-37 -15q-21 0 -37 15t-16 37
t15.5 37.5t37.5 15.5zM429 53q22 0 37 -15t15 -38q0 -21 -15 -37t-37 -16t-37.5 15.5t-15.5 37.5t15.5 37.5t37.5 15.5zM303 53q21 0 36.5 -15.5t15.5 -37.5t-15.5 -37.5t-36.5 -15.5q-22 0 -37.5 15.5t-15.5 37.5t15.5 37.5t37.5 15.5zM238 303q21 0 36.5 -15.5t15.5 -37.5
t-15 -37t-37 -15q-21 0 -37 15t-16 37t15.5 37.5t37.5 15.5zM363 553q21 0 36.5 -15.5t15.5 -37.5t-15 -37t-37 -15q-21 0 -37 15t-16 37t15.5 37.5t37.5 15.5z" />
    <glyph glyph-name="bracketleft" unicode="[" 
d="M428 803q21 0 36.5 -15.5t15.5 -37.5t-15 -37t-37 -15q-21 0 -37 15t-16 37t15.5 37.5t37.5 15.5zM428 53q21 0 36.5 -15.5t15.5 -37.5t-15.5 -37.5t-36.5 -15.5q-22 0 -37.5 15.5t-15.5 37.5t15.5 37.5t37.5 15.5zM553 803q21 0 36.5 -15.5t15.5 -37.5t-15 -37t-37 -15
q-21 0 -37 15t-16 37t15.5 37.5t37.5 15.5zM428 678q21 0 36.5 -15.5t15.5 -37.5t-15 -37t-37 -15q-21 0 -37 15t-16 37t15.5 37.5t37.5 15.5zM428 553q21 0 36.5 -15.5t15.5 -37.5t-15 -37t-37 -15q-21 0 -37 15t-16 37t15.5 37.5t37.5 15.5zM428 428q21 0 36.5 -15.5
t15.5 -37.5t-15 -37t-37 -15q-21 0 -37 15t-16 37t15.5 37.5t37.5 15.5zM426 303q22 0 37.5 -15.5t15.5 -37.5t-15 -37t-38 -15q-21 0 -36.5 15.5t-15.5 36.5q0 22 15.5 37.5t36.5 15.5zM428 178q21 0 36.5 -15.5t15.5 -37.5t-15 -37t-37 -15q-21 0 -37 15t-16 37t15.5 37.5
t37.5 15.5zM553 53q21 0 36.5 -15.5t15.5 -37.5t-15.5 -37.5t-36.5 -15.5q-22 0 -37.5 15.5t-15.5 37.5t15.5 37.5t37.5 15.5z" />
    <glyph glyph-name="backslash" unicode="\" 
d="M53 803q21 0 36.5 -15.5t15.5 -37.5t-15 -37t-37 -15q-21 0 -37 15t-16 37t15.5 37.5t37.5 15.5zM240 428q22 0 37.5 -15.5t15.5 -37.5t-15 -37t-38 -15q-22 0 -37 15t-15 37q0 21 15 37t37 16zM115 678q22 0 37.5 -15.5t15.5 -37.5t-15 -37t-38 -15q-22 0 -37 15t-15 37
q0 21 15 37t37 16zM365 178q22 0 37.5 -15.5t15.5 -37.5t-15 -37t-38 -15q-22 0 -37 15t-15 37q0 21 15 37t37 16zM428 53q21 0 36.5 -15.5t15.5 -37.5t-15.5 -37.5t-36.5 -15.5q-22 0 -37.5 15.5t-15.5 37.5t15.5 37.5t37.5 15.5zM303 303q21 0 36.5 -15.5t15.5 -37.5
t-15 -37t-37 -15q-21 0 -37 15t-16 37t15.5 37.5t37.5 15.5zM178 553q21 0 36.5 -15.5t15.5 -37.5t-15 -37t-37 -15q-21 0 -37 15t-16 37t15.5 37.5t37.5 15.5z" />
    <glyph glyph-name="bracketright" unicode="]" 
d="M428 803q21 0 36.5 -15.5t15.5 -37.5t-15 -37t-37 -15q-21 0 -37 15t-16 37t15.5 37.5t37.5 15.5zM428 53q21 0 36.5 -15.5t15.5 -37.5t-15.5 -37.5t-36.5 -15.5q-22 0 -37.5 15.5t-15.5 37.5t15.5 37.5t37.5 15.5zM303 803q21 0 36.5 -15.5t15.5 -37.5t-15 -37t-37 -15
q-21 0 -37 15t-16 37t15.5 37.5t37.5 15.5zM428 678q21 0 36.5 -15.5t15.5 -37.5t-15 -37t-37 -15q-21 0 -37 15t-16 37t15.5 37.5t37.5 15.5zM428 553q21 0 36.5 -15.5t15.5 -37.5t-15 -37t-37 -15q-21 0 -37 15t-16 37t15.5 37.5t37.5 15.5zM428 428q21 0 36.5 -15.5
t15.5 -37.5t-15 -37t-37 -15q-21 0 -37 15t-16 37t15.5 37.5t37.5 15.5zM429 303q22 0 37 -15t15 -38q0 -22 -15 -37t-37 -15q-21 0 -37 15t-16 37t15.5 37.5t37.5 15.5zM428 178q21 0 36.5 -15.5t15.5 -37.5t-15 -37t-37 -15q-21 0 -37 15t-16 37t15.5 37.5t37.5 15.5z
M303 53q21 0 36.5 -15.5t15.5 -37.5t-15.5 -37.5t-36.5 -15.5q-22 0 -37.5 15.5t-15.5 37.5t15.5 37.5t37.5 15.5z" />
    <glyph glyph-name="asciicircum" unicode="^" 
d="M428 678q21 0 36.5 -15.5t15.5 -37.5t-15 -37t-37 -15q-21 0 -37 15t-16 37t15.5 37.5t37.5 15.5zM178 678q21 0 36.5 -15.5t15.5 -37.5t-15 -37t-37 -15q-21 0 -37 15t-16 37t15.5 37.5t37.5 15.5zM303 803q21 0 36.5 -15.5t15.5 -37.5t-15 -37t-37 -15q-21 0 -37 15
t-16 37t15.5 37.5t37.5 15.5z" />
    <glyph glyph-name="underscore" unicode="_" 
d="M303 -198q21 0 36.5 -15.5t15.5 -36.5q0 -22 -15.5 -37.5t-36.5 -15.5q-22 0 -37.5 15.5t-15.5 37.5t15 37t38 15zM178 -198q21 0 36.5 -15.5t15.5 -36.5q0 -22 -15.5 -37.5t-36.5 -15.5q-22 0 -37.5 15.5t-15.5 37.5t15 37t38 15zM428 -198q21 0 36.5 -15.5t15.5 -36.5
q0 -22 -15.5 -37.5t-36.5 -15.5q-22 0 -37.5 15.5t-15.5 37.5t15 37t38 15zM51 -198q21 0 37 -15t16 -37t-15.5 -37.5t-37.5 -15.5q-21 0 -36.5 15.5t-15.5 37.5t15 37t37 15zM551 -198q21 0 37 -15t16 -37t-15.5 -37.5t-37.5 -15.5q-21 0 -36.5 15.5t-15.5 37.5t15 37
t37 15z" />
    <glyph glyph-name="grave" unicode="`" 
d="M303 678q21 0 36.5 -15.5t15.5 -37.5t-15 -37t-37 -15q-21 0 -37 15t-16 37t15.5 37.5t37.5 15.5zM240 803q22 0 37.5 -15.5t15.5 -37.5t-15 -37t-38 -15q-22 0 -37 15t-15 37q0 21 15 37t37 16z" />
    <glyph glyph-name="a" unicode="a" 
d="M303 553q21 0 36.5 -15.5t15.5 -37.5t-15 -37t-37 -15q-21 0 -37 15t-16 37t15.5 37.5t37.5 15.5zM303 178q21 0 36.5 -15.5t15.5 -37.5t-15 -37t-37 -15q-21 0 -37 15t-16 37t15.5 37.5t37.5 15.5zM178 53q21 0 36.5 -15.5t15.5 -37.5t-15.5 -37.5t-36.5 -15.5
q-22 0 -37.5 15.5t-15.5 37.5t15.5 37.5t37.5 15.5zM178 553q21 0 36.5 -15.5t15.5 -37.5t-15 -37t-37 -15q-21 0 -37 15t-16 37t15.5 37.5t37.5 15.5zM428 53q21 0 36.5 -15.5t15.5 -37.5t-15.5 -37.5t-36.5 -15.5q-22 0 -37.5 15.5t-15.5 37.5t15.5 37.5t37.5 15.5z
M426 303q22 0 37.5 -15.5t15.5 -37.5t-15 -37t-38 -15q-21 0 -36.5 15.5t-15.5 36.5q0 22 15.5 37.5t36.5 15.5zM428 178q21 0 36.5 -15.5t15.5 -37.5t-15 -37t-37 -15q-21 0 -37 15t-16 37t15.5 37.5t37.5 15.5zM53 428q21 0 36.5 -15.5t15.5 -37.5t-15 -37t-37 -15
q-21 0 -37 15t-16 37t15.5 37.5t37.5 15.5zM51 303q22 0 37.5 -15.5t15.5 -37.5t-15 -37t-38 -15q-21 0 -36.5 15.5t-15.5 36.5q0 22 15.5 37.5t36.5 15.5zM53 178q21 0 36.5 -15.5t15.5 -37.5t-15 -37t-37 -15q-21 0 -37 15t-16 37t15.5 37.5t37.5 15.5zM428 553
q21 0 36.5 -15.5t15.5 -37.5t-15 -37t-37 -15q-21 0 -37 15t-16 37t15.5 37.5t37.5 15.5zM428 428q21 0 36.5 -15.5t15.5 -37.5t-15 -37t-37 -15q-21 0 -37 15t-16 37t15.5 37.5t37.5 15.5z" />
    <glyph glyph-name="b" unicode="b" 
d="M178 553q21 0 36.5 -15.5t15.5 -37.5t-15 -37t-37 -15q-21 0 -37 15t-16 37t15.5 37.5t37.5 15.5zM178 53q21 0 36.5 -15.5t15.5 -37.5t-15.5 -37.5t-36.5 -15.5q-22 0 -37.5 15.5t-15.5 37.5t15.5 37.5t37.5 15.5zM303 53q21 0 36.5 -15.5t15.5 -37.5t-15.5 -37.5
t-36.5 -15.5q-22 0 -37.5 15.5t-15.5 37.5t15.5 37.5t37.5 15.5zM303 553q21 0 36.5 -15.5t15.5 -37.5t-15 -37t-37 -15q-21 0 -37 15t-16 37t15.5 37.5t37.5 15.5zM53 53q21 0 36.5 -15.5t15.5 -37.5t-15.5 -37.5t-36.5 -15.5q-22 0 -37.5 15.5t-15.5 37.5t15.5 37.5
t37.5 15.5zM53 803q21 0 36.5 -15.5t15.5 -37.5t-15 -37t-37 -15q-21 0 -37 15t-16 37t15.5 37.5t37.5 15.5zM53 678q21 0 36.5 -15.5t15.5 -37.5t-15 -37t-37 -15q-21 0 -37 15t-16 37t15.5 37.5t37.5 15.5zM54 303q22 0 37 -15t15 -38q0 -22 -15 -37t-37 -15q-21 0 -37 15
t-16 37t15.5 37.5t37.5 15.5zM53 178q21 0 36.5 -15.5t15.5 -37.5t-15 -37t-37 -15q-21 0 -37 15t-16 37t15.5 37.5t37.5 15.5zM428 428q21 0 36.5 -15.5t15.5 -37.5t-15 -37t-37 -15q-21 0 -37 15t-16 37t15.5 37.5t37.5 15.5zM429 303q22 0 37 -15t15 -38q0 -22 -15 -37
t-37 -15q-21 0 -37 15t-16 37t15.5 37.5t37.5 15.5zM428 178q21 0 36.5 -15.5t15.5 -37.5t-15 -37t-37 -15q-21 0 -37 15t-16 37t15.5 37.5t37.5 15.5zM53 553q21 0 36.5 -15.5t15.5 -37.5t-15 -37t-37 -15q-21 0 -37 15t-16 37t15.5 37.5t37.5 15.5zM53 428
q21 0 36.5 -15.5t15.5 -37.5t-15 -37t-37 -15q-21 0 -37 15t-16 37t15.5 37.5t37.5 15.5z" />
    <glyph glyph-name="c" unicode="c" 
d="M303 553q21 0 36.5 -15.5t15.5 -37.5t-15 -37t-37 -15q-21 0 -37 15t-16 37t15.5 37.5t37.5 15.5zM303 53q21 0 36.5 -15.5t15.5 -37.5t-15.5 -37.5t-36.5 -15.5q-22 0 -37.5 15.5t-15.5 37.5t15.5 37.5t37.5 15.5zM178 53q21 0 36.5 -15.5t15.5 -37.5t-15.5 -37.5
t-36.5 -15.5q-22 0 -37.5 15.5t-15.5 37.5t15.5 37.5t37.5 15.5zM178 553q21 0 36.5 -15.5t15.5 -37.5t-15 -37t-37 -15q-21 0 -37 15t-16 37t15.5 37.5t37.5 15.5zM428 53q21 0 36.5 -15.5t15.5 -37.5t-15.5 -37.5t-36.5 -15.5q-22 0 -37.5 15.5t-15.5 37.5t15.5 37.5
t37.5 15.5zM428 553q21 0 36.5 -15.5t15.5 -37.5t-15 -37t-37 -15q-21 0 -37 15t-16 37t15.5 37.5t37.5 15.5zM53 428q21 0 36.5 -15.5t15.5 -37.5t-15 -37t-37 -15q-21 0 -37 15t-16 37t15.5 37.5t37.5 15.5zM51 303q22 0 37.5 -15.5t15.5 -37.5t-15 -37t-38 -15
q-21 0 -36.5 15.5t-15.5 36.5q0 22 15.5 37.5t36.5 15.5zM53 178q21 0 36.5 -15.5t15.5 -37.5t-15 -37t-37 -15q-21 0 -37 15t-16 37t15.5 37.5t37.5 15.5z" />
    <glyph glyph-name="d" unicode="d" 
d="M303 553q21 0 36.5 -15.5t15.5 -37.5t-15 -37t-37 -15q-21 0 -37 15t-16 37t15.5 37.5t37.5 15.5zM303 53q21 0 36.5 -15.5t15.5 -37.5t-15.5 -37.5t-36.5 -15.5q-22 0 -37.5 15.5t-15.5 37.5t15.5 37.5t37.5 15.5zM178 53q21 0 36.5 -15.5t15.5 -37.5t-15.5 -37.5
t-36.5 -15.5q-22 0 -37.5 15.5t-15.5 37.5t15.5 37.5t37.5 15.5zM178 553q21 0 36.5 -15.5t15.5 -37.5t-15 -37t-37 -15q-21 0 -37 15t-16 37t15.5 37.5t37.5 15.5zM428 53q21 0 36.5 -15.5t15.5 -37.5t-15.5 -37.5t-36.5 -15.5q-22 0 -37.5 15.5t-15.5 37.5t15.5 37.5
t37.5 15.5zM428 803q21 0 36.5 -15.5t15.5 -37.5t-15 -37t-37 -15q-21 0 -37 15t-16 37t15.5 37.5t37.5 15.5zM428 678q21 0 36.5 -15.5t15.5 -37.5t-15 -37t-37 -15q-21 0 -37 15t-16 37t15.5 37.5t37.5 15.5zM426 303q22 0 37.5 -15.5t15.5 -37.5t-15 -37t-38 -15
q-21 0 -36.5 15.5t-15.5 36.5q0 22 15.5 37.5t36.5 15.5zM428 178q21 0 36.5 -15.5t15.5 -37.5t-15 -37t-37 -15q-21 0 -37 15t-16 37t15.5 37.5t37.5 15.5zM53 428q21 0 36.5 -15.5t15.5 -37.5t-15 -37t-37 -15q-21 0 -37 15t-16 37t15.5 37.5t37.5 15.5zM51 303
q22 0 37.5 -15.5t15.5 -37.5t-15 -37t-38 -15q-21 0 -36.5 15.5t-15.5 36.5q0 22 15.5 37.5t36.5 15.5zM53 178q21 0 36.5 -15.5t15.5 -37.5t-15 -37t-37 -15q-21 0 -37 15t-16 37t15.5 37.5t37.5 15.5zM428 553q21 0 36.5 -15.5t15.5 -37.5t-15 -37t-37 -15q-21 0 -37 15
t-16 37t15.5 37.5t37.5 15.5zM428 428q21 0 36.5 -15.5t15.5 -37.5t-15 -37t-37 -15q-21 0 -37 15t-16 37t15.5 37.5t37.5 15.5z" />
    <glyph glyph-name="e" unicode="e" 
d="M303 303q21 0 36.5 -15.5t15.5 -37.5t-15 -37t-37 -15q-21 0 -37 15t-16 37t15.5 37.5t37.5 15.5zM303 53q21 0 36.5 -15.5t15.5 -37.5t-15.5 -37.5t-36.5 -15.5q-22 0 -37.5 15.5t-15.5 37.5t15.5 37.5t37.5 15.5zM178 53q21 0 36.5 -15.5t15.5 -37.5t-15.5 -37.5
t-36.5 -15.5q-22 0 -37.5 15.5t-15.5 37.5t15.5 37.5t37.5 15.5zM178 303q21 0 36.5 -15.5t15.5 -37.5t-15 -37t-37 -15q-21 0 -37 15t-16 37t15.5 37.5t37.5 15.5zM428 53q21 0 36.5 -15.5t15.5 -37.5t-15.5 -37.5t-36.5 -15.5q-22 0 -37.5 15.5t-15.5 37.5t15.5 37.5
t37.5 15.5zM428 303q21 0 36.5 -15.5t15.5 -37.5t-15 -37t-37 -15q-21 0 -37 15t-16 37t15.5 37.5t37.5 15.5zM554 428q22 0 37 -15t15 -38q0 -22 -15 -37t-37 -15q-21 0 -37 15t-16 37t15.5 37.5t37.5 15.5zM553 303q21 0 36.5 -15.5t15.5 -37.5t-15 -37t-37 -15
q-21 0 -37 15t-16 37t15.5 37.5t37.5 15.5zM53 428q21 0 36.5 -15.5t15.5 -37.5t-15 -37t-37 -15q-21 0 -37 15t-16 37t15.5 37.5t37.5 15.5zM51 303q22 0 37.5 -15.5t15.5 -37.5t-15 -37t-38 -15q-21 0 -36.5 15.5t-15.5 36.5q0 22 15.5 37.5t36.5 15.5zM53 178
q21 0 36.5 -15.5t15.5 -37.5t-15 -37t-37 -15q-21 0 -37 15t-16 37t15.5 37.5t37.5 15.5zM303 553q21 0 36.5 -15.5t15.5 -37.5t-15 -37t-37 -15q-21 0 -37 15t-16 37t15.5 37.5t37.5 15.5zM178 553q21 0 36.5 -15.5t15.5 -37.5t-15 -37t-37 -15q-21 0 -37 15t-16 37
t15.5 37.5t37.5 15.5zM428 553q21 0 36.5 -15.5t15.5 -37.5t-15 -37t-37 -15q-21 0 -37 15t-16 37t15.5 37.5t37.5 15.5z" />
    <glyph glyph-name="f" unicode="f" 
d="M178 53q21 0 36.5 -15.5t15.5 -37.5t-15.5 -37.5t-36.5 -15.5q-22 0 -37.5 15.5t-15.5 37.5t15.5 37.5t37.5 15.5zM53 53q21 0 36.5 -15.5t15.5 -37.5t-15.5 -37.5t-36.5 -15.5q-22 0 -37.5 15.5t-15.5 37.5t15.5 37.5t37.5 15.5zM303 53q21 0 36.5 -15.5t15.5 -37.5
t-15.5 -37.5t-36.5 -15.5q-22 0 -37.5 15.5t-15.5 37.5t15.5 37.5t37.5 15.5zM303 553q21 0 36.5 -15.5t15.5 -37.5t-15 -37t-37 -15q-21 0 -37 15t-16 37t15.5 37.5t37.5 15.5zM178 678q21 0 36.5 -15.5t15.5 -37.5t-15 -37t-37 -15q-21 0 -37 15t-16 37t15.5 37.5
t37.5 15.5zM176 303q22 0 37.5 -15.5t15.5 -37.5t-15 -37t-38 -15q-21 0 -36.5 15.5t-15.5 36.5q0 22 15.5 37.5t36.5 15.5zM178 178q21 0 36.5 -15.5t15.5 -37.5t-15 -37t-37 -15q-21 0 -37 15t-16 37t15.5 37.5t37.5 15.5zM178 553q21 0 36.5 -15.5t15.5 -37.5t-15 -37
t-37 -15q-21 0 -37 15t-16 37t15.5 37.5t37.5 15.5zM178 428q21 0 36.5 -15.5t15.5 -37.5t-15 -37t-37 -15q-21 0 -37 15t-16 37t15.5 37.5t37.5 15.5zM365 803q22 0 37.5 -15.5t15.5 -37.5t-15 -37t-38 -15q-22 0 -37 15t-15 37q0 21 15 37t37 16zM53 553q21 0 36.5 -15.5
t15.5 -37.5t-15 -37t-37 -15q-21 0 -37 15t-16 37t15.5 37.5t37.5 15.5zM240 803q22 0 37.5 -15.5t15.5 -37.5t-15 -37t-38 -15q-22 0 -37 15t-15 37q0 21 15 37t37 16z" />
    <glyph glyph-name="g" unicode="g" 
d="M303 553q21 0 36.5 -15.5t15.5 -37.5t-15 -37t-37 -15q-21 0 -37 15t-16 37t15.5 37.5t37.5 15.5zM303 -198q21 0 36.5 -15.5t15.5 -36.5q0 -22 -15.5 -37.5t-36.5 -15.5q-22 0 -37.5 15.5t-15.5 37.5t15 37t38 15zM178 -198q21 0 36.5 -15.5t15.5 -36.5
q0 -22 -15.5 -37.5t-36.5 -15.5q-22 0 -37.5 15.5t-15.5 37.5t15 37t38 15zM178 553q21 0 36.5 -15.5t15.5 -37.5t-15 -37t-37 -15q-21 0 -37 15t-16 37t15.5 37.5t37.5 15.5zM428 -198q21 0 36.5 -15.5t15.5 -36.5q0 -22 -15.5 -37.5t-36.5 -15.5q-22 0 -37.5 15.5
t-15.5 37.5t15 37t38 15zM428 428q21 0 36.5 -15.5t15.5 -37.5t-15 -37t-37 -15q-21 0 -37 15t-16 37t15.5 37.5t37.5 15.5zM554 428q22 0 37 -15t15 -38q0 -22 -15 -37t-37 -15q-21 0 -37 15t-16 37t15.5 37.5t37.5 15.5zM553 303q21 0 36.5 -15.5t15.5 -37.5t-15 -37
t-37 -15q-21 0 -37 15t-16 37t15.5 37.5t37.5 15.5zM554 -73q22 0 37 -15t15 -37q0 -21 -15 -37t-37 -16t-37.5 15.5t-15.5 37.5t15 37t38 15zM53 428q21 0 36.5 -15.5t15.5 -37.5t-15 -37t-37 -15q-21 0 -37 15t-16 37t15.5 37.5t37.5 15.5zM51 303q22 0 37.5 -15.5
t15.5 -37.5t-15 -37t-38 -15q-21 0 -36.5 15.5t-15.5 36.5q0 22 15.5 37.5t36.5 15.5zM303 53q21 0 36.5 -15.5t15.5 -37.5t-15.5 -37.5t-36.5 -15.5q-22 0 -37.5 15.5t-15.5 37.5t15.5 37.5t37.5 15.5zM178 53q21 0 36.5 -15.5t15.5 -37.5t-15.5 -37.5t-36.5 -15.5
q-22 0 -37.5 15.5t-15.5 37.5t15.5 37.5t37.5 15.5zM428 53q21 0 36.5 -15.5t15.5 -37.5t-15.5 -37.5t-36.5 -15.5q-22 0 -37.5 15.5t-15.5 37.5t15.5 37.5t37.5 15.5zM554 53q22 0 37 -15t15 -38q0 -21 -15 -37t-37 -16t-37.5 15.5t-15.5 37.5t15.5 37.5t37.5 15.5zM53 178
q21 0 36.5 -15.5t15.5 -37.5t-15 -37t-37 -15q-21 0 -37 15t-16 37t15.5 37.5t37.5 15.5zM554 553q22 0 37 -15t15 -38q0 -22 -15 -37t-37 -15q-21 0 -37 15t-16 37t15.5 37.5t37.5 15.5zM554 178q22 0 37 -15t15 -38q0 -22 -15 -37t-37 -15q-21 0 -37 15t-16 37t15.5 37.5
t37.5 15.5z" />
    <glyph glyph-name="h" unicode="h" 
d="M303 448q-21 0 -37 15t-16 37t15.5 37.5t37.5 15.5q21 0 36.5 -15.5t15.5 -37.5t-15 -37t-37 -15zM428 448q-21 0 -37 15t-16 37t15.5 37.5t37.5 15.5q21 0 36.5 -15.5t15.5 -37.5t-15 -37t-37 -15zM553 -53q-22 0 -37.5 15.5t-15.5 37.5t15.5 37.5t37.5 15.5
q21 0 36.5 -15.5t15.5 -37.5t-15.5 -37.5t-36.5 -15.5zM178 323q-21 0 -37 15t-16 37t15.5 37.5t37.5 15.5q21 0 36.5 -15.5t15.5 -37.5t-15 -37t-37 -15zM53 -53q-22 0 -37.5 15.5t-15.5 37.5t15.5 37.5t37.5 15.5q21 0 36.5 -15.5t15.5 -37.5t-15.5 -37.5t-36.5 -15.5z
M51 73q-21 0 -36.5 15.5t-15.5 36.5q0 22 15.5 37.5t36.5 15.5q22 0 37.5 -15.5t15.5 -37.5t-15 -37t-38 -15zM53 198q-21 0 -37 15t-16 37t15.5 37.5t37.5 15.5q21 0 36.5 -15.5t15.5 -37.5t-15 -37t-37 -15zM51 698q-21 0 -36.5 15.5t-15.5 36.5q0 22 15.5 37.5t36.5 15.5
q22 0 37.5 -15.5t15.5 -37.5t-15 -37t-38 -15zM553 73q-21 0 -37 15t-16 37t15.5 37.5t37.5 15.5q21 0 36.5 -15.5t15.5 -37.5t-15 -37t-37 -15zM554 198q-21 0 -37 15t-16 37t15.5 37.5t37.5 15.5t37 -15t15 -38q0 -22 -15 -37t-37 -15zM553 323q-21 0 -37 15t-16 37
t15.5 37.5t37.5 15.5q21 0 36.5 -15.5t15.5 -37.5t-15 -37t-37 -15zM51 573q-21 0 -36.5 15.5t-15.5 36.5q0 22 15.5 37.5t36.5 15.5q22 0 37.5 -15.5t15.5 -37.5t-15 -37t-38 -15zM51 448q-21 0 -36.5 15.5t-15.5 36.5q0 22 15.5 37.5t36.5 15.5q22 0 37.5 -15.5
t15.5 -37.5t-15 -37t-38 -15zM51 323q-21 0 -36.5 15.5t-15.5 36.5q0 22 15.5 37.5t36.5 15.5q22 0 37.5 -15.5t15.5 -37.5t-15 -37t-38 -15z" />
    <glyph glyph-name="i" unicode="i" 
d="M303 53q21 0 36.5 -15.5t15.5 -37.5t-15.5 -37.5t-36.5 -15.5q-22 0 -37.5 15.5t-15.5 37.5t15.5 37.5t37.5 15.5zM178 53q21 0 36.5 -15.5t15.5 -37.5t-15.5 -37.5t-36.5 -15.5q-22 0 -37.5 15.5t-15.5 37.5t15.5 37.5t37.5 15.5zM428 53q21 0 36.5 -15.5t15.5 -37.5
t-15.5 -37.5t-36.5 -15.5q-22 0 -37.5 15.5t-15.5 37.5t15.5 37.5t37.5 15.5zM178 553q21 0 36.5 -15.5t15.5 -37.5t-15 -37t-37 -15q-21 0 -37 15t-16 37t15.5 37.5t37.5 15.5zM301 303q22 0 37.5 -15.5t15.5 -37.5t-15 -37t-38 -15q-21 0 -36.5 15.5t-15.5 36.5
q0 22 15.5 37.5t36.5 15.5zM303 178q21 0 36.5 -15.5t15.5 -37.5t-15 -37t-37 -15q-21 0 -37 15t-16 37t15.5 37.5t37.5 15.5zM303 553q21 0 36.5 -15.5t15.5 -37.5t-15 -37t-37 -15q-21 0 -37 15t-16 37t15.5 37.5t37.5 15.5zM303 428q21 0 36.5 -15.5t15.5 -37.5t-15 -37
t-37 -15q-21 0 -37 15t-16 37t15.5 37.5t37.5 15.5zM303 803q21 0 36.5 -15.5t15.5 -37.5t-15 -37t-37 -15q-21 0 -37 15t-16 37t15.5 37.5t37.5 15.5z" />
    <glyph glyph-name="j" unicode="j" 
d="M303 53q21 0 36.5 -15.5t15.5 -37.5t-15.5 -37.5t-36.5 -15.5q-22 0 -37.5 15.5t-15.5 37.5t15.5 37.5t37.5 15.5zM240 -198q21 0 37 -15t16 -37t-15.5 -37.5t-37.5 -15.5t-37 15t-15 38q0 22 15 37t37 15zM303 -73q21 0 36.5 -15.5t15.5 -36.5q0 -22 -15.5 -37.5
t-36.5 -15.5q-22 0 -37.5 15.5t-15.5 37.5t15 37t38 15zM178 553q21 0 36.5 -15.5t15.5 -37.5t-15 -37t-37 -15q-21 0 -37 15t-16 37t15.5 37.5t37.5 15.5zM301 303q22 0 37.5 -15.5t15.5 -37.5t-15 -37t-38 -15q-21 0 -36.5 15.5t-15.5 36.5q0 22 15.5 37.5t36.5 15.5z
M303 178q21 0 36.5 -15.5t15.5 -37.5t-15 -37t-37 -15q-21 0 -37 15t-16 37t15.5 37.5t37.5 15.5zM303 553q21 0 36.5 -15.5t15.5 -37.5t-15 -37t-37 -15q-21 0 -37 15t-16 37t15.5 37.5t37.5 15.5zM303 428q21 0 36.5 -15.5t15.5 -37.5t-15 -37t-37 -15q-21 0 -37 15
t-16 37t15.5 37.5t37.5 15.5zM303 803q21 0 36.5 -15.5t15.5 -37.5t-15 -37t-37 -15q-21 0 -37 15t-16 37t15.5 37.5t37.5 15.5zM115 -198q21 0 37 -15t16 -37t-15.5 -37.5t-37.5 -15.5t-37 15t-15 38q0 22 15 37t37 15z" />
    <glyph glyph-name="k" unicode="k" 
d="M53 53q21 0 36.5 -15.5t15.5 -37.5t-15.5 -37.5t-36.5 -15.5q-22 0 -37.5 15.5t-15.5 37.5t15.5 37.5t37.5 15.5zM303 428q21 0 36.5 -15.5t15.5 -37.5t-15 -37t-37 -15q-21 0 -37 15t-16 37t15.5 37.5t37.5 15.5zM178 303q21 0 36.5 -15.5t15.5 -37.5t-15 -37t-37 -15
q-21 0 -37 15t-16 37t15.5 37.5t37.5 15.5zM53 678q21 0 36.5 -15.5t15.5 -37.5t-15 -37t-37 -15q-21 0 -37 15t-16 37t15.5 37.5t37.5 15.5zM51 303q22 0 37.5 -15.5t15.5 -37.5t-15 -37t-38 -15q-21 0 -36.5 15.5t-15.5 36.5q0 22 15.5 37.5t36.5 15.5zM53 178
q21 0 36.5 -15.5t15.5 -37.5t-15 -37t-37 -15q-21 0 -37 15t-16 37t15.5 37.5t37.5 15.5zM53 553q21 0 36.5 -15.5t15.5 -37.5t-15 -37t-37 -15q-21 0 -37 15t-16 37t15.5 37.5t37.5 15.5zM53 428q21 0 36.5 -15.5t15.5 -37.5t-15 -37t-37 -15q-21 0 -37 15t-16 37
t15.5 37.5t37.5 15.5zM53 803q21 0 36.5 -15.5t15.5 -37.5t-15 -37t-37 -15q-21 0 -37 15t-16 37t15.5 37.5t37.5 15.5zM428 553q21 0 36.5 -15.5t15.5 -37.5t-15 -37t-37 -15q-21 0 -37 15t-16 37t15.5 37.5t37.5 15.5zM303 178q21 0 36.5 -15.5t15.5 -37.5t-15 -37
t-37 -15q-21 0 -37 15t-16 37t15.5 37.5t37.5 15.5zM428 53q21 0 36.5 -15.5t15.5 -37.5t-15.5 -37.5t-36.5 -15.5q-22 0 -37.5 15.5t-15.5 37.5t15.5 37.5t37.5 15.5z" />
    <glyph glyph-name="l" unicode="l" 
d="M303 53q21 0 36.5 -15.5t15.5 -37.5t-15.5 -37.5t-36.5 -15.5q-22 0 -37.5 15.5t-15.5 37.5t15.5 37.5t37.5 15.5zM178 53q21 0 36.5 -15.5t15.5 -37.5t-15.5 -37.5t-36.5 -15.5q-22 0 -37.5 15.5t-15.5 37.5t15.5 37.5t37.5 15.5zM428 53q21 0 36.5 -15.5t15.5 -37.5
t-15.5 -37.5t-36.5 -15.5q-22 0 -37.5 15.5t-15.5 37.5t15.5 37.5t37.5 15.5zM178 803q21 0 36.5 -15.5t15.5 -37.5t-15 -37t-37 -15q-21 0 -37 15t-16 37t15.5 37.5t37.5 15.5zM303 678q21 0 36.5 -15.5t15.5 -37.5t-15 -37t-37 -15q-21 0 -37 15t-16 37t15.5 37.5
t37.5 15.5zM301 303q22 0 37.5 -15.5t15.5 -37.5t-15 -37t-38 -15q-21 0 -36.5 15.5t-15.5 36.5q0 22 15.5 37.5t36.5 15.5zM303 178q21 0 36.5 -15.5t15.5 -37.5t-15 -37t-37 -15q-21 0 -37 15t-16 37t15.5 37.5t37.5 15.5zM303 553q21 0 36.5 -15.5t15.5 -37.5t-15 -37
t-37 -15q-21 0 -37 15t-16 37t15.5 37.5t37.5 15.5zM303 428q21 0 36.5 -15.5t15.5 -37.5t-15 -37t-37 -15q-21 0 -37 15t-16 37t15.5 37.5t37.5 15.5zM303 803q21 0 36.5 -15.5t15.5 -37.5t-15 -37t-37 -15q-21 0 -37 15t-16 37t15.5 37.5t37.5 15.5z" />
    <glyph glyph-name="m" unicode="m" 
d="M303 448q-21 0 -37 15t-16 37t15.5 37.5t37.5 15.5q21 0 36.5 -15.5t15.5 -37.5t-15 -37t-37 -15zM428 448q-21 0 -37 15t-16 37t15.5 37.5t37.5 15.5q21 0 36.5 -15.5t15.5 -37.5t-15 -37t-37 -15zM553 -53q-22 0 -37.5 15.5t-15.5 37.5t15.5 37.5t37.5 15.5
q21 0 36.5 -15.5t15.5 -37.5t-15.5 -37.5t-36.5 -15.5zM178 448q-21 0 -37 15t-16 37t15.5 37.5t37.5 15.5q21 0 34.5 -15t17.5 -38q4 -21 -12.5 -36.5t-39.5 -15.5zM303 -53q-22 0 -37.5 15.5t-15.5 37.5t15.5 37.5t37.5 15.5q21 0 36.5 -15.5t15.5 -37.5t-15.5 -37.5
t-36.5 -15.5zM301 73q-21 0 -36.5 15.5t-15.5 36.5q0 22 15.5 37.5t36.5 15.5q22 0 37.5 -15.5t15.5 -37.5t-15 -37t-38 -15zM303 198q-21 0 -37 15t-16 37t15.5 37.5t37.5 15.5q21 0 36.5 -15.5t15.5 -37.5t-15 -37t-37 -15zM51 448q-21 0 -36.5 15.5t-15.5 36.5
q0 22 15.5 37.5t36.5 15.5q22 0 37.5 -15.5t15.5 -37.5t-15 -37t-38 -15zM553 73q-21 0 -37 15t-16 37t15.5 37.5t37.5 15.5q21 0 36.5 -15.5t15.5 -37.5t-15 -37t-37 -15zM554 198q-21 0 -37 15t-16 37t15.5 37.5t37.5 15.5t37 -15t15 -38q0 -22 -15 -37t-37 -15zM553 323
q-21 0 -37 15t-16 37t15.5 37.5t37.5 15.5q21 0 36.5 -15.5t15.5 -37.5t-15 -37t-37 -15zM301 323q-21 0 -36.5 15.5t-15.5 36.5q0 22 15.5 37.5t36.5 15.5q22 0 37.5 -15.5t15.5 -37.5t-15 -37t-38 -15zM53 -53q-22 0 -37.5 15.5t-15.5 37.5t15.5 37.5t37.5 15.5
q21 0 36.5 -15.5t15.5 -37.5t-15.5 -37.5t-36.5 -15.5zM51 73q-21 0 -36.5 15.5t-15.5 36.5q0 22 15.5 37.5t36.5 15.5q22 0 37.5 -15.5t15.5 -37.5t-15 -37t-38 -15zM53 198q-21 0 -37 15t-16 37t15.5 37.5t37.5 15.5q21 0 36.5 -15.5t15.5 -37.5t-15 -37t-37 -15zM51 323
q-21 0 -36.5 15.5t-15.5 36.5q0 22 15.5 37.5t36.5 15.5q22 0 37.5 -15.5t15.5 -37.5t-15 -37t-38 -15z" />
    <glyph glyph-name="n" unicode="n" 
d="M303 448q-21 0 -37 15t-16 37t15.5 37.5t37.5 15.5q21 0 36.5 -15.5t15.5 -37.5t-15 -37t-37 -15zM428 448q-21 0 -37 15t-16 37t15.5 37.5t37.5 15.5q21 0 36.5 -15.5t15.5 -37.5t-15 -37t-37 -15zM553 -53q-22 0 -37.5 15.5t-15.5 37.5t15.5 37.5t37.5 15.5
q21 0 36.5 -15.5t15.5 -37.5t-15.5 -37.5t-36.5 -15.5zM178 323q-21 0 -37 15t-16 37t15.5 37.5t37.5 15.5q21 0 36.5 -15.5t15.5 -37.5t-15 -37t-37 -15zM53 -53q-22 0 -37.5 15.5t-15.5 37.5t15.5 37.5t37.5 15.5q21 0 36.5 -15.5t15.5 -37.5t-15.5 -37.5t-36.5 -15.5z
M51 73q-21 0 -36.5 15.5t-15.5 36.5q0 22 15.5 37.5t36.5 15.5q22 0 37.5 -15.5t15.5 -37.5t-15 -37t-38 -15zM53 198q-21 0 -37 15t-16 37t15.5 37.5t37.5 15.5q21 0 36.5 -15.5t15.5 -37.5t-15 -37t-37 -15zM51 448q-21 0 -36.5 15.5t-15.5 36.5q0 22 15.5 37.5t36.5 15.5
q22 0 37.5 -15.5t15.5 -37.5t-15 -37t-38 -15zM553 73q-21 0 -37 15t-16 37t15.5 37.5t37.5 15.5q21 0 36.5 -15.5t15.5 -37.5t-15 -37t-37 -15zM554 198q-21 0 -37 15t-16 37t15.5 37.5t37.5 15.5t37 -15t15 -38q0 -22 -15 -37t-37 -15zM553 323q-21 0 -37 15t-16 37
t15.5 37.5t37.5 15.5q21 0 36.5 -15.5t15.5 -37.5t-15 -37t-37 -15zM51 323q-21 0 -36.5 15.5t-15.5 36.5q0 22 15.5 37.5t36.5 15.5q22 0 37.5 -15.5t15.5 -37.5t-15 -37t-38 -15z" />
    <glyph glyph-name="o" unicode="o" 
d="M303 553q21 0 36.5 -15.5t15.5 -37.5t-15 -37t-37 -15q-21 0 -37 15t-16 37t15.5 37.5t37.5 15.5zM303 53q21 0 36.5 -15.5t15.5 -37.5t-15.5 -37.5t-36.5 -15.5q-22 0 -37.5 15.5t-15.5 37.5t15.5 37.5t37.5 15.5zM178 53q21 0 36.5 -15.5t15.5 -37.5t-15.5 -37.5
t-36.5 -15.5q-22 0 -37.5 15.5t-15.5 37.5t15.5 37.5t37.5 15.5zM178 553q21 0 36.5 -15.5t15.5 -37.5t-15 -37t-37 -15q-21 0 -37 15t-16 37t15.5 37.5t37.5 15.5zM428 53q21 0 36.5 -15.5t15.5 -37.5t-15.5 -37.5t-36.5 -15.5q-22 0 -37.5 15.5t-15.5 37.5t15.5 37.5
t37.5 15.5zM428 553q21 0 36.5 -15.5t15.5 -37.5t-15 -37t-37 -15q-21 0 -37 15t-16 37t15.5 37.5t37.5 15.5zM554 428q22 0 37 -15t15 -38q0 -22 -15 -37t-37 -15q-21 0 -37 15t-16 37t15.5 37.5t37.5 15.5zM553 303q21 0 36.5 -15.5t15.5 -37.5t-15 -37t-37 -15
q-21 0 -37 15t-16 37t15.5 37.5t37.5 15.5zM554 178q22 0 37 -15t15 -38q0 -22 -15 -37t-37 -15q-21 0 -37 15t-16 37t15.5 37.5t37.5 15.5zM53 428q21 0 36.5 -15.5t15.5 -37.5t-15 -37t-37 -15q-21 0 -37 15t-16 37t15.5 37.5t37.5 15.5zM51 303q22 0 37.5 -15.5
t15.5 -37.5t-15 -37t-38 -15q-21 0 -36.5 15.5t-15.5 36.5q0 22 15.5 37.5t36.5 15.5zM53 178q21 0 36.5 -15.5t15.5 -37.5t-15 -37t-37 -15q-21 0 -37 15t-16 37t15.5 37.5t37.5 15.5z" />
    <glyph glyph-name="p" unicode="p" 
d="M178 -53q-22 0 -37.5 15.5t-15.5 37.5t15.5 37.5t37.5 15.5q21 0 36.5 -15.5t15.5 -37.5t-15.5 -37.5t-36.5 -15.5zM178 448q-21 0 -37 15t-16 37t15.5 37.5t37.5 15.5q21 0 36.5 -15.5t15.5 -37.5t-15 -37t-37 -15zM303 448q-21 0 -37 15t-16 37t15.5 37.5t37.5 15.5
q21 0 36.5 -15.5t15.5 -37.5t-15 -37t-37 -15zM303 -53q-22 0 -37.5 15.5t-15.5 37.5t15.5 37.5t37.5 15.5q21 0 36.5 -15.5t15.5 -37.5t-15.5 -37.5t-36.5 -15.5zM53 448q-21 0 -37 15t-16 37t15.5 37.5t37.5 15.5q21 0 36.5 -15.5t15.5 -37.5t-15 -37t-37 -15zM53 -303
q-22 0 -37.5 15.5t-15.5 37.5t15 37t38 15q21 0 36.5 -15.5t15.5 -36.5q0 -22 -15.5 -37.5t-36.5 -15.5zM53 -178q-22 0 -37.5 15.5t-15.5 37.5t15 37t38 15q21 0 36.5 -15.5t15.5 -36.5q0 -22 -15.5 -37.5t-36.5 -15.5zM54 198q-21 0 -37 15t-16 37t15.5 37.5t37.5 15.5
t37 -15t15 -38q0 -22 -15 -37t-37 -15zM53 323q-21 0 -37 15t-16 37t15.5 37.5t37.5 15.5q21 0 36.5 -15.5t15.5 -37.5t-15 -37t-37 -15zM428 73q-21 0 -37 15t-16 37t15.5 37.5t37.5 15.5q21 0 36.5 -15.5t15.5 -37.5t-15 -37t-37 -15zM429 198q-21 0 -37 15t-16 37
t15.5 37.5t37.5 15.5t37 -15t15 -38q0 -22 -15 -37t-37 -15zM428 323q-21 0 -37 15t-16 37t15.5 37.5t37.5 15.5q21 0 36.5 -15.5t15.5 -37.5t-15 -37t-37 -15zM53 -53q-22 0 -37.5 15.5t-15.5 37.5t15.5 37.5t37.5 15.5q21 0 36.5 -15.5t15.5 -37.5t-15.5 -37.5
t-36.5 -15.5zM53 73q-21 0 -37 15t-16 37t15.5 37.5t37.5 15.5q21 0 36.5 -15.5t15.5 -37.5t-15 -37t-37 -15z" />
    <glyph glyph-name="q" unicode="q" 
d="M303 -53q-22 0 -37.5 15.5t-15.5 37.5t15.5 37.5t37.5 15.5q21 0 36.5 -15.5t15.5 -37.5t-15.5 -37.5t-36.5 -15.5zM303 448q-21 0 -37 15t-16 37t15.5 37.5t37.5 15.5q21 0 36.5 -15.5t15.5 -37.5t-15 -37t-37 -15zM178 448q-21 0 -37 15t-16 37t15.5 37.5t37.5 15.5
q21 0 36.5 -15.5t15.5 -37.5t-15 -37t-37 -15zM178 -53q-22 0 -37.5 15.5t-15.5 37.5t15.5 37.5t37.5 15.5q21 0 36.5 -15.5t15.5 -37.5t-15.5 -37.5t-36.5 -15.5zM428 448q-21 0 -37 15t-16 37t15.5 37.5t37.5 15.5q21 0 36.5 -15.5t15.5 -37.5t-15 -37t-37 -15zM428 -303
q-22 0 -37.5 15.5t-15.5 37.5t15 37t38 15q21 0 36.5 -15.5t15.5 -36.5q0 -22 -15.5 -37.5t-36.5 -15.5zM428 -178q-22 0 -37.5 15.5t-15.5 37.5t15 37t38 15q21 0 36.5 -15.5t15.5 -36.5q0 -22 -15.5 -37.5t-36.5 -15.5zM426 198q-21 0 -36.5 15.5t-15.5 36.5
q0 22 15.5 37.5t36.5 15.5q22 0 37.5 -15.5t15.5 -37.5t-15 -37t-38 -15zM428 323q-21 0 -37 15t-16 37t15.5 37.5t37.5 15.5q21 0 36.5 -15.5t15.5 -37.5t-15 -37t-37 -15zM53 73q-21 0 -37 15t-16 37t15.5 37.5t37.5 15.5q21 0 36.5 -15.5t15.5 -37.5t-15 -37t-37 -15z
M51 198q-21 0 -36.5 15.5t-15.5 36.5q0 22 15.5 37.5t36.5 15.5q22 0 37.5 -15.5t15.5 -37.5t-15 -37t-38 -15zM53 323q-21 0 -37 15t-16 37t15.5 37.5t37.5 15.5q21 0 36.5 -15.5t15.5 -37.5t-15 -37t-37 -15zM428 -53q-22 0 -37.5 15.5t-15.5 37.5t15.5 37.5t37.5 15.5
q21 0 36.5 -15.5t15.5 -37.5t-15.5 -37.5t-36.5 -15.5zM428 73q-21 0 -37 15t-16 37t15.5 37.5t37.5 15.5q21 0 36.5 -15.5t15.5 -37.5t-15 -37t-37 -15z" />
    <glyph glyph-name="r" unicode="r" 
d="M303 448q-21 0 -37 15t-16 37t15.5 37.5t37.5 15.5q21 0 36.5 -15.5t15.5 -37.5t-15 -37t-37 -15zM428 448q-21 0 -37 15t-16 37t15.5 37.5t37.5 15.5q21 0 36.5 -15.5t15.5 -37.5t-15 -37t-37 -15zM178 323q-21 0 -37 15t-16 37t15.5 37.5t37.5 15.5q21 0 36.5 -15.5
t15.5 -37.5t-15 -37t-37 -15zM53 -53q-22 0 -37.5 15.5t-15.5 37.5t15.5 37.5t37.5 15.5q21 0 36.5 -15.5t15.5 -37.5t-15.5 -37.5t-36.5 -15.5zM51 73q-21 0 -36.5 15.5t-15.5 36.5q0 22 15.5 37.5t36.5 15.5q22 0 37.5 -15.5t15.5 -37.5t-15 -37t-38 -15zM53 198
q-21 0 -37 15t-16 37t15.5 37.5t37.5 15.5q21 0 36.5 -15.5t15.5 -37.5t-15 -37t-37 -15zM51 448q-21 0 -36.5 15.5t-15.5 36.5q0 22 15.5 37.5t36.5 15.5q22 0 37.5 -15.5t15.5 -37.5t-15 -37t-38 -15zM51 323q-21 0 -36.5 15.5t-15.5 36.5q0 22 15.5 37.5t36.5 15.5
q22 0 37.5 -15.5t15.5 -37.5t-15 -37t-38 -15z" />
    <glyph glyph-name="s" unicode="s" 
d="M303 303q21 0 36.5 -15.5t15.5 -37.5t-15 -37t-37 -15q-21 0 -37 15t-16 37t15.5 37.5t37.5 15.5zM303 53q21 0 36.5 -15.5t15.5 -37.5t-15.5 -37.5t-36.5 -15.5q-22 0 -37.5 15.5t-15.5 37.5t15.5 37.5t37.5 15.5zM178 53q21 0 36.5 -15.5t15.5 -37.5t-15.5 -37.5
t-36.5 -15.5q-22 0 -37.5 15.5t-15.5 37.5t15.5 37.5t37.5 15.5zM178 303q21 0 36.5 -15.5t15.5 -37.5t-15 -37t-37 -15q-21 0 -37 15t-16 37t15.5 37.5t37.5 15.5zM428 53q21 0 36.5 -15.5t15.5 -37.5t-15.5 -37.5t-36.5 -15.5q-22 0 -37.5 15.5t-15.5 37.5t15.5 37.5
t37.5 15.5zM428 303q21 0 36.5 -15.5t15.5 -37.5t-15 -37t-37 -15q-21 0 -37 15t-16 37t15.5 37.5t37.5 15.5zM53 428q21 0 36.5 -15.5t15.5 -37.5t-15 -37t-37 -15q-21 0 -37 15t-16 37t15.5 37.5t37.5 15.5zM553 178q21 0 36.5 -15.5t15.5 -37.5t-15 -37t-37 -15
q-21 0 -37 15t-16 37t15.5 37.5t37.5 15.5zM303 553q21 0 36.5 -15.5t15.5 -37.5t-15 -37t-37 -15q-21 0 -37 15t-16 37t15.5 37.5t37.5 15.5zM178 553q21 0 36.5 -15.5t15.5 -37.5t-15 -37t-37 -15q-21 0 -37 15t-16 37t15.5 37.5t37.5 15.5zM428 553q21 0 36.5 -15.5
t15.5 -37.5t-15 -37t-37 -15q-21 0 -37 15t-16 37t15.5 37.5t37.5 15.5zM554 553q22 0 37 -15t15 -38q0 -22 -15 -37t-37 -15q-21 0 -37 15t-16 37t15.5 37.5t37.5 15.5zM51 53q22 0 37.5 -15.5t15.5 -37.5t-15.5 -37.5t-37.5 -15.5q-21 0 -36.5 15.5t-15.5 37.5t15.5 37.5
t36.5 15.5z" />
    <glyph glyph-name="t" unicode="t" 
d="M240 53q22 0 37.5 -15.5t15.5 -37.5t-15.5 -37.5t-37.5 -15.5t-37 15t-15 38q0 21 15 37t37 16zM365 53q22 0 37.5 -15.5t15.5 -37.5t-15.5 -37.5t-37.5 -15.5t-37 15t-15 38q0 21 15 37t37 16zM303 553q21 0 36.5 -15.5t15.5 -37.5t-15 -37t-37 -15q-21 0 -37 15t-16 37
t15.5 37.5t37.5 15.5zM178 678q21 0 36.5 -15.5t15.5 -37.5t-15 -37t-37 -15q-21 0 -37 15t-16 37t15.5 37.5t37.5 15.5zM176 303q22 0 37.5 -15.5t15.5 -37.5t-15 -37t-38 -15q-21 0 -36.5 15.5t-15.5 36.5q0 22 15.5 37.5t36.5 15.5zM178 178q21 0 36.5 -15.5t15.5 -37.5
t-15 -37t-37 -15q-21 0 -37 15t-16 37t15.5 37.5t37.5 15.5zM178 553q21 0 36.5 -15.5t15.5 -37.5t-15 -37t-37 -15q-21 0 -37 15t-16 37t15.5 37.5t37.5 15.5zM178 428q21 0 36.5 -15.5t15.5 -37.5t-15 -37t-37 -15q-21 0 -37 15t-16 37t15.5 37.5t37.5 15.5zM53 553
q21 0 36.5 -15.5t15.5 -37.5t-15 -37t-37 -15q-21 0 -37 15t-16 37t15.5 37.5t37.5 15.5zM178 803q21 0 36.5 -15.5t15.5 -37.5t-15 -37t-37 -15q-21 0 -37 15t-16 37t15.5 37.5t37.5 15.5z" />
    <glyph glyph-name="u" unicode="u" 
d="M303 53q21 0 36.5 -15.5t15.5 -37.5t-15.5 -37.5t-36.5 -15.5q-22 0 -37.5 15.5t-15.5 37.5t15.5 37.5t37.5 15.5zM178 53q21 0 36.5 -15.5t15.5 -37.5t-15.5 -37.5t-36.5 -15.5q-22 0 -37.5 15.5t-15.5 37.5t15.5 37.5t37.5 15.5zM53 553q21 0 36.5 -15.5t15.5 -37.5
t-15 -37t-37 -15q-21 0 -37 15t-16 37t15.5 37.5t37.5 15.5zM428 178q21 0 36.5 -15.5t15.5 -37.5t-15 -37t-37 -15q-21 0 -37 15t-16 37t15.5 37.5t37.5 15.5zM553 553q21 0 36.5 -15.5t15.5 -37.5t-15 -37t-37 -15q-21 0 -37 15t-16 37t15.5 37.5t37.5 15.5zM554 428
q22 0 37 -15t15 -38q0 -22 -15 -37t-37 -15q-21 0 -37 15t-16 37t15.5 37.5t37.5 15.5zM553 303q21 0 36.5 -15.5t15.5 -37.5t-15 -37t-37 -15q-21 0 -37 15t-16 37t15.5 37.5t37.5 15.5zM554 53q22 0 37 -15t15 -38q0 -21 -15 -37t-37 -16t-37.5 15.5t-15.5 37.5t15.5 37.5
t37.5 15.5zM53 428q21 0 36.5 -15.5t15.5 -37.5t-15 -37t-37 -15q-21 0 -37 15t-16 37t15.5 37.5t37.5 15.5zM51 303q22 0 37.5 -15.5t15.5 -37.5t-15 -37t-38 -15q-21 0 -36.5 15.5t-15.5 36.5q0 22 15.5 37.5t36.5 15.5zM53 178q21 0 36.5 -15.5t15.5 -37.5t-15 -37
t-37 -15q-21 0 -37 15t-16 37t15.5 37.5t37.5 15.5zM554 178q22 0 37 -15t15 -38q0 -22 -15 -37t-37 -15q-21 0 -37 15t-16 37t15.5 37.5t37.5 15.5z" />
    <glyph glyph-name="v" unicode="v" 
d="M303 53q21 0 36.5 -15.5t15.5 -37.5t-15.5 -37.5t-36.5 -15.5q-22 0 -37.5 15.5t-15.5 37.5t15.5 37.5t37.5 15.5zM240 178q22 0 37.5 -15.5t15.5 -37.5t-15 -37t-38 -15q-22 0 -37 15t-15 37q0 21 15 37t37 16zM53 553q21 0 36.5 -15.5t15.5 -37.5t-15 -37t-37 -15
q-21 0 -37 15t-16 37t15.5 37.5t37.5 15.5zM365 178q22 0 37.5 -15.5t15.5 -37.5t-15 -37t-38 -15q-22 0 -37 15t-15 37q0 21 15 37t37 16zM553 553q21 0 36.5 -15.5t15.5 -37.5t-15 -37t-37 -15q-21 0 -37 15t-16 37t15.5 37.5t37.5 15.5zM491 428q22 0 37.5 -15.5
t15.5 -37.5t-15 -37t-38 -15q-21 0 -36.5 15.5t-15.5 36.5q0 22 15.5 37.5t36.5 15.5zM428 303q21 0 36.5 -15.5t15.5 -37.5t-15 -37t-37 -15q-21 0 -37 15t-16 37t15.5 37.5t37.5 15.5zM115 428q22 0 37.5 -15.5t15.5 -37.5t-15 -37t-38 -15q-22 0 -37 15t-15 37
q0 21 15 37t37 16zM176 303q22 0 37.5 -15.5t15.5 -37.5t-15 -37t-38 -15q-21 0 -36.5 15.5t-15.5 36.5q0 22 15.5 37.5t36.5 15.5z" />
    <glyph glyph-name="w" unicode="w" 
d="M429 53q22 0 37 -15t15 -38q0 -21 -15 -37t-37 -16t-37.5 15.5t-15.5 37.5t15.5 37.5t37.5 15.5zM554 553q22 0 37 -15t15 -38q0 -22 -15 -37t-37 -15q-21 0 -37 15t-16 37t15.5 37.5t37.5 15.5zM179 53q23 0 39.5 -15.5t12.5 -37.5q-4 -21 -18 -37t-34 -16
q-22 0 -37.5 15.5t-15.5 37.5t15.5 37.5t37.5 15.5zM304 553q22 0 37 -15t15 -38q0 -22 -15 -37t-37 -15q-21 0 -37 15t-16 37t15.5 37.5t37.5 15.5zM303 428q21 0 36.5 -15.5t15.5 -37.5t-15 -37t-37 -15q-21 0 -37 15t-16 37t15.5 37.5t37.5 15.5zM304 303q22 0 37 -15
t15 -38q0 -22 -15 -37t-37 -15q-21 0 -37 15t-16 37t15.5 37.5t37.5 15.5zM554 428q22 0 37 -15t15 -38q0 -22 -15 -37t-37 -15q-21 0 -37 15t-16 37t15.5 37.5t37.5 15.5zM555 303q22 0 37.5 -15.5t15.5 -37.5t-15 -37t-38 -15q-22 0 -37 15t-15 37q0 21 15 37t37 16z
M554 178q22 0 37 -15t15 -38q0 -22 -15 -37t-37 -15q-21 0 -37 15t-16 37t15.5 37.5t37.5 15.5zM303 178q21 0 36.5 -15.5t15.5 -37.5t-15 -37t-37 -15q-21 0 -37 15t-16 37t15.5 37.5t37.5 15.5zM54 553q22 0 37 -15t15 -38q0 -22 -15 -37t-37 -15q-21 0 -37 15t-16 37
t15.5 37.5t37.5 15.5zM53 428q21 0 36.5 -15.5t15.5 -37.5t-15 -37t-37 -15q-21 0 -37 15t-16 37t15.5 37.5t37.5 15.5zM54 303q22 0 37 -15t15 -38q0 -22 -15 -37t-37 -15q-21 0 -37 15t-16 37t15.5 37.5t37.5 15.5zM53 178q21 0 36.5 -15.5t15.5 -37.5t-15 -37t-37 -15
q-21 0 -37 15t-16 37t15.5 37.5t37.5 15.5z" />
    <glyph glyph-name="x" unicode="x" 
d="M178 178q21 0 36.5 -15.5t15.5 -37.5t-15 -37t-37 -15q-21 0 -37 15t-16 37t15.5 37.5t37.5 15.5zM53 53q21 0 36.5 -15.5t15.5 -37.5t-15.5 -37.5t-36.5 -15.5q-22 0 -37.5 15.5t-15.5 37.5t15.5 37.5t37.5 15.5zM428 178q21 0 36.5 -15.5t15.5 -37.5t-15 -37t-37 -15
q-21 0 -37 15t-16 37t15.5 37.5t37.5 15.5zM553 53q21 0 36.5 -15.5t15.5 -37.5t-15.5 -37.5t-36.5 -15.5q-22 0 -37.5 15.5t-15.5 37.5t15.5 37.5t37.5 15.5zM429 428q22 0 37 -15t15 -38q0 -22 -15 -37t-37 -15q-21 0 -37 15t-16 37t15.5 37.5t37.5 15.5zM178 428
q21 0 36.5 -15.5t15.5 -37.5t-15 -37t-37 -15q-21 0 -37 15t-16 37t15.5 37.5t37.5 15.5zM301 303q22 0 37.5 -15.5t15.5 -37.5t-15 -37t-38 -15q-21 0 -36.5 15.5t-15.5 36.5q0 22 15.5 37.5t36.5 15.5zM53 553q21 0 36.5 -15.5t15.5 -37.5t-15 -37t-37 -15q-21 0 -37 15
t-16 37t15.5 37.5t37.5 15.5zM553 553q21 0 36.5 -15.5t15.5 -37.5t-15 -37t-37 -15q-21 0 -37 15t-16 37t15.5 37.5t37.5 15.5z" />
    <glyph glyph-name="y" unicode="y" 
d="M303 -198q21 0 36.5 -15.5t15.5 -36.5q0 -22 -15.5 -37.5t-36.5 -15.5q-22 0 -37.5 15.5t-15.5 37.5t15 37t38 15zM178 -198q21 0 36.5 -15.5t15.5 -36.5q0 -22 -15.5 -37.5t-36.5 -15.5q-22 0 -37.5 15.5t-15.5 37.5t15 37t38 15zM53 553q21 0 36.5 -15.5t15.5 -37.5
t-15 -37t-37 -15q-21 0 -37 15t-16 37t15.5 37.5t37.5 15.5zM428 -198q21 0 36.5 -15.5t15.5 -36.5q0 -22 -15.5 -37.5t-36.5 -15.5q-22 0 -37.5 15.5t-15.5 37.5t15 37t38 15zM554 428q22 0 37 -15t15 -38q0 -22 -15 -37t-37 -15q-21 0 -37 15t-16 37t15.5 37.5t37.5 15.5z
M553 303q21 0 36.5 -15.5t15.5 -37.5t-15 -37t-37 -15q-21 0 -37 15t-16 37t15.5 37.5t37.5 15.5zM554 -73q22 0 37 -15t15 -37q0 -21 -15 -37t-37 -16t-37.5 15.5t-15.5 37.5t15 37t38 15zM53 428q21 0 36.5 -15.5t15.5 -37.5t-15 -37t-37 -15q-21 0 -37 15t-16 37
t15.5 37.5t37.5 15.5zM51 303q22 0 37.5 -15.5t15.5 -37.5t-15 -37t-38 -15q-21 0 -36.5 15.5t-15.5 36.5q0 22 15.5 37.5t36.5 15.5zM303 53q21 0 36.5 -15.5t15.5 -37.5t-15.5 -37.5t-36.5 -15.5q-22 0 -37.5 15.5t-15.5 37.5t15.5 37.5t37.5 15.5zM178 53
q21 0 36.5 -15.5t15.5 -37.5t-15.5 -37.5t-36.5 -15.5q-22 0 -37.5 15.5t-15.5 37.5t15.5 37.5t37.5 15.5zM428 178q21 0 36.5 -15.5t15.5 -37.5t-15 -37t-37 -15q-21 0 -37 15t-16 37t15.5 37.5t37.5 15.5zM554 53q22 0 37 -15t15 -38q0 -21 -15 -37t-37 -16t-37.5 15.5
t-15.5 37.5t15.5 37.5t37.5 15.5zM53 178q21 0 36.5 -15.5t15.5 -37.5t-15 -37t-37 -15q-21 0 -37 15t-16 37t15.5 37.5t37.5 15.5zM554 553q22 0 37 -15t15 -38q0 -22 -15 -37t-37 -15q-21 0 -37 15t-16 37t15.5 37.5t37.5 15.5zM554 178q22 0 37 -15t15 -38q0 -22 -15 -37
t-37 -15q-21 0 -37 15t-16 37t15.5 37.5t37.5 15.5z" />
    <glyph glyph-name="z" unicode="z" 
d="M50 553q22 0 37.5 -15.5t15.5 -37.5t-15 -37t-38 -15q-21 0 -37 15t-16 37t15.5 37.5t37.5 15.5zM550 553q22 0 37.5 -15.5t15.5 -37.5t-15 -37t-38 -15q-22 0 -37 15t-15 37q0 21 15 37t37 16zM425 428q22 0 37.5 -15.5t15.5 -37.5t-15 -37t-38 -15q-22 0 -37 15t-15 37
q0 21 15 37t37 16zM550 53q22 0 37.5 -15.5t15.5 -37.5t-15.5 -37.5t-37.5 -15.5t-37 15t-15 38q0 21 15 37t37 16zM175 178q22 0 37.5 -15.5t15.5 -37.5t-15 -37t-38 -15q-22 0 -37 15t-15 37q0 21 15 37t37 16zM178 53q21 0 36.5 -15.5t15.5 -37.5t-15.5 -37.5
t-36.5 -15.5q-22 0 -37.5 15.5t-15.5 37.5t15.5 37.5t37.5 15.5zM50 53q22 0 37.5 -15.5t15.5 -37.5t-15.5 -37.5t-37.5 -15.5t-37.5 15.5t-15.5 37.5t15.5 37.5t37.5 15.5zM178 553q21 0 36.5 -15.5t15.5 -37.5t-15 -37t-37 -15q-21 0 -37 15t-16 37t15.5 37.5t37.5 15.5z
M303 553q21 0 36.5 -15.5t15.5 -37.5t-15 -37t-37 -15q-21 0 -37 15t-16 37t15.5 37.5t37.5 15.5zM428 553q21 0 36.5 -15.5t15.5 -37.5t-15 -37t-37 -15q-21 0 -37 15t-16 37t15.5 37.5t37.5 15.5zM429 53q22 0 37 -15t15 -38q0 -21 -15 -37t-37 -16t-37.5 15.5t-15.5 37.5
t15.5 37.5t37.5 15.5zM303 53q21 0 36.5 -15.5t15.5 -37.5t-15.5 -37.5t-36.5 -15.5q-22 0 -37.5 15.5t-15.5 37.5t15.5 37.5t37.5 15.5zM300 303q22 0 37.5 -15.5t15.5 -37.5t-15 -37t-38 -15q-22 0 -37 15t-15 37q0 21 15 37t37 16z" />
    <glyph glyph-name="braceleft" unicode="{" 
d="M303 803q21 0 36.5 -15.5t15.5 -37.5t-15 -37t-37 -15q-21 0 -37 15t-16 37t15.5 37.5t37.5 15.5zM178 678q21 0 36.5 -15.5t15.5 -37.5t-15 -37t-37 -15q-21 0 -37 15t-16 37t15.5 37.5t37.5 15.5zM178 553q21 0 36.5 -15.5t15.5 -37.5t-15 -37t-37 -15q-21 0 -37 15
t-16 37t15.5 37.5t37.5 15.5zM53 428q21 0 36.5 -15.5t15.5 -37.5t-15 -37t-37 -15q-21 0 -37 15t-16 37t15.5 37.5t37.5 15.5zM176 303q22 0 37.5 -15.5t15.5 -37.5t-15 -37t-38 -15q-21 0 -36.5 15.5t-15.5 36.5q0 22 15.5 37.5t36.5 15.5zM178 178q21 0 36.5 -15.5
t15.5 -37.5t-15 -37t-37 -15q-21 0 -37 15t-16 37t15.5 37.5t37.5 15.5zM303 53q21 0 36.5 -15.5t15.5 -37.5t-15.5 -37.5t-36.5 -15.5q-22 0 -37.5 15.5t-15.5 37.5t15.5 37.5t37.5 15.5z" />
    <glyph glyph-name="bar" unicode="|" 
d="M303 53q21 0 36.5 -15.5t15.5 -37.5t-15.5 -37.5t-36.5 -15.5q-22 0 -37.5 15.5t-15.5 37.5t15.5 37.5t37.5 15.5zM303 678q21 0 36.5 -15.5t15.5 -37.5t-15 -37t-37 -15q-21 0 -37 15t-16 37t15.5 37.5t37.5 15.5zM301 303q22 0 37.5 -15.5t15.5 -37.5t-15 -37t-38 -15
q-21 0 -36.5 15.5t-15.5 36.5q0 22 15.5 37.5t36.5 15.5zM303 178q21 0 36.5 -15.5t15.5 -37.5t-15 -37t-37 -15q-21 0 -37 15t-16 37t15.5 37.5t37.5 15.5zM303 553q21 0 36.5 -15.5t15.5 -37.5t-15 -37t-37 -15q-21 0 -37 15t-16 37t15.5 37.5t37.5 15.5zM303 428
q21 0 36.5 -15.5t15.5 -37.5t-15 -37t-37 -15q-21 0 -37 15t-16 37t15.5 37.5t37.5 15.5zM303 803q21 0 36.5 -15.5t15.5 -37.5t-15 -37t-37 -15q-21 0 -37 15t-16 37t15.5 37.5t37.5 15.5zM303 -198q21 0 36.5 -15.5t15.5 -36.5q0 -22 -15.5 -37.5t-36.5 -15.5
q-22 0 -37.5 15.5t-15.5 37.5t15 37t38 15zM303 -73q21 0 36.5 -15.5t15.5 -36.5q0 -22 -15.5 -37.5t-36.5 -15.5q-22 0 -37.5 15.5t-15.5 37.5t15 37t38 15z" />
    <glyph glyph-name="braceright" unicode="}" 
d="M303 803q21 0 36.5 -15.5t15.5 -37.5t-15 -37t-37 -15q-21 0 -37 15t-16 37t15.5 37.5t37.5 15.5zM428 678q21 0 36.5 -15.5t15.5 -37.5t-15 -37t-37 -15q-21 0 -37 15t-16 37t15.5 37.5t37.5 15.5zM428 553q21 0 36.5 -15.5t15.5 -37.5t-15 -37t-37 -15q-21 0 -37 15
t-16 37t15.5 37.5t37.5 15.5zM553 428q21 0 36.5 -15.5t15.5 -37.5t-15 -37t-37 -15q-21 0 -37 15t-16 37t15.5 37.5t37.5 15.5zM429 303q22 0 37 -15t15 -38q0 -22 -15 -37t-37 -15q-21 0 -37 15t-16 37t15.5 37.5t37.5 15.5zM428 178q21 0 36.5 -15.5t15.5 -37.5t-15 -37
t-37 -15q-21 0 -37 15t-16 37t15.5 37.5t37.5 15.5zM303 53q21 0 36.5 -15.5t15.5 -37.5t-15.5 -37.5t-36.5 -15.5q-22 0 -37.5 15.5t-15.5 37.5t15.5 37.5t37.5 15.5z" />
    <glyph glyph-name="asciitilde" unicode="~" 
d="M428 678q21 0 36.5 -15.5t15.5 -37.5t-15 -37t-37 -15q-21 0 -37 15t-16 37t15.5 37.5t37.5 15.5zM178 678q21 0 36.5 -15.5t15.5 -37.5t-15 -37t-37 -15q-21 0 -37 15t-16 37t15.5 37.5t37.5 15.5zM553 803q21 0 36.5 -15.5t15.5 -37.5t-15 -37t-37 -15q-21 0 -37 15
t-16 37t15.5 37.5t37.5 15.5zM303 803q21 0 36.5 -15.5t15.5 -37.5t-15 -37t-37 -15q-21 0 -37 15t-16 37t15.5 37.5t37.5 15.5z" />
    <glyph glyph-name="Adieresis" unicode="&#xc4;" 
d="M303 678q21 0 36.5 -15.5t15.5 -37.5t-15 -37t-37 -15q-21 0 -37 15t-16 37t15.5 37.5t37.5 15.5zM303 303q21 0 36.5 -15.5t15.5 -37.5t-15 -37t-37 -15q-21 0 -37 15t-16 37t15.5 37.5t37.5 15.5zM53 53q21 0 36.5 -15.5t15.5 -37.5t-15.5 -37.5t-36.5 -15.5
q-22 0 -37.5 15.5t-15.5 37.5t15.5 37.5t37.5 15.5zM178 303q21 0 36.5 -15.5t15.5 -37.5t-15 -37t-37 -15q-21 0 -37 15t-16 37t15.5 37.5t37.5 15.5zM428 303q21 0 36.5 -15.5t15.5 -37.5t-15 -37t-37 -15q-21 0 -37 15t-16 37t15.5 37.5t37.5 15.5zM178 803
q21 0 36.5 -15.5t15.5 -37.5t-15 -37t-37 -15q-21 0 -37 15t-16 37t15.5 37.5t37.5 15.5zM240 553q22 0 37.5 -15.5t15.5 -37.5t-15 -37t-38 -15q-22 0 -37 15t-15 37q0 21 15 37t37 16zM115 428q22 0 37.5 -15.5t15.5 -37.5t-15 -37t-38 -15q-22 0 -37 15t-15 37
q0 21 15 37t37 16zM51 303q22 0 37.5 -15.5t15.5 -37.5t-15 -37t-38 -15q-21 0 -36.5 15.5t-15.5 36.5q0 22 15.5 37.5t36.5 15.5zM53 178q21 0 36.5 -15.5t15.5 -37.5t-15 -37t-37 -15q-21 0 -37 15t-16 37t15.5 37.5t37.5 15.5zM553 53q21 0 36.5 -15.5t15.5 -37.5
t-15.5 -37.5t-36.5 -15.5q-22 0 -37.5 15.5t-15.5 37.5t15.5 37.5t37.5 15.5zM428 803q21 0 36.5 -15.5t15.5 -37.5t-15 -37t-37 -15q-21 0 -37 15t-16 37t15.5 37.5t37.5 15.5zM365 553q22 0 37.5 -15.5t15.5 -37.5t-15 -37t-38 -15q-22 0 -37 15t-15 37q0 21 15 37t37 16z
M490 428q22 0 37.5 -15.5t15.5 -37.5t-15 -37t-38 -15q-22 0 -37 15t-15 37q0 21 15 37t37 16zM551 303q22 0 37.5 -15.5t15.5 -37.5t-15 -37t-38 -15q-21 0 -36.5 15.5t-15.5 36.5q0 22 15.5 37.5t36.5 15.5zM553 178q21 0 36.5 -15.5t15.5 -37.5t-15 -37t-37 -15
q-21 0 -37 15t-16 37t15.5 37.5t37.5 15.5z" />
    <glyph glyph-name="Aring" unicode="&#xc5;" 
d="M303 803q21 0 36.5 -15.5t15.5 -37.5t-15 -37t-37 -15q-21 0 -37 15t-16 37t15.5 37.5t37.5 15.5zM303 303q21 0 36.5 -15.5t15.5 -37.5t-15 -37t-37 -15q-21 0 -37 15t-16 37t15.5 37.5t37.5 15.5zM53 53q21 0 36.5 -15.5t15.5 -37.5t-15.5 -37.5t-36.5 -15.5
q-22 0 -37.5 15.5t-15.5 37.5t15.5 37.5t37.5 15.5zM178 303q21 0 36.5 -15.5t15.5 -37.5t-15 -37t-37 -15q-21 0 -37 15t-16 37t15.5 37.5t37.5 15.5zM428 303q21 0 36.5 -15.5t15.5 -37.5t-15 -37t-37 -15q-21 0 -37 15t-16 37t15.5 37.5t37.5 15.5zM178 678
q21 0 36.5 -15.5t15.5 -37.5t-15 -37t-37 -15q-21 0 -37 15t-16 37t15.5 37.5t37.5 15.5zM240 553q22 0 37.5 -15.5t15.5 -37.5t-15 -37t-38 -15q-22 0 -37 15t-15 37q0 21 15 37t37 16zM115 428q22 0 37.5 -15.5t15.5 -37.5t-15 -37t-38 -15q-22 0 -37 15t-15 37
q0 21 15 37t37 16zM51 303q22 0 37.5 -15.5t15.5 -37.5t-15 -37t-38 -15q-21 0 -36.5 15.5t-15.5 36.5q0 22 15.5 37.5t36.5 15.5zM53 178q21 0 36.5 -15.5t15.5 -37.5t-15 -37t-37 -15q-21 0 -37 15t-16 37t15.5 37.5t37.5 15.5zM553 53q21 0 36.5 -15.5t15.5 -37.5
t-15.5 -37.5t-36.5 -15.5q-22 0 -37.5 15.5t-15.5 37.5t15.5 37.5t37.5 15.5zM428 678q21 0 36.5 -15.5t15.5 -37.5t-15 -37t-37 -15q-21 0 -37 15t-16 37t15.5 37.5t37.5 15.5zM365 553q22 0 37.5 -15.5t15.5 -37.5t-15 -37t-38 -15q-22 0 -37 15t-15 37q0 21 15 37t37 16z
M490 428q22 0 37.5 -15.5t15.5 -37.5t-15 -37t-38 -15q-22 0 -37 15t-15 37q0 21 15 37t37 16zM551 303q22 0 37.5 -15.5t15.5 -37.5t-15 -37t-38 -15q-21 0 -36.5 15.5t-15.5 36.5q0 22 15.5 37.5t36.5 15.5zM553 178q21 0 36.5 -15.5t15.5 -37.5t-15 -37t-37 -15
q-21 0 -37 15t-16 37t15.5 37.5t37.5 15.5z" />
    <glyph glyph-name="Ccedilla" unicode="&#xc7;" 
d="M553 678q21 0 36.5 -15.5t15.5 -37.5t-15 -37t-37 -15q-21 0 -37 15t-16 37t15.5 37.5t37.5 15.5zM303 803q21 0 36.5 -15.5t15.5 -37.5t-15 -37t-37 -15q-21 0 -37 15t-16 37t15.5 37.5t37.5 15.5zM553 178q21 0 36.5 -15.5t15.5 -37.5t-15 -37t-37 -15q-21 0 -37 15
t-16 37t15.5 37.5t37.5 15.5zM303 53q21 0 36.5 -15.5t15.5 -37.5t-15.5 -37.5t-36.5 -15.5q-22 0 -37.5 15.5t-15.5 37.5t15.5 37.5t37.5 15.5zM178 53q21 0 36.5 -15.5t15.5 -37.5t-15.5 -37.5t-36.5 -15.5q-22 0 -37.5 15.5t-15.5 37.5t15.5 37.5t37.5 15.5zM178 803
q21 0 36.5 -15.5t15.5 -37.5t-15 -37t-37 -15q-21 0 -37 15t-16 37t15.5 37.5t37.5 15.5zM428 53q21 0 36.5 -15.5t15.5 -37.5t-15.5 -37.5t-36.5 -15.5q-22 0 -37.5 15.5t-15.5 37.5t15.5 37.5t37.5 15.5zM428 803q21 0 36.5 -15.5t15.5 -37.5t-15 -37t-37 -15
q-21 0 -37 15t-16 37t15.5 37.5t37.5 15.5zM53 678q21 0 36.5 -15.5t15.5 -37.5t-15 -37t-37 -15q-21 0 -37 15t-16 37t15.5 37.5t37.5 15.5zM53 553q21 0 36.5 -15.5t15.5 -37.5t-15 -37t-37 -15q-21 0 -37 15t-16 37t15.5 37.5t37.5 15.5zM53 428q21 0 36.5 -15.5
t15.5 -37.5t-15 -37t-37 -15q-21 0 -37 15t-16 37t15.5 37.5t37.5 15.5zM51 303q22 0 37.5 -15.5t15.5 -37.5t-15 -37t-38 -15q-21 0 -36.5 15.5t-15.5 36.5q0 22 15.5 37.5t36.5 15.5zM53 178q21 0 36.5 -15.5t15.5 -37.5t-15 -37t-37 -15q-21 0 -37 15t-16 37t15.5 37.5
t37.5 15.5zM303 -73q21 0 36.5 -15.5t15.5 -36.5q0 -22 -15.5 -37.5t-36.5 -15.5q-22 0 -37.5 15.5t-15.5 37.5t15 37t38 15zM240 -198q21 0 37 -15t16 -37t-15.5 -37.5t-37.5 -15.5t-37 15t-15 38q0 22 15 37t37 15z" />
    <glyph glyph-name="Eacute" unicode="&#xc9;" 
d="M303 803q21 0 36.5 -15.5t15.5 -37.5t-15 -37t-37 -15q-21 0 -37 15t-16 37t15.5 37.5t37.5 15.5zM303 553q21 0 36.5 -15.5t15.5 -37.5t-15 -37t-37 -15q-21 0 -37 15t-16 37t15.5 37.5t37.5 15.5zM53 53q21 0 36.5 -15.5t15.5 -37.5t-15.5 -37.5t-36.5 -15.5
q-22 0 -37.5 15.5t-15.5 37.5t15.5 37.5t37.5 15.5zM178 553q21 0 36.5 -15.5t15.5 -37.5t-15 -37t-37 -15q-21 0 -37 15t-16 37t15.5 37.5t37.5 15.5zM428 553q21 0 36.5 -15.5t15.5 -37.5t-15 -37t-37 -15q-21 0 -37 15t-16 37t15.5 37.5t37.5 15.5zM240 678
q22 0 37.5 -15.5t15.5 -37.5t-15 -37t-38 -15q-22 0 -37 15t-15 37q0 21 15 37t37 16zM53 553q21 0 36.5 -15.5t15.5 -37.5t-15 -37t-37 -15q-21 0 -37 15t-16 37t15.5 37.5t37.5 15.5zM53 428q21 0 36.5 -15.5t15.5 -37.5t-15 -37t-37 -15q-21 0 -37 15t-16 37t15.5 37.5
t37.5 15.5zM51 303q22 0 37.5 -15.5t15.5 -37.5t-15 -37t-38 -15q-21 0 -36.5 15.5t-15.5 36.5q0 22 15.5 37.5t36.5 15.5zM53 178q21 0 36.5 -15.5t15.5 -37.5t-15 -37t-37 -15q-21 0 -37 15t-16 37t15.5 37.5t37.5 15.5zM553 553q21 0 36.5 -15.5t15.5 -37.5t-15 -37
t-37 -15q-21 0 -37 15t-16 37t15.5 37.5t37.5 15.5zM303 303q21 0 36.5 -15.5t15.5 -37.5t-15 -37t-37 -15q-21 0 -37 15t-16 37t15.5 37.5t37.5 15.5zM178 303q21 0 36.5 -15.5t15.5 -37.5t-15 -37t-37 -15q-21 0 -37 15t-16 37t15.5 37.5t37.5 15.5zM428 303
q21 0 36.5 -15.5t15.5 -37.5t-15 -37t-37 -15q-21 0 -37 15t-16 37t15.5 37.5t37.5 15.5zM303 53q21 0 36.5 -15.5t15.5 -37.5t-15.5 -37.5t-36.5 -15.5q-22 0 -37.5 15.5t-15.5 37.5t15.5 37.5t37.5 15.5zM178 53q21 0 36.5 -15.5t15.5 -37.5t-15.5 -37.5t-36.5 -15.5
q-22 0 -37.5 15.5t-15.5 37.5t15.5 37.5t37.5 15.5zM428 53q21 0 36.5 -15.5t15.5 -37.5t-15.5 -37.5t-36.5 -15.5q-22 0 -37.5 15.5t-15.5 37.5t15.5 37.5t37.5 15.5zM553 53q21 0 36.5 -15.5t15.5 -37.5t-15.5 -37.5t-36.5 -15.5q-22 0 -37.5 15.5t-15.5 37.5t15.5 37.5
t37.5 15.5z" />
    <glyph glyph-name="Ntilde" unicode="&#xd1;" 
d="M428 803q21 0 36.5 -15.5t15.5 -37.5t-15 -37t-37 -15q-21 0 -37 15t-16 37t15.5 37.5t37.5 15.5zM240 803q22 0 37.5 -15.5t15.5 -37.5t-15 -37t-38 -15q-22 0 -37 15t-15 37q0 21 15 37t37 16zM178 428q21 0 36.5 -15.5t15.5 -37.5t-15 -37t-37 -15q-21 0 -37 15
t-16 37t15.5 37.5t37.5 15.5zM53 53q21 0 36.5 -15.5t15.5 -37.5t-15.5 -37.5t-36.5 -15.5q-22 0 -37.5 15.5t-15.5 37.5t15.5 37.5t37.5 15.5zM178 678q21 0 36.5 -15.5t15.5 -37.5t-15 -37t-37 -15q-21 0 -37 15t-16 37t15.5 37.5t37.5 15.5zM428 178q21 0 36.5 -15.5
t15.5 -37.5t-15 -37t-37 -15q-21 0 -37 15t-16 37t15.5 37.5t37.5 15.5zM53 553q21 0 36.5 -15.5t15.5 -37.5t-15 -37t-37 -15q-21 0 -37 15t-16 37t15.5 37.5t37.5 15.5zM53 428q21 0 36.5 -15.5t15.5 -37.5t-15 -37t-37 -15q-21 0 -37 15t-16 37t15.5 37.5t37.5 15.5z
M51 303q22 0 37.5 -15.5t15.5 -37.5t-15 -37t-38 -15q-21 0 -36.5 15.5t-15.5 36.5q0 22 15.5 37.5t36.5 15.5zM53 178q21 0 36.5 -15.5t15.5 -37.5t-15 -37t-37 -15q-21 0 -37 15t-16 37t15.5 37.5t37.5 15.5zM553 53q21 0 36.5 -15.5t15.5 -37.5t-15.5 -37.5t-36.5 -15.5
q-22 0 -37.5 15.5t-15.5 37.5t15.5 37.5t37.5 15.5zM553 553q21 0 36.5 -15.5t15.5 -37.5t-15 -37t-37 -15q-21 0 -37 15t-16 37t15.5 37.5t37.5 15.5zM553 428q21 0 36.5 -15.5t15.5 -37.5t-15 -37t-37 -15q-21 0 -37 15t-16 37t15.5 37.5t37.5 15.5zM551 303
q22 0 37.5 -15.5t15.5 -37.5t-15 -37t-38 -15q-21 0 -36.5 15.5t-15.5 36.5q0 22 15.5 37.5t36.5 15.5zM553 178q21 0 36.5 -15.5t15.5 -37.5t-15 -37t-37 -15q-21 0 -37 15t-16 37t15.5 37.5t37.5 15.5zM303 303q21 0 36.5 -15.5t15.5 -37.5t-15 -37t-37 -15q-21 0 -37 15
t-16 37t15.5 37.5t37.5 15.5zM365 678q22 0 37.5 -15.5t15.5 -37.5t-15 -37t-38 -15q-22 0 -37 15t-15 37q0 21 15 37t37 16z" />
    <glyph glyph-name="Odieresis" unicode="&#xd6;" 
d="M428 803q21 0 36.5 -15.5t15.5 -37.5t-15 -37t-37 -15q-21 0 -37 15t-16 37t15.5 37.5t37.5 15.5zM553 553q21 0 36.5 -15.5t15.5 -37.5t-15 -37t-37 -15q-21 0 -37 15t-16 37t15.5 37.5t37.5 15.5zM303 678q21 0 36.5 -15.5t15.5 -37.5t-15 -37t-37 -15q-21 0 -37 15
t-16 37t15.5 37.5t37.5 15.5zM553 428q21 0 36.5 -15.5t15.5 -37.5t-15 -37t-37 -15q-21 0 -37 15t-16 37t15.5 37.5t37.5 15.5zM551 303q22 0 37.5 -15.5t15.5 -37.5t-15 -37t-38 -15q-21 0 -36.5 15.5t-15.5 36.5q0 22 15.5 37.5t36.5 15.5zM553 178q21 0 36.5 -15.5
t15.5 -37.5t-15 -37t-37 -15q-21 0 -37 15t-16 37t15.5 37.5t37.5 15.5zM303 53q21 0 36.5 -15.5t15.5 -37.5t-15.5 -37.5t-36.5 -15.5q-22 0 -37.5 15.5t-15.5 37.5t15.5 37.5t37.5 15.5zM178 53q21 0 36.5 -15.5t15.5 -37.5t-15.5 -37.5t-36.5 -15.5q-22 0 -37.5 15.5
t-15.5 37.5t15.5 37.5t37.5 15.5zM178 678q21 0 36.5 -15.5t15.5 -37.5t-15 -37t-37 -15q-21 0 -37 15t-16 37t15.5 37.5t37.5 15.5zM428 53q21 0 36.5 -15.5t15.5 -37.5t-15.5 -37.5t-36.5 -15.5q-22 0 -37.5 15.5t-15.5 37.5t15.5 37.5t37.5 15.5zM428 678
q21 0 36.5 -15.5t15.5 -37.5t-15 -37t-37 -15q-21 0 -37 15t-16 37t15.5 37.5t37.5 15.5zM178 803q21 0 36.5 -15.5t15.5 -37.5t-15 -37t-37 -15q-21 0 -37 15t-16 37t15.5 37.5t37.5 15.5zM53 553q21 0 36.5 -15.5t15.5 -37.5t-15 -37t-37 -15q-21 0 -37 15t-16 37
t15.5 37.5t37.5 15.5zM53 428q21 0 36.5 -15.5t15.5 -37.5t-15 -37t-37 -15q-21 0 -37 15t-16 37t15.5 37.5t37.5 15.5zM51 303q22 0 37.5 -15.5t15.5 -37.5t-15 -37t-38 -15q-21 0 -36.5 15.5t-15.5 36.5q0 22 15.5 37.5t36.5 15.5zM53 178q21 0 36.5 -15.5t15.5 -37.5
t-15 -37t-37 -15q-21 0 -37 15t-16 37t15.5 37.5t37.5 15.5z" />
    <glyph glyph-name="Udieresis" unicode="&#xdc;" 
d="M553 553q21 0 36.5 -15.5t15.5 -37.5t-15 -37t-37 -15q-21 0 -37 15t-16 37t15.5 37.5t37.5 15.5zM553 428q21 0 36.5 -15.5t15.5 -37.5t-15 -37t-37 -15q-21 0 -37 15t-16 37t15.5 37.5t37.5 15.5zM551 303q22 0 37.5 -15.5t15.5 -37.5t-15 -37t-38 -15
q-21 0 -36.5 15.5t-15.5 36.5q0 22 15.5 37.5t36.5 15.5zM553 178q21 0 36.5 -15.5t15.5 -37.5t-15 -37t-37 -15q-21 0 -37 15t-16 37t15.5 37.5t37.5 15.5zM303 53q21 0 36.5 -15.5t15.5 -37.5t-15.5 -37.5t-36.5 -15.5q-22 0 -37.5 15.5t-15.5 37.5t15.5 37.5t37.5 15.5z
M178 53q21 0 36.5 -15.5t15.5 -37.5t-15.5 -37.5t-36.5 -15.5q-22 0 -37.5 15.5t-15.5 37.5t15.5 37.5t37.5 15.5zM178 803q21 0 36.5 -15.5t15.5 -37.5t-15 -37t-37 -15q-21 0 -37 15t-16 37t15.5 37.5t37.5 15.5zM428 53q21 0 36.5 -15.5t15.5 -37.5t-15.5 -37.5
t-36.5 -15.5q-22 0 -37.5 15.5t-15.5 37.5t15.5 37.5t37.5 15.5zM428 803q21 0 36.5 -15.5t15.5 -37.5t-15 -37t-37 -15q-21 0 -37 15t-16 37t15.5 37.5t37.5 15.5zM53 678q21 0 36.5 -15.5t15.5 -37.5t-15 -37t-37 -15q-21 0 -37 15t-16 37t15.5 37.5t37.5 15.5zM53 553
q21 0 36.5 -15.5t15.5 -37.5t-15 -37t-37 -15q-21 0 -37 15t-16 37t15.5 37.5t37.5 15.5zM53 428q21 0 36.5 -15.5t15.5 -37.5t-15 -37t-37 -15q-21 0 -37 15t-16 37t15.5 37.5t37.5 15.5zM51 303q22 0 37.5 -15.5t15.5 -37.5t-15 -37t-38 -15q-21 0 -36.5 15.5t-15.5 36.5
q0 22 15.5 37.5t36.5 15.5zM53 178q21 0 36.5 -15.5t15.5 -37.5t-15 -37t-37 -15q-21 0 -37 15t-16 37t15.5 37.5t37.5 15.5zM553 678q21 0 36.5 -15.5t15.5 -37.5t-15 -37t-37 -15q-21 0 -37 15t-16 37t15.5 37.5t37.5 15.5z" />
    <glyph glyph-name="aacute" unicode="&#xe1;" 
d="M303 553q21 0 36.5 -15.5t15.5 -37.5t-15 -37t-37 -15q-21 0 -37 15t-16 37t15.5 37.5t37.5 15.5zM303 178q21 0 36.5 -15.5t15.5 -37.5t-15 -37t-37 -15q-21 0 -37 15t-16 37t15.5 37.5t37.5 15.5zM178 53q21 0 36.5 -15.5t15.5 -37.5t-15.5 -37.5t-36.5 -15.5
q-22 0 -37.5 15.5t-15.5 37.5t15.5 37.5t37.5 15.5zM178 553q21 0 36.5 -15.5t15.5 -37.5t-15 -37t-37 -15q-21 0 -37 15t-16 37t15.5 37.5t37.5 15.5zM428 53q21 0 36.5 -15.5t15.5 -37.5t-15.5 -37.5t-36.5 -15.5q-22 0 -37.5 15.5t-15.5 37.5t15.5 37.5t37.5 15.5z
M426 303q22 0 37.5 -15.5t15.5 -37.5t-15 -37t-38 -15q-21 0 -36.5 15.5t-15.5 36.5q0 22 15.5 37.5t36.5 15.5zM428 178q21 0 36.5 -15.5t15.5 -37.5t-15 -37t-37 -15q-21 0 -37 15t-16 37t15.5 37.5t37.5 15.5zM53 428q21 0 36.5 -15.5t15.5 -37.5t-15 -37t-37 -15
q-21 0 -37 15t-16 37t15.5 37.5t37.5 15.5zM51 303q22 0 37.5 -15.5t15.5 -37.5t-15 -37t-38 -15q-21 0 -36.5 15.5t-15.5 36.5q0 22 15.5 37.5t36.5 15.5zM53 178q21 0 36.5 -15.5t15.5 -37.5t-15 -37t-37 -15q-21 0 -37 15t-16 37t15.5 37.5t37.5 15.5zM428 553
q21 0 36.5 -15.5t15.5 -37.5t-15 -37t-37 -15q-21 0 -37 15t-16 37t15.5 37.5t37.5 15.5zM428 428q21 0 36.5 -15.5t15.5 -37.5t-15 -37t-37 -15q-21 0 -37 15t-16 37t15.5 37.5t37.5 15.5zM240 678q22 0 37.5 -15.5t15.5 -37.5t-15 -37t-38 -15q-22 0 -37 15t-15 37
q0 21 15 37t37 16zM303 803q21 0 36.5 -15.5t15.5 -37.5t-15 -37t-37 -15q-21 0 -37 15t-16 37t15.5 37.5t37.5 15.5z" />
    <glyph glyph-name="agrave" unicode="&#xe0;" 
d="M303 553q21 0 36.5 -15.5t15.5 -37.5t-15 -37t-37 -15q-21 0 -37 15t-16 37t15.5 37.5t37.5 15.5zM303 178q21 0 36.5 -15.5t15.5 -37.5t-15 -37t-37 -15q-21 0 -37 15t-16 37t15.5 37.5t37.5 15.5zM178 53q21 0 36.5 -15.5t15.5 -37.5t-15.5 -37.5t-36.5 -15.5
q-22 0 -37.5 15.5t-15.5 37.5t15.5 37.5t37.5 15.5zM178 553q21 0 36.5 -15.5t15.5 -37.5t-15 -37t-37 -15q-21 0 -37 15t-16 37t15.5 37.5t37.5 15.5zM428 53q21 0 36.5 -15.5t15.5 -37.5t-15.5 -37.5t-36.5 -15.5q-22 0 -37.5 15.5t-15.5 37.5t15.5 37.5t37.5 15.5z
M426 303q22 0 37.5 -15.5t15.5 -37.5t-15 -37t-38 -15q-21 0 -36.5 15.5t-15.5 36.5q0 22 15.5 37.5t36.5 15.5zM428 178q21 0 36.5 -15.5t15.5 -37.5t-15 -37t-37 -15q-21 0 -37 15t-16 37t15.5 37.5t37.5 15.5zM53 428q21 0 36.5 -15.5t15.5 -37.5t-15 -37t-37 -15
q-21 0 -37 15t-16 37t15.5 37.5t37.5 15.5zM51 303q22 0 37.5 -15.5t15.5 -37.5t-15 -37t-38 -15q-21 0 -36.5 15.5t-15.5 36.5q0 22 15.5 37.5t36.5 15.5zM53 178q21 0 36.5 -15.5t15.5 -37.5t-15 -37t-37 -15q-21 0 -37 15t-16 37t15.5 37.5t37.5 15.5zM428 553
q21 0 36.5 -15.5t15.5 -37.5t-15 -37t-37 -15q-21 0 -37 15t-16 37t15.5 37.5t37.5 15.5zM428 428q21 0 36.5 -15.5t15.5 -37.5t-15 -37t-37 -15q-21 0 -37 15t-16 37t15.5 37.5t37.5 15.5zM303 678q21 0 36.5 -15.5t15.5 -37.5t-15 -37t-37 -15q-21 0 -37 15t-16 37
t15.5 37.5t37.5 15.5zM240 803q22 0 37.5 -15.5t15.5 -37.5t-15 -37t-38 -15q-22 0 -37 15t-15 37q0 21 15 37t37 16z" />
    <glyph glyph-name="acircumflex" unicode="&#xe2;" 
d="M303 553q21 0 36.5 -15.5t15.5 -37.5t-15 -37t-37 -15q-21 0 -37 15t-16 37t15.5 37.5t37.5 15.5zM303 178q21 0 36.5 -15.5t15.5 -37.5t-15 -37t-37 -15q-21 0 -37 15t-16 37t15.5 37.5t37.5 15.5zM178 53q21 0 36.5 -15.5t15.5 -37.5t-15.5 -37.5t-36.5 -15.5
q-22 0 -37.5 15.5t-15.5 37.5t15.5 37.5t37.5 15.5zM178 553q21 0 36.5 -15.5t15.5 -37.5t-15 -37t-37 -15q-21 0 -37 15t-16 37t15.5 37.5t37.5 15.5zM428 53q21 0 36.5 -15.5t15.5 -37.5t-15.5 -37.5t-36.5 -15.5q-22 0 -37.5 15.5t-15.5 37.5t15.5 37.5t37.5 15.5z
M426 303q22 0 37.5 -15.5t15.5 -37.5t-15 -37t-38 -15q-21 0 -36.5 15.5t-15.5 36.5q0 22 15.5 37.5t36.5 15.5zM428 178q21 0 36.5 -15.5t15.5 -37.5t-15 -37t-37 -15q-21 0 -37 15t-16 37t15.5 37.5t37.5 15.5zM53 428q21 0 36.5 -15.5t15.5 -37.5t-15 -37t-37 -15
q-21 0 -37 15t-16 37t15.5 37.5t37.5 15.5zM51 303q22 0 37.5 -15.5t15.5 -37.5t-15 -37t-38 -15q-21 0 -36.5 15.5t-15.5 36.5q0 22 15.5 37.5t36.5 15.5zM53 178q21 0 36.5 -15.5t15.5 -37.5t-15 -37t-37 -15q-21 0 -37 15t-16 37t15.5 37.5t37.5 15.5zM428 553
q21 0 36.5 -15.5t15.5 -37.5t-15 -37t-37 -15q-21 0 -37 15t-16 37t15.5 37.5t37.5 15.5zM428 428q21 0 36.5 -15.5t15.5 -37.5t-15 -37t-37 -15q-21 0 -37 15t-16 37t15.5 37.5t37.5 15.5zM240 678q22 0 37.5 -15.5t15.5 -37.5t-15 -37t-38 -15q-22 0 -37 15t-15 37
q0 21 15 37t37 16zM303 803q21 0 36.5 -15.5t15.5 -37.5t-15 -37t-37 -15q-21 0 -37 15t-16 37t15.5 37.5t37.5 15.5zM365 678q22 0 37.5 -15.5t15.5 -37.5t-15 -37t-38 -15q-22 0 -37 15t-15 37q0 21 15 37t37 16z" />
    <glyph glyph-name="adieresis" unicode="&#xe4;" 
d="M303 553q21 0 36.5 -15.5t15.5 -37.5t-15 -37t-37 -15q-21 0 -37 15t-16 37t15.5 37.5t37.5 15.5zM303 178q21 0 36.5 -15.5t15.5 -37.5t-15 -37t-37 -15q-21 0 -37 15t-16 37t15.5 37.5t37.5 15.5zM178 53q21 0 36.5 -15.5t15.5 -37.5t-15.5 -37.5t-36.5 -15.5
q-22 0 -37.5 15.5t-15.5 37.5t15.5 37.5t37.5 15.5zM178 553q21 0 36.5 -15.5t15.5 -37.5t-15 -37t-37 -15q-21 0 -37 15t-16 37t15.5 37.5t37.5 15.5zM428 53q21 0 36.5 -15.5t15.5 -37.5t-15.5 -37.5t-36.5 -15.5q-22 0 -37.5 15.5t-15.5 37.5t15.5 37.5t37.5 15.5z
M426 303q22 0 37.5 -15.5t15.5 -37.5t-15 -37t-38 -15q-21 0 -36.5 15.5t-15.5 36.5q0 22 15.5 37.5t36.5 15.5zM428 178q21 0 36.5 -15.5t15.5 -37.5t-15 -37t-37 -15q-21 0 -37 15t-16 37t15.5 37.5t37.5 15.5zM53 428q21 0 36.5 -15.5t15.5 -37.5t-15 -37t-37 -15
q-21 0 -37 15t-16 37t15.5 37.5t37.5 15.5zM51 303q22 0 37.5 -15.5t15.5 -37.5t-15 -37t-38 -15q-21 0 -36.5 15.5t-15.5 36.5q0 22 15.5 37.5t36.5 15.5zM53 178q21 0 36.5 -15.5t15.5 -37.5t-15 -37t-37 -15q-21 0 -37 15t-16 37t15.5 37.5t37.5 15.5zM428 553
q21 0 36.5 -15.5t15.5 -37.5t-15 -37t-37 -15q-21 0 -37 15t-16 37t15.5 37.5t37.5 15.5zM428 428q21 0 36.5 -15.5t15.5 -37.5t-15 -37t-37 -15q-21 0 -37 15t-16 37t15.5 37.5t37.5 15.5zM178 803q21 0 36.5 -15.5t15.5 -37.5t-15 -37t-37 -15q-21 0 -37 15t-16 37
t15.5 37.5t37.5 15.5zM428 803q21 0 36.5 -15.5t15.5 -37.5t-15 -37t-37 -15q-21 0 -37 15t-16 37t15.5 37.5t37.5 15.5z" />
    <glyph glyph-name="atilde" unicode="&#xe3;" 
d="M303 553q21 0 36.5 -15.5t15.5 -37.5t-15 -37t-37 -15q-21 0 -37 15t-16 37t15.5 37.5t37.5 15.5zM303 178q21 0 36.5 -15.5t15.5 -37.5t-15 -37t-37 -15q-21 0 -37 15t-16 37t15.5 37.5t37.5 15.5zM178 53q21 0 36.5 -15.5t15.5 -37.5t-15.5 -37.5t-36.5 -15.5
q-22 0 -37.5 15.5t-15.5 37.5t15.5 37.5t37.5 15.5zM178 553q21 0 36.5 -15.5t15.5 -37.5t-15 -37t-37 -15q-21 0 -37 15t-16 37t15.5 37.5t37.5 15.5zM428 53q21 0 36.5 -15.5t15.5 -37.5t-15.5 -37.5t-36.5 -15.5q-22 0 -37.5 15.5t-15.5 37.5t15.5 37.5t37.5 15.5z
M426 303q22 0 37.5 -15.5t15.5 -37.5t-15 -37t-38 -15q-21 0 -36.5 15.5t-15.5 36.5q0 22 15.5 37.5t36.5 15.5zM428 178q21 0 36.5 -15.5t15.5 -37.5t-15 -37t-37 -15q-21 0 -37 15t-16 37t15.5 37.5t37.5 15.5zM53 428q21 0 36.5 -15.5t15.5 -37.5t-15 -37t-37 -15
q-21 0 -37 15t-16 37t15.5 37.5t37.5 15.5zM51 303q22 0 37.5 -15.5t15.5 -37.5t-15 -37t-38 -15q-21 0 -36.5 15.5t-15.5 36.5q0 22 15.5 37.5t36.5 15.5zM53 178q21 0 36.5 -15.5t15.5 -37.5t-15 -37t-37 -15q-21 0 -37 15t-16 37t15.5 37.5t37.5 15.5zM428 553
q21 0 36.5 -15.5t15.5 -37.5t-15 -37t-37 -15q-21 0 -37 15t-16 37t15.5 37.5t37.5 15.5zM428 428q21 0 36.5 -15.5t15.5 -37.5t-15 -37t-37 -15q-21 0 -37 15t-16 37t15.5 37.5t37.5 15.5zM178 803q21 0 36.5 -15.5t15.5 -37.5t-15 -37t-37 -15q-21 0 -37 15t-16 37
t15.5 37.5t37.5 15.5zM428 803q21 0 36.5 -15.5t15.5 -37.5t-15 -37t-37 -15q-21 0 -37 15t-16 37t15.5 37.5t37.5 15.5zM53 678q21 0 36.5 -15.5t15.5 -37.5t-15 -37t-37 -15q-21 0 -37 15t-16 37t15.5 37.5t37.5 15.5zM303 678q21 0 36.5 -15.5t15.5 -37.5t-15 -37
t-37 -15q-21 0 -37 15t-16 37t15.5 37.5t37.5 15.5z" />
    <glyph glyph-name="aring" unicode="&#xe5;" 
d="M303 428q21 0 36.5 -15.5t15.5 -37.5t-15 -37t-37 -15q-21 0 -37 15t-16 37t15.5 37.5t37.5 15.5zM303 178q21 0 36.5 -15.5t15.5 -37.5t-15 -37t-37 -15q-21 0 -37 15t-16 37t15.5 37.5t37.5 15.5zM178 53q21 0 36.5 -15.5t15.5 -37.5t-15.5 -37.5t-36.5 -15.5
q-22 0 -37.5 15.5t-15.5 37.5t15.5 37.5t37.5 15.5zM178 428q21 0 36.5 -15.5t15.5 -37.5t-15 -37t-37 -15q-21 0 -37 15t-16 37t15.5 37.5t37.5 15.5zM428 53q21 0 36.5 -15.5t15.5 -37.5t-15.5 -37.5t-36.5 -15.5q-22 0 -37.5 15.5t-15.5 37.5t15.5 37.5t37.5 15.5z
M426 303q22 0 37.5 -15.5t15.5 -37.5t-15 -37t-38 -15q-21 0 -36.5 15.5t-15.5 36.5q0 22 15.5 37.5t36.5 15.5zM428 178q21 0 36.5 -15.5t15.5 -37.5t-15 -37t-37 -15q-21 0 -37 15t-16 37t15.5 37.5t37.5 15.5zM53 428q21 0 36.5 -15.5t15.5 -37.5t-15 -37t-37 -15
q-21 0 -37 15t-16 37t15.5 37.5t37.5 15.5zM51 303q22 0 37.5 -15.5t15.5 -37.5t-15 -37t-38 -15q-21 0 -36.5 15.5t-15.5 36.5q0 22 15.5 37.5t36.5 15.5zM53 178q21 0 36.5 -15.5t15.5 -37.5t-15 -37t-37 -15q-21 0 -37 15t-16 37t15.5 37.5t37.5 15.5zM240 553
q22 0 37.5 -15.5t15.5 -37.5t-15 -37t-38 -15q-22 0 -37 15t-15 37q0 21 15 37t37 16zM428 428q21 0 36.5 -15.5t15.5 -37.5t-15 -37t-37 -15q-21 0 -37 15t-16 37t15.5 37.5t37.5 15.5zM240 803q22 0 37.5 -15.5t15.5 -37.5t-15 -37t-38 -15q-22 0 -37 15t-15 37
q0 21 15 37t37 16zM115 678q22 0 37.5 -15.5t15.5 -37.5t-15 -37t-38 -15q-22 0 -37 15t-15 37q0 21 15 37t37 16zM365 678q22 0 37.5 -15.5t15.5 -37.5t-15 -37t-38 -15q-22 0 -37 15t-15 37q0 21 15 37t37 16z" />
    <glyph glyph-name="ccedilla" unicode="&#xe7;" 
d="M303 553q21 0 36.5 -15.5t15.5 -37.5t-15 -37t-37 -15q-21 0 -37 15t-16 37t15.5 37.5t37.5 15.5zM303 53q21 0 36.5 -15.5t15.5 -37.5t-15.5 -37.5t-36.5 -15.5q-22 0 -37.5 15.5t-15.5 37.5t15.5 37.5t37.5 15.5zM178 53q21 0 36.5 -15.5t15.5 -37.5t-15.5 -37.5
t-36.5 -15.5q-22 0 -37.5 15.5t-15.5 37.5t15.5 37.5t37.5 15.5zM178 553q21 0 36.5 -15.5t15.5 -37.5t-15 -37t-37 -15q-21 0 -37 15t-16 37t15.5 37.5t37.5 15.5zM428 53q21 0 36.5 -15.5t15.5 -37.5t-15.5 -37.5t-36.5 -15.5q-22 0 -37.5 15.5t-15.5 37.5t15.5 37.5
t37.5 15.5zM428 553q21 0 36.5 -15.5t15.5 -37.5t-15 -37t-37 -15q-21 0 -37 15t-16 37t15.5 37.5t37.5 15.5zM53 428q21 0 36.5 -15.5t15.5 -37.5t-15 -37t-37 -15q-21 0 -37 15t-16 37t15.5 37.5t37.5 15.5zM51 303q22 0 37.5 -15.5t15.5 -37.5t-15 -37t-38 -15
q-21 0 -36.5 15.5t-15.5 36.5q0 22 15.5 37.5t36.5 15.5zM53 178q21 0 36.5 -15.5t15.5 -37.5t-15 -37t-37 -15q-21 0 -37 15t-16 37t15.5 37.5t37.5 15.5zM303 -73q21 0 36.5 -15.5t15.5 -36.5q0 -22 -15.5 -37.5t-36.5 -15.5q-22 0 -37.5 15.5t-15.5 37.5t15 37t38 15z
M240 -198q21 0 37 -15t16 -37t-15.5 -37.5t-37.5 -15.5t-37 15t-15 38q0 22 15 37t37 15z" />
    <glyph glyph-name="eacute" unicode="&#xe9;" 
d="M303 303q21 0 36.5 -15.5t15.5 -37.5t-15 -37t-37 -15q-21 0 -37 15t-16 37t15.5 37.5t37.5 15.5zM303 53q21 0 36.5 -15.5t15.5 -37.5t-15.5 -37.5t-36.5 -15.5q-22 0 -37.5 15.5t-15.5 37.5t15.5 37.5t37.5 15.5zM178 53q21 0 36.5 -15.5t15.5 -37.5t-15.5 -37.5
t-36.5 -15.5q-22 0 -37.5 15.5t-15.5 37.5t15.5 37.5t37.5 15.5zM178 303q21 0 36.5 -15.5t15.5 -37.5t-15 -37t-37 -15q-21 0 -37 15t-16 37t15.5 37.5t37.5 15.5zM428 53q21 0 36.5 -15.5t15.5 -37.5t-15.5 -37.5t-36.5 -15.5q-22 0 -37.5 15.5t-15.5 37.5t15.5 37.5
t37.5 15.5zM428 303q21 0 36.5 -15.5t15.5 -37.5t-15 -37t-37 -15q-21 0 -37 15t-16 37t15.5 37.5t37.5 15.5zM554 428q22 0 37 -15t15 -38q0 -22 -15 -37t-37 -15q-21 0 -37 15t-16 37t15.5 37.5t37.5 15.5zM553 303q21 0 36.5 -15.5t15.5 -37.5t-15 -37t-37 -15
q-21 0 -37 15t-16 37t15.5 37.5t37.5 15.5zM53 428q21 0 36.5 -15.5t15.5 -37.5t-15 -37t-37 -15q-21 0 -37 15t-16 37t15.5 37.5t37.5 15.5zM51 303q22 0 37.5 -15.5t15.5 -37.5t-15 -37t-38 -15q-21 0 -36.5 15.5t-15.5 36.5q0 22 15.5 37.5t36.5 15.5zM53 178
q21 0 36.5 -15.5t15.5 -37.5t-15 -37t-37 -15q-21 0 -37 15t-16 37t15.5 37.5t37.5 15.5zM303 553q21 0 36.5 -15.5t15.5 -37.5t-15 -37t-37 -15q-21 0 -37 15t-16 37t15.5 37.5t37.5 15.5zM178 553q21 0 36.5 -15.5t15.5 -37.5t-15 -37t-37 -15q-21 0 -37 15t-16 37
t15.5 37.5t37.5 15.5zM428 553q21 0 36.5 -15.5t15.5 -37.5t-15 -37t-37 -15q-21 0 -37 15t-16 37t15.5 37.5t37.5 15.5zM240 678q22 0 37.5 -15.5t15.5 -37.5t-15 -37t-38 -15q-22 0 -37 15t-15 37q0 21 15 37t37 16zM303 803q21 0 36.5 -15.5t15.5 -37.5t-15 -37t-37 -15
q-21 0 -37 15t-16 37t15.5 37.5t37.5 15.5z" />
    <glyph glyph-name="egrave" unicode="&#xe8;" 
d="M303 303q21 0 36.5 -15.5t15.5 -37.5t-15 -37t-37 -15q-21 0 -37 15t-16 37t15.5 37.5t37.5 15.5zM303 53q21 0 36.5 -15.5t15.5 -37.5t-15.5 -37.5t-36.5 -15.5q-22 0 -37.5 15.5t-15.5 37.5t15.5 37.5t37.5 15.5zM178 53q21 0 36.5 -15.5t15.5 -37.5t-15.5 -37.5
t-36.5 -15.5q-22 0 -37.5 15.5t-15.5 37.5t15.5 37.5t37.5 15.5zM178 303q21 0 36.5 -15.5t15.5 -37.5t-15 -37t-37 -15q-21 0 -37 15t-16 37t15.5 37.5t37.5 15.5zM428 53q21 0 36.5 -15.5t15.5 -37.5t-15.5 -37.5t-36.5 -15.5q-22 0 -37.5 15.5t-15.5 37.5t15.5 37.5
t37.5 15.5zM428 303q21 0 36.5 -15.5t15.5 -37.5t-15 -37t-37 -15q-21 0 -37 15t-16 37t15.5 37.5t37.5 15.5zM554 428q22 0 37 -15t15 -38q0 -22 -15 -37t-37 -15q-21 0 -37 15t-16 37t15.5 37.5t37.5 15.5zM553 303q21 0 36.5 -15.5t15.5 -37.5t-15 -37t-37 -15
q-21 0 -37 15t-16 37t15.5 37.5t37.5 15.5zM53 428q21 0 36.5 -15.5t15.5 -37.5t-15 -37t-37 -15q-21 0 -37 15t-16 37t15.5 37.5t37.5 15.5zM51 303q22 0 37.5 -15.5t15.5 -37.5t-15 -37t-38 -15q-21 0 -36.5 15.5t-15.5 36.5q0 22 15.5 37.5t36.5 15.5zM53 178
q21 0 36.5 -15.5t15.5 -37.5t-15 -37t-37 -15q-21 0 -37 15t-16 37t15.5 37.5t37.5 15.5zM303 553q21 0 36.5 -15.5t15.5 -37.5t-15 -37t-37 -15q-21 0 -37 15t-16 37t15.5 37.5t37.5 15.5zM178 553q21 0 36.5 -15.5t15.5 -37.5t-15 -37t-37 -15q-21 0 -37 15t-16 37
t15.5 37.5t37.5 15.5zM428 553q21 0 36.5 -15.5t15.5 -37.5t-15 -37t-37 -15q-21 0 -37 15t-16 37t15.5 37.5t37.5 15.5zM303 678q21 0 36.5 -15.5t15.5 -37.5t-15 -37t-37 -15q-21 0 -37 15t-16 37t15.5 37.5t37.5 15.5zM240 803q22 0 37.5 -15.5t15.5 -37.5t-15 -37
t-38 -15q-22 0 -37 15t-15 37q0 21 15 37t37 16z" />
    <glyph glyph-name="ecircumflex" unicode="&#xea;" 
d="M303 303q21 0 36.5 -15.5t15.5 -37.5t-15 -37t-37 -15q-21 0 -37 15t-16 37t15.5 37.5t37.5 15.5zM303 53q21 0 36.5 -15.5t15.5 -37.5t-15.5 -37.5t-36.5 -15.5q-22 0 -37.5 15.5t-15.5 37.5t15.5 37.5t37.5 15.5zM178 53q21 0 36.5 -15.5t15.5 -37.5t-15.5 -37.5
t-36.5 -15.5q-22 0 -37.5 15.5t-15.5 37.5t15.5 37.5t37.5 15.5zM178 303q21 0 36.5 -15.5t15.5 -37.5t-15 -37t-37 -15q-21 0 -37 15t-16 37t15.5 37.5t37.5 15.5zM428 53q21 0 36.5 -15.5t15.5 -37.5t-15.5 -37.5t-36.5 -15.5q-22 0 -37.5 15.5t-15.5 37.5t15.5 37.5
t37.5 15.5zM428 303q21 0 36.5 -15.5t15.5 -37.5t-15 -37t-37 -15q-21 0 -37 15t-16 37t15.5 37.5t37.5 15.5zM554 428q22 0 37 -15t15 -38q0 -22 -15 -37t-37 -15q-21 0 -37 15t-16 37t15.5 37.5t37.5 15.5zM553 303q21 0 36.5 -15.5t15.5 -37.5t-15 -37t-37 -15
q-21 0 -37 15t-16 37t15.5 37.5t37.5 15.5zM53 428q21 0 36.5 -15.5t15.5 -37.5t-15 -37t-37 -15q-21 0 -37 15t-16 37t15.5 37.5t37.5 15.5zM51 303q22 0 37.5 -15.5t15.5 -37.5t-15 -37t-38 -15q-21 0 -36.5 15.5t-15.5 36.5q0 22 15.5 37.5t36.5 15.5zM53 178
q21 0 36.5 -15.5t15.5 -37.5t-15 -37t-37 -15q-21 0 -37 15t-16 37t15.5 37.5t37.5 15.5zM303 553q21 0 36.5 -15.5t15.5 -37.5t-15 -37t-37 -15q-21 0 -37 15t-16 37t15.5 37.5t37.5 15.5zM178 553q21 0 36.5 -15.5t15.5 -37.5t-15 -37t-37 -15q-21 0 -37 15t-16 37
t15.5 37.5t37.5 15.5zM428 553q21 0 36.5 -15.5t15.5 -37.5t-15 -37t-37 -15q-21 0 -37 15t-16 37t15.5 37.5t37.5 15.5zM240 678q22 0 37.5 -15.5t15.5 -37.5t-15 -37t-38 -15q-22 0 -37 15t-15 37q0 21 15 37t37 16zM303 803q21 0 36.5 -15.5t15.5 -37.5t-15 -37t-37 -15
q-21 0 -37 15t-16 37t15.5 37.5t37.5 15.5zM365 678q22 0 37.5 -15.5t15.5 -37.5t-15 -37t-38 -15q-22 0 -37 15t-15 37q0 21 15 37t37 16z" />
    <glyph glyph-name="edieresis" unicode="&#xeb;" 
d="M303 303q21 0 36.5 -15.5t15.5 -37.5t-15 -37t-37 -15q-21 0 -37 15t-16 37t15.5 37.5t37.5 15.5zM303 53q21 0 36.5 -15.5t15.5 -37.5t-15.5 -37.5t-36.5 -15.5q-22 0 -37.5 15.5t-15.5 37.5t15.5 37.5t37.5 15.5zM178 53q21 0 36.5 -15.5t15.5 -37.5t-15.5 -37.5
t-36.5 -15.5q-22 0 -37.5 15.5t-15.5 37.5t15.5 37.5t37.5 15.5zM178 303q21 0 36.5 -15.5t15.5 -37.5t-15 -37t-37 -15q-21 0 -37 15t-16 37t15.5 37.5t37.5 15.5zM428 53q21 0 36.5 -15.5t15.5 -37.5t-15.5 -37.5t-36.5 -15.5q-22 0 -37.5 15.5t-15.5 37.5t15.5 37.5
t37.5 15.5zM428 303q21 0 36.5 -15.5t15.5 -37.5t-15 -37t-37 -15q-21 0 -37 15t-16 37t15.5 37.5t37.5 15.5zM554 428q22 0 37 -15t15 -38q0 -22 -15 -37t-37 -15q-21 0 -37 15t-16 37t15.5 37.5t37.5 15.5zM553 303q21 0 36.5 -15.5t15.5 -37.5t-15 -37t-37 -15
q-21 0 -37 15t-16 37t15.5 37.5t37.5 15.5zM53 428q21 0 36.5 -15.5t15.5 -37.5t-15 -37t-37 -15q-21 0 -37 15t-16 37t15.5 37.5t37.5 15.5zM51 303q22 0 37.5 -15.5t15.5 -37.5t-15 -37t-38 -15q-21 0 -36.5 15.5t-15.5 36.5q0 22 15.5 37.5t36.5 15.5zM53 178
q21 0 36.5 -15.5t15.5 -37.5t-15 -37t-37 -15q-21 0 -37 15t-16 37t15.5 37.5t37.5 15.5zM303 553q21 0 36.5 -15.5t15.5 -37.5t-15 -37t-37 -15q-21 0 -37 15t-16 37t15.5 37.5t37.5 15.5zM178 553q21 0 36.5 -15.5t15.5 -37.5t-15 -37t-37 -15q-21 0 -37 15t-16 37
t15.5 37.5t37.5 15.5zM428 553q21 0 36.5 -15.5t15.5 -37.5t-15 -37t-37 -15q-21 0 -37 15t-16 37t15.5 37.5t37.5 15.5zM178 803q21 0 36.5 -15.5t15.5 -37.5t-15 -37t-37 -15q-21 0 -37 15t-16 37t15.5 37.5t37.5 15.5zM428 803q21 0 36.5 -15.5t15.5 -37.5t-15 -37
t-37 -15q-21 0 -37 15t-16 37t15.5 37.5t37.5 15.5z" />
    <glyph glyph-name="iacute" unicode="&#xed;" 
d="M303 53q21 0 36.5 -15.5t15.5 -37.5t-15.5 -37.5t-36.5 -15.5q-22 0 -37.5 15.5t-15.5 37.5t15.5 37.5t37.5 15.5zM178 53q21 0 36.5 -15.5t15.5 -37.5t-15.5 -37.5t-36.5 -15.5q-22 0 -37.5 15.5t-15.5 37.5t15.5 37.5t37.5 15.5zM428 53q21 0 36.5 -15.5t15.5 -37.5
t-15.5 -37.5t-36.5 -15.5q-22 0 -37.5 15.5t-15.5 37.5t15.5 37.5t37.5 15.5zM178 553q21 0 36.5 -15.5t15.5 -37.5t-15 -37t-37 -15q-21 0 -37 15t-16 37t15.5 37.5t37.5 15.5zM301 303q22 0 37.5 -15.5t15.5 -37.5t-15 -37t-38 -15q-21 0 -36.5 15.5t-15.5 36.5
q0 22 15.5 37.5t36.5 15.5zM303 178q21 0 36.5 -15.5t15.5 -37.5t-15 -37t-37 -15q-21 0 -37 15t-16 37t15.5 37.5t37.5 15.5zM303 553q21 0 36.5 -15.5t15.5 -37.5t-15 -37t-37 -15q-21 0 -37 15t-16 37t15.5 37.5t37.5 15.5zM303 428q21 0 36.5 -15.5t15.5 -37.5t-15 -37
t-37 -15q-21 0 -37 15t-16 37t15.5 37.5t37.5 15.5zM365 803q22 0 37.5 -15.5t15.5 -37.5t-15 -37t-38 -15q-22 0 -37 15t-15 37q0 21 15 37t37 16zM303 678q21 0 36.5 -15.5t15.5 -37.5t-15 -37t-37 -15q-21 0 -37 15t-16 37t15.5 37.5t37.5 15.5z" />
    <glyph glyph-name="igrave" unicode="&#xec;" 
d="M303 53q21 0 36.5 -15.5t15.5 -37.5t-15.5 -37.5t-36.5 -15.5q-22 0 -37.5 15.5t-15.5 37.5t15.5 37.5t37.5 15.5zM178 53q21 0 36.5 -15.5t15.5 -37.5t-15.5 -37.5t-36.5 -15.5q-22 0 -37.5 15.5t-15.5 37.5t15.5 37.5t37.5 15.5zM428 53q21 0 36.5 -15.5t15.5 -37.5
t-15.5 -37.5t-36.5 -15.5q-22 0 -37.5 15.5t-15.5 37.5t15.5 37.5t37.5 15.5zM178 553q21 0 36.5 -15.5t15.5 -37.5t-15 -37t-37 -15q-21 0 -37 15t-16 37t15.5 37.5t37.5 15.5zM301 303q22 0 37.5 -15.5t15.5 -37.5t-15 -37t-38 -15q-21 0 -36.5 15.5t-15.5 36.5
q0 22 15.5 37.5t36.5 15.5zM303 178q21 0 36.5 -15.5t15.5 -37.5t-15 -37t-37 -15q-21 0 -37 15t-16 37t15.5 37.5t37.5 15.5zM303 553q21 0 36.5 -15.5t15.5 -37.5t-15 -37t-37 -15q-21 0 -37 15t-16 37t15.5 37.5t37.5 15.5zM303 428q21 0 36.5 -15.5t15.5 -37.5t-15 -37
t-37 -15q-21 0 -37 15t-16 37t15.5 37.5t37.5 15.5zM240 803q22 0 37.5 -15.5t15.5 -37.5t-15 -37t-38 -15q-22 0 -37 15t-15 37q0 21 15 37t37 16zM303 678q21 0 36.5 -15.5t15.5 -37.5t-15 -37t-37 -15q-21 0 -37 15t-16 37t15.5 37.5t37.5 15.5z" />
    <glyph glyph-name="icircumflex" unicode="&#xee;" 
d="M303 53q21 0 36.5 -15.5t15.5 -37.5t-15.5 -37.5t-36.5 -15.5q-22 0 -37.5 15.5t-15.5 37.5t15.5 37.5t37.5 15.5zM178 53q21 0 36.5 -15.5t15.5 -37.5t-15.5 -37.5t-36.5 -15.5q-22 0 -37.5 15.5t-15.5 37.5t15.5 37.5t37.5 15.5zM428 53q21 0 36.5 -15.5t15.5 -37.5
t-15.5 -37.5t-36.5 -15.5q-22 0 -37.5 15.5t-15.5 37.5t15.5 37.5t37.5 15.5zM178 553q21 0 36.5 -15.5t15.5 -37.5t-15 -37t-37 -15q-21 0 -37 15t-16 37t15.5 37.5t37.5 15.5zM301 303q22 0 37.5 -15.5t15.5 -37.5t-15 -37t-38 -15q-21 0 -36.5 15.5t-15.5 36.5
q0 22 15.5 37.5t36.5 15.5zM303 178q21 0 36.5 -15.5t15.5 -37.5t-15 -37t-37 -15q-21 0 -37 15t-16 37t15.5 37.5t37.5 15.5zM303 553q21 0 36.5 -15.5t15.5 -37.5t-15 -37t-37 -15q-21 0 -37 15t-16 37t15.5 37.5t37.5 15.5zM303 428q21 0 36.5 -15.5t15.5 -37.5t-15 -37
t-37 -15q-21 0 -37 15t-16 37t15.5 37.5t37.5 15.5zM240 678q22 0 37.5 -15.5t15.5 -37.5t-15 -37t-38 -15q-22 0 -37 15t-15 37q0 21 15 37t37 16zM303 803q21 0 36.5 -15.5t15.5 -37.5t-15 -37t-37 -15q-21 0 -37 15t-16 37t15.5 37.5t37.5 15.5zM365 678q22 0 37.5 -15.5
t15.5 -37.5t-15 -37t-38 -15q-22 0 -37 15t-15 37q0 21 15 37t37 16z" />
    <glyph glyph-name="idieresis" unicode="&#xef;" 
d="M303 53q21 0 36.5 -15.5t15.5 -37.5t-15.5 -37.5t-36.5 -15.5q-22 0 -37.5 15.5t-15.5 37.5t15.5 37.5t37.5 15.5zM178 53q21 0 36.5 -15.5t15.5 -37.5t-15.5 -37.5t-36.5 -15.5q-22 0 -37.5 15.5t-15.5 37.5t15.5 37.5t37.5 15.5zM428 53q21 0 36.5 -15.5t15.5 -37.5
t-15.5 -37.5t-36.5 -15.5q-22 0 -37.5 15.5t-15.5 37.5t15.5 37.5t37.5 15.5zM178 553q21 0 36.5 -15.5t15.5 -37.5t-15 -37t-37 -15q-21 0 -37 15t-16 37t15.5 37.5t37.5 15.5zM301 303q22 0 37.5 -15.5t15.5 -37.5t-15 -37t-38 -15q-21 0 -36.5 15.5t-15.5 36.5
q0 22 15.5 37.5t36.5 15.5zM303 178q21 0 36.5 -15.5t15.5 -37.5t-15 -37t-37 -15q-21 0 -37 15t-16 37t15.5 37.5t37.5 15.5zM303 553q21 0 36.5 -15.5t15.5 -37.5t-15 -37t-37 -15q-21 0 -37 15t-16 37t15.5 37.5t37.5 15.5zM303 428q21 0 36.5 -15.5t15.5 -37.5t-15 -37
t-37 -15q-21 0 -37 15t-16 37t15.5 37.5t37.5 15.5zM178 803q21 0 36.5 -15.5t15.5 -37.5t-15 -37t-37 -15q-21 0 -37 15t-16 37t15.5 37.5t37.5 15.5zM365 803q22 0 37.5 -15.5t15.5 -37.5t-15 -37t-38 -15q-22 0 -37 15t-15 37q0 21 15 37t37 16z" />
    <glyph glyph-name="ntilde" unicode="&#xf1;" 
d="M303 448q-21 0 -37 15t-16 37t15.5 37.5t37.5 15.5q21 0 36.5 -15.5t15.5 -37.5t-15 -37t-37 -15zM428 448q-21 0 -37 15t-16 37t15.5 37.5t37.5 15.5q21 0 36.5 -15.5t15.5 -37.5t-15 -37t-37 -15zM553 -53q-22 0 -37.5 15.5t-15.5 37.5t15.5 37.5t37.5 15.5
q21 0 36.5 -15.5t15.5 -37.5t-15.5 -37.5t-36.5 -15.5zM178 323q-21 0 -37 15t-16 37t15.5 37.5t37.5 15.5q21 0 36.5 -15.5t15.5 -37.5t-15 -37t-37 -15zM53 -53q-22 0 -37.5 15.5t-15.5 37.5t15.5 37.5t37.5 15.5q21 0 36.5 -15.5t15.5 -37.5t-15.5 -37.5t-36.5 -15.5z
M51 73q-21 0 -36.5 15.5t-15.5 36.5q0 22 15.5 37.5t36.5 15.5q22 0 37.5 -15.5t15.5 -37.5t-15 -37t-38 -15zM53 198q-21 0 -37 15t-16 37t15.5 37.5t37.5 15.5q21 0 36.5 -15.5t15.5 -37.5t-15 -37t-37 -15zM51 448q-21 0 -36.5 15.5t-15.5 36.5q0 22 15.5 37.5t36.5 15.5
q22 0 37.5 -15.5t15.5 -37.5t-15 -37t-38 -15zM553 73q-21 0 -37 15t-16 37t15.5 37.5t37.5 15.5q21 0 36.5 -15.5t15.5 -37.5t-15 -37t-37 -15zM554 198q-21 0 -37 15t-16 37t15.5 37.5t37.5 15.5t37 -15t15 -38q0 -22 -15 -37t-37 -15zM553 323q-21 0 -37 15t-16 37
t15.5 37.5t37.5 15.5q21 0 36.5 -15.5t15.5 -37.5t-15 -37t-37 -15zM51 323q-21 0 -36.5 15.5t-15.5 36.5q0 22 15.5 37.5t36.5 15.5q22 0 37.5 -15.5t15.5 -37.5t-15 -37t-38 -15zM428 678q21 0 36.5 -15.5t15.5 -37.5t-15 -37t-37 -15q-21 0 -37 15t-16 37t15.5 37.5
t37.5 15.5zM178 678q21 0 36.5 -15.5t15.5 -37.5t-15 -37t-37 -15q-21 0 -37 15t-16 37t15.5 37.5t37.5 15.5zM553 803q21 0 36.5 -15.5t15.5 -37.5t-15 -37t-37 -15q-21 0 -37 15t-16 37t15.5 37.5t37.5 15.5zM303 803q21 0 36.5 -15.5t15.5 -37.5t-15 -37t-37 -15
q-21 0 -37 15t-16 37t15.5 37.5t37.5 15.5z" />
    <glyph glyph-name="oacute" unicode="&#xf3;" 
d="M303 553q21 0 36.5 -15.5t15.5 -37.5t-15 -37t-37 -15q-21 0 -37 15t-16 37t15.5 37.5t37.5 15.5zM303 53q21 0 36.5 -15.5t15.5 -37.5t-15.5 -37.5t-36.5 -15.5q-22 0 -37.5 15.5t-15.5 37.5t15.5 37.5t37.5 15.5zM178 53q21 0 36.5 -15.5t15.5 -37.5t-15.5 -37.5
t-36.5 -15.5q-22 0 -37.5 15.5t-15.5 37.5t15.5 37.5t37.5 15.5zM178 553q21 0 36.5 -15.5t15.5 -37.5t-15 -37t-37 -15q-21 0 -37 15t-16 37t15.5 37.5t37.5 15.5zM428 53q21 0 36.5 -15.5t15.5 -37.5t-15.5 -37.5t-36.5 -15.5q-22 0 -37.5 15.5t-15.5 37.5t15.5 37.5
t37.5 15.5zM428 553q21 0 36.5 -15.5t15.5 -37.5t-15 -37t-37 -15q-21 0 -37 15t-16 37t15.5 37.5t37.5 15.5zM554 428q22 0 37 -15t15 -38q0 -22 -15 -37t-37 -15q-21 0 -37 15t-16 37t15.5 37.5t37.5 15.5zM553 303q21 0 36.5 -15.5t15.5 -37.5t-15 -37t-37 -15
q-21 0 -37 15t-16 37t15.5 37.5t37.5 15.5zM554 178q22 0 37 -15t15 -38q0 -22 -15 -37t-37 -15q-21 0 -37 15t-16 37t15.5 37.5t37.5 15.5zM53 428q21 0 36.5 -15.5t15.5 -37.5t-15 -37t-37 -15q-21 0 -37 15t-16 37t15.5 37.5t37.5 15.5zM51 303q22 0 37.5 -15.5
t15.5 -37.5t-15 -37t-38 -15q-21 0 -36.5 15.5t-15.5 36.5q0 22 15.5 37.5t36.5 15.5zM53 178q21 0 36.5 -15.5t15.5 -37.5t-15 -37t-37 -15q-21 0 -37 15t-16 37t15.5 37.5t37.5 15.5zM240 678q22 0 37.5 -15.5t15.5 -37.5t-15 -37t-38 -15q-22 0 -37 15t-15 37q0 21 15 37
t37 16zM303 803q21 0 36.5 -15.5t15.5 -37.5t-15 -37t-37 -15q-21 0 -37 15t-16 37t15.5 37.5t37.5 15.5z" />
    <glyph glyph-name="ograve" unicode="&#xf2;" 
d="M303 553q21 0 36.5 -15.5t15.5 -37.5t-15 -37t-37 -15q-21 0 -37 15t-16 37t15.5 37.5t37.5 15.5zM303 53q21 0 36.5 -15.5t15.5 -37.5t-15.5 -37.5t-36.5 -15.5q-22 0 -37.5 15.5t-15.5 37.5t15.5 37.5t37.5 15.5zM178 53q21 0 36.5 -15.5t15.5 -37.5t-15.5 -37.5
t-36.5 -15.5q-22 0 -37.5 15.5t-15.5 37.5t15.5 37.5t37.5 15.5zM178 553q21 0 36.5 -15.5t15.5 -37.5t-15 -37t-37 -15q-21 0 -37 15t-16 37t15.5 37.5t37.5 15.5zM428 53q21 0 36.5 -15.5t15.5 -37.5t-15.5 -37.5t-36.5 -15.5q-22 0 -37.5 15.5t-15.5 37.5t15.5 37.5
t37.5 15.5zM428 553q21 0 36.5 -15.5t15.5 -37.5t-15 -37t-37 -15q-21 0 -37 15t-16 37t15.5 37.5t37.5 15.5zM554 428q22 0 37 -15t15 -38q0 -22 -15 -37t-37 -15q-21 0 -37 15t-16 37t15.5 37.5t37.5 15.5zM553 303q21 0 36.5 -15.5t15.5 -37.5t-15 -37t-37 -15
q-21 0 -37 15t-16 37t15.5 37.5t37.5 15.5zM554 178q22 0 37 -15t15 -38q0 -22 -15 -37t-37 -15q-21 0 -37 15t-16 37t15.5 37.5t37.5 15.5zM53 428q21 0 36.5 -15.5t15.5 -37.5t-15 -37t-37 -15q-21 0 -37 15t-16 37t15.5 37.5t37.5 15.5zM51 303q22 0 37.5 -15.5
t15.5 -37.5t-15 -37t-38 -15q-21 0 -36.5 15.5t-15.5 36.5q0 22 15.5 37.5t36.5 15.5zM53 178q21 0 36.5 -15.5t15.5 -37.5t-15 -37t-37 -15q-21 0 -37 15t-16 37t15.5 37.5t37.5 15.5zM303 678q21 0 36.5 -15.5t15.5 -37.5t-15 -37t-37 -15q-21 0 -37 15t-16 37t15.5 37.5
t37.5 15.5zM240 803q22 0 37.5 -15.5t15.5 -37.5t-15 -37t-38 -15q-22 0 -37 15t-15 37q0 21 15 37t37 16z" />
    <glyph glyph-name="ocircumflex" unicode="&#xf4;" 
d="M303 553q21 0 36.5 -15.5t15.5 -37.5t-15 -37t-37 -15q-21 0 -37 15t-16 37t15.5 37.5t37.5 15.5zM303 53q21 0 36.5 -15.5t15.5 -37.5t-15.5 -37.5t-36.5 -15.5q-22 0 -37.5 15.5t-15.5 37.5t15.5 37.5t37.5 15.5zM178 53q21 0 36.5 -15.5t15.5 -37.5t-15.5 -37.5
t-36.5 -15.5q-22 0 -37.5 15.5t-15.5 37.5t15.5 37.5t37.5 15.5zM178 553q21 0 36.5 -15.5t15.5 -37.5t-15 -37t-37 -15q-21 0 -37 15t-16 37t15.5 37.5t37.5 15.5zM428 53q21 0 36.5 -15.5t15.5 -37.5t-15.5 -37.5t-36.5 -15.5q-22 0 -37.5 15.5t-15.5 37.5t15.5 37.5
t37.5 15.5zM428 553q21 0 36.5 -15.5t15.5 -37.5t-15 -37t-37 -15q-21 0 -37 15t-16 37t15.5 37.5t37.5 15.5zM554 428q22 0 37 -15t15 -38q0 -22 -15 -37t-37 -15q-21 0 -37 15t-16 37t15.5 37.5t37.5 15.5zM553 303q21 0 36.5 -15.5t15.5 -37.5t-15 -37t-37 -15
q-21 0 -37 15t-16 37t15.5 37.5t37.5 15.5zM554 178q22 0 37 -15t15 -38q0 -22 -15 -37t-37 -15q-21 0 -37 15t-16 37t15.5 37.5t37.5 15.5zM53 428q21 0 36.5 -15.5t15.5 -37.5t-15 -37t-37 -15q-21 0 -37 15t-16 37t15.5 37.5t37.5 15.5zM51 303q22 0 37.5 -15.5
t15.5 -37.5t-15 -37t-38 -15q-21 0 -36.5 15.5t-15.5 36.5q0 22 15.5 37.5t36.5 15.5zM53 178q21 0 36.5 -15.5t15.5 -37.5t-15 -37t-37 -15q-21 0 -37 15t-16 37t15.5 37.5t37.5 15.5zM240 678q22 0 37.5 -15.5t15.5 -37.5t-15 -37t-38 -15q-22 0 -37 15t-15 37q0 21 15 37
t37 16zM303 803q21 0 36.5 -15.5t15.5 -37.5t-15 -37t-37 -15q-21 0 -37 15t-16 37t15.5 37.5t37.5 15.5zM365 678q22 0 37.5 -15.5t15.5 -37.5t-15 -37t-38 -15q-22 0 -37 15t-15 37q0 21 15 37t37 16z" />
    <glyph glyph-name="odieresis" unicode="&#xf6;" 
d="M303 553q21 0 36.5 -15.5t15.5 -37.5t-15 -37t-37 -15q-21 0 -37 15t-16 37t15.5 37.5t37.5 15.5zM303 53q21 0 36.5 -15.5t15.5 -37.5t-15.5 -37.5t-36.5 -15.5q-22 0 -37.5 15.5t-15.5 37.5t15.5 37.5t37.5 15.5zM178 53q21 0 36.5 -15.5t15.5 -37.5t-15.5 -37.5
t-36.5 -15.5q-22 0 -37.5 15.5t-15.5 37.5t15.5 37.5t37.5 15.5zM178 553q21 0 36.5 -15.5t15.5 -37.5t-15 -37t-37 -15q-21 0 -37 15t-16 37t15.5 37.5t37.5 15.5zM428 53q21 0 36.5 -15.5t15.5 -37.5t-15.5 -37.5t-36.5 -15.5q-22 0 -37.5 15.5t-15.5 37.5t15.5 37.5
t37.5 15.5zM428 553q21 0 36.5 -15.5t15.5 -37.5t-15 -37t-37 -15q-21 0 -37 15t-16 37t15.5 37.5t37.5 15.5zM554 428q22 0 37 -15t15 -38q0 -22 -15 -37t-37 -15q-21 0 -37 15t-16 37t15.5 37.5t37.5 15.5zM553 303q21 0 36.5 -15.5t15.5 -37.5t-15 -37t-37 -15
q-21 0 -37 15t-16 37t15.5 37.5t37.5 15.5zM554 178q22 0 37 -15t15 -38q0 -22 -15 -37t-37 -15q-21 0 -37 15t-16 37t15.5 37.5t37.5 15.5zM53 428q21 0 36.5 -15.5t15.5 -37.5t-15 -37t-37 -15q-21 0 -37 15t-16 37t15.5 37.5t37.5 15.5zM51 303q22 0 37.5 -15.5
t15.5 -37.5t-15 -37t-38 -15q-21 0 -36.5 15.5t-15.5 36.5q0 22 15.5 37.5t36.5 15.5zM53 178q21 0 36.5 -15.5t15.5 -37.5t-15 -37t-37 -15q-21 0 -37 15t-16 37t15.5 37.5t37.5 15.5zM178 803q21 0 36.5 -15.5t15.5 -37.5t-15 -37t-37 -15q-21 0 -37 15t-16 37t15.5 37.5
t37.5 15.5zM428 803q21 0 36.5 -15.5t15.5 -37.5t-15 -37t-37 -15q-21 0 -37 15t-16 37t15.5 37.5t37.5 15.5z" />
    <glyph glyph-name="otilde" unicode="&#xf5;" 
d="M303 553q21 0 36.5 -15.5t15.5 -37.5t-15 -37t-37 -15q-21 0 -37 15t-16 37t15.5 37.5t37.5 15.5zM303 53q21 0 36.5 -15.5t15.5 -37.5t-15.5 -37.5t-36.5 -15.5q-22 0 -37.5 15.5t-15.5 37.5t15.5 37.5t37.5 15.5zM178 53q21 0 36.5 -15.5t15.5 -37.5t-15.5 -37.5
t-36.5 -15.5q-22 0 -37.5 15.5t-15.5 37.5t15.5 37.5t37.5 15.5zM178 553q21 0 36.5 -15.5t15.5 -37.5t-15 -37t-37 -15q-21 0 -37 15t-16 37t15.5 37.5t37.5 15.5zM428 53q21 0 36.5 -15.5t15.5 -37.5t-15.5 -37.5t-36.5 -15.5q-22 0 -37.5 15.5t-15.5 37.5t15.5 37.5
t37.5 15.5zM428 553q21 0 36.5 -15.5t15.5 -37.5t-15 -37t-37 -15q-21 0 -37 15t-16 37t15.5 37.5t37.5 15.5zM554 428q22 0 37 -15t15 -38q0 -22 -15 -37t-37 -15q-21 0 -37 15t-16 37t15.5 37.5t37.5 15.5zM553 303q21 0 36.5 -15.5t15.5 -37.5t-15 -37t-37 -15
q-21 0 -37 15t-16 37t15.5 37.5t37.5 15.5zM554 178q22 0 37 -15t15 -38q0 -22 -15 -37t-37 -15q-21 0 -37 15t-16 37t15.5 37.5t37.5 15.5zM53 428q21 0 36.5 -15.5t15.5 -37.5t-15 -37t-37 -15q-21 0 -37 15t-16 37t15.5 37.5t37.5 15.5zM51 303q22 0 37.5 -15.5
t15.5 -37.5t-15 -37t-38 -15q-21 0 -36.5 15.5t-15.5 36.5q0 22 15.5 37.5t36.5 15.5zM53 178q21 0 36.5 -15.5t15.5 -37.5t-15 -37t-37 -15q-21 0 -37 15t-16 37t15.5 37.5t37.5 15.5zM428 678q21 0 36.5 -15.5t15.5 -37.5t-15 -37t-37 -15q-21 0 -37 15t-16 37t15.5 37.5
t37.5 15.5zM178 678q21 0 36.5 -15.5t15.5 -37.5t-15 -37t-37 -15q-21 0 -37 15t-16 37t15.5 37.5t37.5 15.5zM553 803q21 0 36.5 -15.5t15.5 -37.5t-15 -37t-37 -15q-21 0 -37 15t-16 37t15.5 37.5t37.5 15.5zM303 803q21 0 36.5 -15.5t15.5 -37.5t-15 -37t-37 -15
q-21 0 -37 15t-16 37t15.5 37.5t37.5 15.5z" />
    <glyph glyph-name="uacute" unicode="&#xfa;" 
d="M303 53q21 0 36.5 -15.5t15.5 -37.5t-15.5 -37.5t-36.5 -15.5q-22 0 -37.5 15.5t-15.5 37.5t15.5 37.5t37.5 15.5zM178 53q21 0 36.5 -15.5t15.5 -37.5t-15.5 -37.5t-36.5 -15.5q-22 0 -37.5 15.5t-15.5 37.5t15.5 37.5t37.5 15.5zM53 553q21 0 36.5 -15.5t15.5 -37.5
t-15 -37t-37 -15q-21 0 -37 15t-16 37t15.5 37.5t37.5 15.5zM428 178q21 0 36.5 -15.5t15.5 -37.5t-15 -37t-37 -15q-21 0 -37 15t-16 37t15.5 37.5t37.5 15.5zM553 553q21 0 36.5 -15.5t15.5 -37.5t-15 -37t-37 -15q-21 0 -37 15t-16 37t15.5 37.5t37.5 15.5zM554 428
q22 0 37 -15t15 -38q0 -22 -15 -37t-37 -15q-21 0 -37 15t-16 37t15.5 37.5t37.5 15.5zM553 303q21 0 36.5 -15.5t15.5 -37.5t-15 -37t-37 -15q-21 0 -37 15t-16 37t15.5 37.5t37.5 15.5zM554 53q22 0 37 -15t15 -38q0 -21 -15 -37t-37 -16t-37.5 15.5t-15.5 37.5t15.5 37.5
t37.5 15.5zM53 428q21 0 36.5 -15.5t15.5 -37.5t-15 -37t-37 -15q-21 0 -37 15t-16 37t15.5 37.5t37.5 15.5zM51 303q22 0 37.5 -15.5t15.5 -37.5t-15 -37t-38 -15q-21 0 -36.5 15.5t-15.5 36.5q0 22 15.5 37.5t36.5 15.5zM53 178q21 0 36.5 -15.5t15.5 -37.5t-15 -37
t-37 -15q-21 0 -37 15t-16 37t15.5 37.5t37.5 15.5zM554 178q22 0 37 -15t15 -38q0 -22 -15 -37t-37 -15q-21 0 -37 15t-16 37t15.5 37.5t37.5 15.5zM240 678q22 0 37.5 -15.5t15.5 -37.5t-15 -37t-38 -15q-22 0 -37 15t-15 37q0 21 15 37t37 16zM303 803q21 0 36.5 -15.5
t15.5 -37.5t-15 -37t-37 -15q-21 0 -37 15t-16 37t15.5 37.5t37.5 15.5z" />
    <glyph glyph-name="ugrave" unicode="&#xf9;" 
d="M303 53q21 0 36.5 -15.5t15.5 -37.5t-15.5 -37.5t-36.5 -15.5q-22 0 -37.5 15.5t-15.5 37.5t15.5 37.5t37.5 15.5zM178 53q21 0 36.5 -15.5t15.5 -37.5t-15.5 -37.5t-36.5 -15.5q-22 0 -37.5 15.5t-15.5 37.5t15.5 37.5t37.5 15.5zM53 553q21 0 36.5 -15.5t15.5 -37.5
t-15 -37t-37 -15q-21 0 -37 15t-16 37t15.5 37.5t37.5 15.5zM428 178q21 0 36.5 -15.5t15.5 -37.5t-15 -37t-37 -15q-21 0 -37 15t-16 37t15.5 37.5t37.5 15.5zM553 553q21 0 36.5 -15.5t15.5 -37.5t-15 -37t-37 -15q-21 0 -37 15t-16 37t15.5 37.5t37.5 15.5zM554 428
q22 0 37 -15t15 -38q0 -22 -15 -37t-37 -15q-21 0 -37 15t-16 37t15.5 37.5t37.5 15.5zM553 303q21 0 36.5 -15.5t15.5 -37.5t-15 -37t-37 -15q-21 0 -37 15t-16 37t15.5 37.5t37.5 15.5zM554 53q22 0 37 -15t15 -38q0 -21 -15 -37t-37 -16t-37.5 15.5t-15.5 37.5t15.5 37.5
t37.5 15.5zM53 428q21 0 36.5 -15.5t15.5 -37.5t-15 -37t-37 -15q-21 0 -37 15t-16 37t15.5 37.5t37.5 15.5zM51 303q22 0 37.5 -15.5t15.5 -37.5t-15 -37t-38 -15q-21 0 -36.5 15.5t-15.5 36.5q0 22 15.5 37.5t36.5 15.5zM53 178q21 0 36.5 -15.5t15.5 -37.5t-15 -37
t-37 -15q-21 0 -37 15t-16 37t15.5 37.5t37.5 15.5zM554 178q22 0 37 -15t15 -38q0 -22 -15 -37t-37 -15q-21 0 -37 15t-16 37t15.5 37.5t37.5 15.5zM303 678q21 0 36.5 -15.5t15.5 -37.5t-15 -37t-37 -15q-21 0 -37 15t-16 37t15.5 37.5t37.5 15.5zM240 803
q22 0 37.5 -15.5t15.5 -37.5t-15 -37t-38 -15q-22 0 -37 15t-15 37q0 21 15 37t37 16z" />
    <glyph glyph-name="ucircumflex" unicode="&#xfb;" 
d="M303 53q21 0 36.5 -15.5t15.5 -37.5t-15.5 -37.5t-36.5 -15.5q-22 0 -37.5 15.5t-15.5 37.5t15.5 37.5t37.5 15.5zM178 53q21 0 36.5 -15.5t15.5 -37.5t-15.5 -37.5t-36.5 -15.5q-22 0 -37.5 15.5t-15.5 37.5t15.5 37.5t37.5 15.5zM53 553q21 0 36.5 -15.5t15.5 -37.5
t-15 -37t-37 -15q-21 0 -37 15t-16 37t15.5 37.5t37.5 15.5zM428 178q21 0 36.5 -15.5t15.5 -37.5t-15 -37t-37 -15q-21 0 -37 15t-16 37t15.5 37.5t37.5 15.5zM553 553q21 0 36.5 -15.5t15.5 -37.5t-15 -37t-37 -15q-21 0 -37 15t-16 37t15.5 37.5t37.5 15.5zM554 428
q22 0 37 -15t15 -38q0 -22 -15 -37t-37 -15q-21 0 -37 15t-16 37t15.5 37.5t37.5 15.5zM553 303q21 0 36.5 -15.5t15.5 -37.5t-15 -37t-37 -15q-21 0 -37 15t-16 37t15.5 37.5t37.5 15.5zM554 53q22 0 37 -15t15 -38q0 -21 -15 -37t-37 -16t-37.5 15.5t-15.5 37.5t15.5 37.5
t37.5 15.5zM53 428q21 0 36.5 -15.5t15.5 -37.5t-15 -37t-37 -15q-21 0 -37 15t-16 37t15.5 37.5t37.5 15.5zM51 303q22 0 37.5 -15.5t15.5 -37.5t-15 -37t-38 -15q-21 0 -36.5 15.5t-15.5 36.5q0 22 15.5 37.5t36.5 15.5zM53 178q21 0 36.5 -15.5t15.5 -37.5t-15 -37
t-37 -15q-21 0 -37 15t-16 37t15.5 37.5t37.5 15.5zM554 178q22 0 37 -15t15 -38q0 -22 -15 -37t-37 -15q-21 0 -37 15t-16 37t15.5 37.5t37.5 15.5zM240 678q22 0 37.5 -15.5t15.5 -37.5t-15 -37t-38 -15q-22 0 -37 15t-15 37q0 21 15 37t37 16zM303 803q21 0 36.5 -15.5
t15.5 -37.5t-15 -37t-37 -15q-21 0 -37 15t-16 37t15.5 37.5t37.5 15.5zM365 678q22 0 37.5 -15.5t15.5 -37.5t-15 -37t-38 -15q-22 0 -37 15t-15 37q0 21 15 37t37 16z" />
    <glyph glyph-name="udieresis" unicode="&#xfc;" 
d="M303 53q21 0 36.5 -15.5t15.5 -37.5t-15.5 -37.5t-36.5 -15.5q-22 0 -37.5 15.5t-15.5 37.5t15.5 37.5t37.5 15.5zM178 53q21 0 36.5 -15.5t15.5 -37.5t-15.5 -37.5t-36.5 -15.5q-22 0 -37.5 15.5t-15.5 37.5t15.5 37.5t37.5 15.5zM53 553q21 0 36.5 -15.5t15.5 -37.5
t-15 -37t-37 -15q-21 0 -37 15t-16 37t15.5 37.5t37.5 15.5zM428 178q21 0 36.5 -15.5t15.5 -37.5t-15 -37t-37 -15q-21 0 -37 15t-16 37t15.5 37.5t37.5 15.5zM553 553q21 0 36.5 -15.5t15.5 -37.5t-15 -37t-37 -15q-21 0 -37 15t-16 37t15.5 37.5t37.5 15.5zM554 428
q22 0 37 -15t15 -38q0 -22 -15 -37t-37 -15q-21 0 -37 15t-16 37t15.5 37.5t37.5 15.5zM553 303q21 0 36.5 -15.5t15.5 -37.5t-15 -37t-37 -15q-21 0 -37 15t-16 37t15.5 37.5t37.5 15.5zM554 53q22 0 37 -15t15 -38q0 -21 -15 -37t-37 -16t-37.5 15.5t-15.5 37.5t15.5 37.5
t37.5 15.5zM53 428q21 0 36.5 -15.5t15.5 -37.5t-15 -37t-37 -15q-21 0 -37 15t-16 37t15.5 37.5t37.5 15.5zM51 303q22 0 37.5 -15.5t15.5 -37.5t-15 -37t-38 -15q-21 0 -36.5 15.5t-15.5 36.5q0 22 15.5 37.5t36.5 15.5zM53 178q21 0 36.5 -15.5t15.5 -37.5t-15 -37
t-37 -15q-21 0 -37 15t-16 37t15.5 37.5t37.5 15.5zM554 178q22 0 37 -15t15 -38q0 -22 -15 -37t-37 -15q-21 0 -37 15t-16 37t15.5 37.5t37.5 15.5zM178 803q21 0 36.5 -15.5t15.5 -37.5t-15 -37t-37 -15q-21 0 -37 15t-16 37t15.5 37.5t37.5 15.5zM428 803
q21 0 36.5 -15.5t15.5 -37.5t-15 -37t-37 -15q-21 0 -37 15t-16 37t15.5 37.5t37.5 15.5z" />
    <glyph glyph-name="dagger" unicode="&#x2020;" 
d="M303 553q21 0 36.5 -15.5t15.5 -37.5t-15 -37t-37 -15q-21 0 -37 15t-16 37t15.5 37.5t37.5 15.5zM178 678q21 0 36.5 -15.5t15.5 -37.5t-15 -37t-37 -15q-21 0 -37 15t-16 37t15.5 37.5t37.5 15.5zM176 303q22 0 37.5 -15.5t15.5 -37.5t-15 -37t-38 -15
q-21 0 -36.5 15.5t-15.5 36.5q0 22 15.5 37.5t36.5 15.5zM178 178q21 0 36.5 -15.5t15.5 -37.5t-15 -37t-37 -15q-21 0 -37 15t-16 37t15.5 37.5t37.5 15.5zM178 553q21 0 36.5 -15.5t15.5 -37.5t-15 -37t-37 -15q-21 0 -37 15t-16 37t15.5 37.5t37.5 15.5zM178 428
q21 0 36.5 -15.5t15.5 -37.5t-15 -37t-37 -15q-21 0 -37 15t-16 37t15.5 37.5t37.5 15.5zM53 553q21 0 36.5 -15.5t15.5 -37.5t-15 -37t-37 -15q-21 0 -37 15t-16 37t15.5 37.5t37.5 15.5zM178 803q21 0 36.5 -15.5t15.5 -37.5t-15 -37t-37 -15q-21 0 -37 15t-16 37
t15.5 37.5t37.5 15.5z" />
    <glyph glyph-name="degree" unicode="&#xb0;" 
d="M178 553q21 0 36.5 -15.5t15.5 -37.5t-15 -37t-37 -15q-21 0 -37 15t-16 37t15.5 37.5t37.5 15.5zM178 803q21 0 36.5 -15.5t15.5 -37.5t-15 -37t-37 -15q-21 0 -37 15t-16 37t15.5 37.5t37.5 15.5zM115 678q22 0 37.5 -15.5t15.5 -37.5t-15 -37t-38 -15q-22 0 -37 15
t-15 37q0 21 15 37t37 16zM365 678q22 0 37.5 -15.5t15.5 -37.5t-15 -37t-38 -15q-22 0 -37 15t-15 37q0 21 15 37t37 16zM303 803q21 0 36.5 -15.5t15.5 -37.5t-15 -37t-37 -15q-21 0 -37 15t-16 37t15.5 37.5t37.5 15.5zM303 553q21 0 36.5 -15.5t15.5 -37.5t-15 -37
t-37 -15q-21 0 -37 15t-16 37t15.5 37.5t37.5 15.5z" />
    <glyph glyph-name="cent" unicode="&#xa2;" 
d="M303 553q21 0 36.5 -15.5t15.5 -37.5t-15 -37t-37 -15q-21 0 -37 15t-16 37t15.5 37.5t37.5 15.5zM303 53q21 0 36.5 -15.5t15.5 -37.5t-15.5 -37.5t-36.5 -15.5q-22 0 -37.5 15.5t-15.5 37.5t15.5 37.5t37.5 15.5zM178 53q21 0 36.5 -15.5t15.5 -37.5t-15.5 -37.5
t-36.5 -15.5q-22 0 -37.5 15.5t-15.5 37.5t15.5 37.5t37.5 15.5zM178 553q21 0 36.5 -15.5t15.5 -37.5t-15 -37t-37 -15q-21 0 -37 15t-16 37t15.5 37.5t37.5 15.5zM428 53q21 0 36.5 -15.5t15.5 -37.5t-15.5 -37.5t-36.5 -15.5q-22 0 -37.5 15.5t-15.5 37.5t15.5 37.5
t37.5 15.5zM428 553q21 0 36.5 -15.5t15.5 -37.5t-15 -37t-37 -15q-21 0 -37 15t-16 37t15.5 37.5t37.5 15.5zM53 428q21 0 36.5 -15.5t15.5 -37.5t-15 -37t-37 -15q-21 0 -37 15t-16 37t15.5 37.5t37.5 15.5zM51 303q22 0 37.5 -15.5t15.5 -37.5t-15 -37t-38 -15
q-21 0 -36.5 15.5t-15.5 36.5q0 22 15.5 37.5t36.5 15.5zM53 178q21 0 36.5 -15.5t15.5 -37.5t-15 -37t-37 -15q-21 0 -37 15t-16 37t15.5 37.5t37.5 15.5zM303 678q21 0 36.5 -15.5t15.5 -37.5t-15 -37t-37 -15q-21 0 -37 15t-16 37t15.5 37.5t37.5 15.5zM303 -73
q21 0 36.5 -15.5t15.5 -36.5q0 -22 -15.5 -37.5t-36.5 -15.5q-22 0 -37.5 15.5t-15.5 37.5t15 37t38 15zM303 303q21 0 36.5 -15.5t15.5 -37.5t-15 -37t-37 -15q-21 0 -37 15t-16 37t15.5 37.5t37.5 15.5zM303 428q21 0 36.5 -15.5t15.5 -37.5t-15 -37t-37 -15q-21 0 -37 15
t-16 37t15.5 37.5t37.5 15.5zM303 178q21 0 36.5 -15.5t15.5 -37.5t-15 -37t-37 -15q-21 0 -37 15t-16 37t15.5 37.5t37.5 15.5z" />
    <glyph glyph-name="sterling" unicode="&#xa3;" 
d="M240 803q22 0 37.5 -15.5t15.5 -37.5t-15 -37t-38 -15q-22 0 -37 15t-15 37q0 21 15 37t37 16zM303 53q21 0 36.5 -15.5t15.5 -37.5t-15.5 -37.5t-36.5 -15.5q-22 0 -37.5 15.5t-15.5 37.5t15.5 37.5t37.5 15.5zM53 53q21 0 36.5 -15.5t15.5 -37.5t-15.5 -37.5
t-36.5 -15.5q-22 0 -37.5 15.5t-15.5 37.5t15.5 37.5t37.5 15.5zM178 53q21 0 36.5 -15.5t15.5 -37.5t-15.5 -37.5t-36.5 -15.5q-22 0 -37.5 15.5t-15.5 37.5t15.5 37.5t37.5 15.5zM428 53q21 0 36.5 -15.5t15.5 -37.5t-15.5 -37.5t-36.5 -15.5q-22 0 -37.5 15.5t-15.5 37.5
t15.5 37.5t37.5 15.5zM115 678q22 0 37.5 -15.5t15.5 -37.5t-15 -37t-38 -15q-22 0 -37 15t-15 37q0 21 15 37t37 16zM115 553q22 0 37.5 -15.5t15.5 -37.5t-15 -37t-38 -15q-22 0 -37 15t-15 37q0 21 15 37t37 16zM178 428q21 0 36.5 -15.5t15.5 -37.5t-15 -37t-37 -15
q-21 0 -37 15t-16 37t15.5 37.5t37.5 15.5zM114 303q22 0 37 -15t15 -38q0 -22 -15 -37t-37 -15q-21 0 -37 15t-16 37t15.5 37.5t37.5 15.5zM115 178q22 0 37.5 -15.5t15.5 -37.5t-15 -37t-38 -15q-22 0 -37 15t-15 37q0 21 15 37t37 16zM553 53q21 0 36.5 -15.5t15.5 -37.5
t-15.5 -37.5t-36.5 -15.5q-22 0 -37.5 15.5t-15.5 37.5t15.5 37.5t37.5 15.5zM365 678q22 0 37.5 -15.5t15.5 -37.5t-15 -37t-38 -15q-22 0 -37 15t-15 37q0 21 15 37t37 16zM53 428q21 0 36.5 -15.5t15.5 -37.5t-15 -37t-37 -15q-21 0 -37 15t-16 37t15.5 37.5t37.5 15.5z
" />
    <glyph glyph-name="section" unicode="&#xa7;" 
d="M178 428q21 0 36.5 -15.5t15.5 -37.5t-15 -37t-37 -15q-21 0 -37 15t-16 37t15.5 37.5t37.5 15.5zM303 803q21 0 36.5 -15.5t15.5 -37.5t-15 -37t-37 -15q-21 0 -37 15t-16 37t15.5 37.5t37.5 15.5zM428 428q21 0 36.5 -15.5t15.5 -37.5t-15 -37t-37 -15q-21 0 -37 15
t-16 37t15.5 37.5t37.5 15.5zM490 303q22 0 37.5 -15.5t15.5 -37.5t-15 -37t-38 -15q-22 0 -37 15t-15 37q0 21 15 37t37 16zM490 178q22 0 37.5 -15.5t15.5 -37.5t-15 -37t-38 -15q-22 0 -37 15t-15 37q0 21 15 37t37 16zM303 53q21 0 36.5 -15.5t15.5 -37.5t-15.5 -37.5
t-36.5 -15.5q-22 0 -37.5 15.5t-15.5 37.5t15.5 37.5t37.5 15.5zM178 53q21 0 36.5 -15.5t15.5 -37.5t-15.5 -37.5t-36.5 -15.5q-22 0 -37.5 15.5t-15.5 37.5t15.5 37.5t37.5 15.5zM178 803q21 0 36.5 -15.5t15.5 -37.5t-15 -37t-37 -15q-21 0 -37 15t-16 37t15.5 37.5
t37.5 15.5zM428 53q21 0 36.5 -15.5t15.5 -37.5t-15.5 -37.5t-36.5 -15.5q-22 0 -37.5 15.5t-15.5 37.5t15.5 37.5t37.5 15.5zM428 803q21 0 36.5 -15.5t15.5 -37.5t-15 -37t-37 -15q-21 0 -37 15t-16 37t15.5 37.5t37.5 15.5zM115 678q22 0 37.5 -15.5t15.5 -37.5t-15 -37
t-38 -15q-22 0 -37 15t-15 37q0 21 15 37t37 16zM115 553q22 0 37.5 -15.5t15.5 -37.5t-15 -37t-38 -15q-22 0 -37 15t-15 37q0 21 15 37t37 16zM240 303q22 0 37.5 -15.5t15.5 -37.5t-15 -37t-38 -15q-22 0 -37 15t-15 37q0 21 15 37t37 16zM365 553q22 0 37.5 -15.5
t15.5 -37.5t-15 -37t-38 -15q-22 0 -37 15t-15 37q0 21 15 37t37 16zM240 553q22 0 37.5 -15.5t15.5 -37.5t-15 -37t-38 -15q-22 0 -37 15t-15 37q0 21 15 37t37 16zM365 303q22 0 37.5 -15.5t15.5 -37.5t-15 -37t-38 -15q-22 0 -37 15t-15 37q0 21 15 37t37 16z" />
    <glyph glyph-name="bullet" unicode="&#x2022;" 
d="M178 303q21 0 36.5 -15.5t15.5 -37.5t-15 -37t-37 -15q-21 0 -37 15t-16 37t15.5 37.5t37.5 15.5zM178 553q21 0 36.5 -15.5t15.5 -37.5t-15 -37t-37 -15q-21 0 -37 15t-16 37t15.5 37.5t37.5 15.5zM115 428q22 0 37.5 -15.5t15.5 -37.5t-15 -37t-38 -15q-22 0 -37 15
t-15 37q0 21 15 37t37 16zM365 428q22 0 37.5 -15.5t15.5 -37.5t-15 -37t-38 -15q-22 0 -37 15t-15 37q0 21 15 37t37 16zM303 553q21 0 36.5 -15.5t15.5 -37.5t-15 -37t-37 -15q-21 0 -37 15t-16 37t15.5 37.5t37.5 15.5zM303 303q21 0 36.5 -15.5t15.5 -37.5t-15 -37
t-37 -15q-21 0 -37 15t-16 37t15.5 37.5t37.5 15.5zM240 428q22 0 37.5 -15.5t15.5 -37.5t-15 -37t-38 -15q-22 0 -37 15t-15 37q0 21 15 37t37 16z" />
    <glyph glyph-name="paragraph" unicode="&#xb6;" 
d="M53 678q21 0 36.5 -15.5t15.5 -37.5t-15 -37t-37 -15q-21 0 -37 15t-16 37t15.5 37.5t37.5 15.5zM53 553q21 0 36.5 -15.5t15.5 -37.5t-15 -37t-37 -15q-21 0 -37 15t-16 37t15.5 37.5t37.5 15.5zM303 428q21 0 36.5 -15.5t15.5 -37.5t-15 -37t-37 -15q-21 0 -37 15
t-16 37t15.5 37.5t37.5 15.5zM553 53q21 0 36.5 -15.5t15.5 -37.5t-15.5 -37.5t-36.5 -15.5q-22 0 -37.5 15.5t-15.5 37.5t15.5 37.5t37.5 15.5zM553 803q21 0 36.5 -15.5t15.5 -37.5t-15 -37t-37 -15q-21 0 -37 15t-16 37t15.5 37.5t37.5 15.5zM178 428q21 0 36.5 -15.5
t15.5 -37.5t-15 -37t-37 -15q-21 0 -37 15t-16 37t15.5 37.5t37.5 15.5zM553 678q21 0 36.5 -15.5t15.5 -37.5t-15 -37t-37 -15q-21 0 -37 15t-16 37t15.5 37.5t37.5 15.5zM553 553q21 0 36.5 -15.5t15.5 -37.5t-15 -37t-37 -15q-21 0 -37 15t-16 37t15.5 37.5t37.5 15.5z
M553 428q21 0 36.5 -15.5t15.5 -37.5t-15 -37t-37 -15q-21 0 -37 15t-16 37t15.5 37.5t37.5 15.5zM554 303q22 0 37 -15t15 -38q0 -22 -15 -37t-37 -15q-21 0 -37 15t-16 37t15.5 37.5t37.5 15.5zM553 178q21 0 36.5 -15.5t15.5 -37.5t-15 -37t-37 -15q-21 0 -37 15t-16 37
t15.5 37.5t37.5 15.5zM428 428q21 0 36.5 -15.5t15.5 -37.5t-15 -37t-37 -15q-21 0 -37 15t-16 37t15.5 37.5t37.5 15.5zM428 803q21 0 36.5 -15.5t15.5 -37.5t-15 -37t-37 -15q-21 0 -37 15t-16 37t15.5 37.5t37.5 15.5zM303 803q21 0 36.5 -15.5t15.5 -37.5t-15 -37
t-37 -15q-21 0 -37 15t-16 37t15.5 37.5t37.5 15.5zM178 803q21 0 36.5 -15.5t15.5 -37.5t-15 -37t-37 -15q-21 0 -37 15t-16 37t15.5 37.5t37.5 15.5zM364 53q22 0 37 -15t15 -38q0 -21 -15 -37t-37 -16t-37.5 15.5t-15.5 37.5t15.5 37.5t37.5 15.5zM364 678q22 0 37 -15
t15 -38q0 -22 -15 -37t-37 -15q-21 0 -37 15t-16 37t15.5 37.5t37.5 15.5zM364 553q22 0 37 -15t15 -38q0 -22 -15 -37t-37 -15q-21 0 -37 15t-16 37t15.5 37.5t37.5 15.5zM365 303q22 0 37.5 -15.5t15.5 -37.5t-15 -37t-38 -15q-22 0 -37 15t-15 37q0 21 15 37t37 16z
M364 178q22 0 37 -15t15 -38q0 -22 -15 -37t-37 -15q-21 0 -37 15t-16 37t15.5 37.5t37.5 15.5z" />
    <glyph glyph-name="germandbls" unicode="&#xdf;" 
d="M553 678q21 0 36.5 -15.5t15.5 -37.5t-15 -37t-37 -15q-21 0 -37 15t-16 37t15.5 37.5t37.5 15.5zM553 553q21 0 36.5 -15.5t15.5 -37.5t-15 -37t-37 -15q-21 0 -37 15t-16 37t15.5 37.5t37.5 15.5zM303 428q21 0 36.5 -15.5t15.5 -37.5t-15 -37t-37 -15q-21 0 -37 15
t-16 37t15.5 37.5t37.5 15.5zM551 303q22 0 37.5 -15.5t15.5 -37.5t-15 -37t-38 -15q-21 0 -36.5 15.5t-15.5 36.5q0 22 15.5 37.5t36.5 15.5zM553 178q21 0 36.5 -15.5t15.5 -37.5t-15 -37t-37 -15q-21 0 -37 15t-16 37t15.5 37.5t37.5 15.5zM365 53q22 0 37.5 -15.5
t15.5 -37.5t-15.5 -37.5t-37.5 -15.5t-37 15t-15 38q0 21 15 37t37 16zM53 53q21 0 36.5 -15.5t15.5 -37.5t-15.5 -37.5t-36.5 -15.5q-22 0 -37.5 15.5t-15.5 37.5t15.5 37.5t37.5 15.5zM490 53q22 0 37.5 -15.5t15.5 -37.5t-15.5 -37.5t-37.5 -15.5t-37 15t-15 38
q0 21 15 37t37 16zM428 428q21 0 36.5 -15.5t15.5 -37.5t-15 -37t-37 -15q-21 0 -37 15t-16 37t15.5 37.5t37.5 15.5zM115 678q22 0 37.5 -15.5t15.5 -37.5t-15 -37t-38 -15q-22 0 -37 15t-15 37q0 21 15 37t37 16zM115 553q22 0 37.5 -15.5t15.5 -37.5t-15 -37t-38 -15
q-22 0 -37 15t-15 37q0 21 15 37t37 16zM115 428q22 0 37.5 -15.5t15.5 -37.5t-15 -37t-38 -15q-22 0 -37 15t-15 37q0 21 15 37t37 16zM114 303q22 0 37 -15t15 -38q0 -22 -15 -37t-37 -15q-21 0 -37 15t-16 37t15.5 37.5t37.5 15.5zM115 178q22 0 37.5 -15.5t15.5 -37.5
t-15 -37t-38 -15q-22 0 -37 15t-15 37q0 21 15 37t37 16zM240 53q22 0 37.5 -15.5t15.5 -37.5t-15.5 -37.5t-37.5 -15.5t-37 15t-15 38q0 21 15 37t37 16zM178 803q21 0 36.5 -15.5t15.5 -37.5t-15 -37t-37 -15q-21 0 -37 15t-16 37t15.5 37.5t37.5 15.5zM303 803
q21 0 36.5 -15.5t15.5 -37.5t-15 -37t-37 -15q-21 0 -37 15t-16 37t15.5 37.5t37.5 15.5zM428 803q21 0 36.5 -15.5t15.5 -37.5t-15 -37t-37 -15q-21 0 -37 15t-16 37t15.5 37.5t37.5 15.5z" />
    <glyph glyph-name="registered" unicode="&#xae;" 
d="M303 53q21 0 36.5 -15.5t15.5 -37.5t-15.5 -37.5t-36.5 -15.5q-22 0 -37.5 15.5t-15.5 37.5t15.5 37.5t37.5 15.5zM303 803q21 0 36.5 -15.5t15.5 -37.5t-15 -37t-37 -15q-21 0 -37 15t-16 37t15.5 37.5t37.5 15.5zM303 553q21 0 36.5 -15.5t15.5 -37.5t-15 -37t-37 -15
q-21 0 -37 15t-16 37t15.5 37.5t37.5 15.5zM304 303q22 0 37 -15t15 -38q0 -22 -15 -37t-37 -15q-21 0 -37 15t-16 37t15.5 37.5t37.5 15.5zM303 -198q21 0 36.5 -15.5t15.5 -36.5q0 -22 -15.5 -37.5t-36.5 -15.5q-22 0 -37.5 15.5t-15.5 37.5t15 37t38 15zM53 53
q21 0 36.5 -15.5t15.5 -37.5t-15.5 -37.5t-36.5 -15.5q-22 0 -37.5 15.5t-15.5 37.5t15.5 37.5t37.5 15.5zM53 803q21 0 36.5 -15.5t15.5 -37.5t-15 -37t-37 -15q-21 0 -37 15t-16 37t15.5 37.5t37.5 15.5zM53 553q21 0 36.5 -15.5t15.5 -37.5t-15 -37t-37 -15q-21 0 -37 15
t-16 37t15.5 37.5t37.5 15.5zM54 303q22 0 37 -15t15 -38q0 -22 -15 -37t-37 -15q-21 0 -37 15t-16 37t15.5 37.5t37.5 15.5zM53 -198q21 0 36.5 -15.5t15.5 -36.5q0 -22 -15.5 -37.5t-36.5 -15.5q-22 0 -37.5 15.5t-15.5 37.5t15 37t38 15zM553 53q21 0 36.5 -15.5
t15.5 -37.5t-15.5 -37.5t-36.5 -15.5q-22 0 -37.5 15.5t-15.5 37.5t15.5 37.5t37.5 15.5zM553 803q21 0 36.5 -15.5t15.5 -37.5t-15 -37t-37 -15q-21 0 -37 15t-16 37t15.5 37.5t37.5 15.5zM553 553q21 0 36.5 -15.5t15.5 -37.5t-15 -37t-37 -15q-21 0 -37 15t-16 37
t15.5 37.5t37.5 15.5zM554 303q22 0 37 -15t15 -38q0 -22 -15 -37t-37 -15q-21 0 -37 15t-16 37t15.5 37.5t37.5 15.5zM553 -198q21 0 36.5 -15.5t15.5 -36.5q0 -22 -15.5 -37.5t-36.5 -15.5q-22 0 -37.5 15.5t-15.5 37.5t15 37t38 15z" />
    <glyph glyph-name="copyright" unicode="&#xa9;" 
d="M53 53q21 0 36.5 -15.5t15.5 -37.5t-15.5 -37.5t-36.5 -15.5q-22 0 -37.5 15.5t-15.5 37.5t15.5 37.5t37.5 15.5zM53 803q21 0 36.5 -15.5t15.5 -37.5t-15 -37t-37 -15q-21 0 -37 15t-16 37t15.5 37.5t37.5 15.5zM53 553q21 0 36.5 -15.5t15.5 -37.5t-15 -37t-37 -15
q-21 0 -37 15t-16 37t15.5 37.5t37.5 15.5zM54 303q22 0 37 -15t15 -38q0 -22 -15 -37t-37 -15q-21 0 -37 15t-16 37t15.5 37.5t37.5 15.5zM53 -198q21 0 36.5 -15.5t15.5 -36.5q0 -22 -15.5 -37.5t-36.5 -15.5q-22 0 -37.5 15.5t-15.5 37.5t15 37t38 15zM303 53
q21 0 36.5 -15.5t15.5 -37.5t-15.5 -37.5t-36.5 -15.5q-22 0 -37.5 15.5t-15.5 37.5t15.5 37.5t37.5 15.5zM303 803q21 0 36.5 -15.5t15.5 -37.5t-15 -37t-37 -15q-21 0 -37 15t-16 37t15.5 37.5t37.5 15.5zM303 553q21 0 36.5 -15.5t15.5 -37.5t-15 -37t-37 -15
q-21 0 -37 15t-16 37t15.5 37.5t37.5 15.5zM304 303q22 0 37 -15t15 -38q0 -22 -15 -37t-37 -15q-21 0 -37 15t-16 37t15.5 37.5t37.5 15.5zM303 -198q21 0 36.5 -15.5t15.5 -36.5q0 -22 -15.5 -37.5t-36.5 -15.5q-22 0 -37.5 15.5t-15.5 37.5t15 37t38 15zM428 678
q21 0 36.5 -15.5t15.5 -37.5t-15 -37t-37 -15q-21 0 -37 15t-16 37t15.5 37.5t37.5 15.5zM428 428q21 0 36.5 -15.5t15.5 -37.5t-15 -37t-37 -15q-21 0 -37 15t-16 37t15.5 37.5t37.5 15.5zM554 303q22 0 37 -15t15 -38q0 -22 -15 -37t-37 -15q-21 0 -37 15t-16 37
t15.5 37.5t37.5 15.5zM428 178q21 0 36.5 -15.5t15.5 -37.5t-15 -37t-37 -15q-21 0 -37 15t-16 37t15.5 37.5t37.5 15.5zM428 -73q21 0 36.5 -15.5t15.5 -36.5q0 -22 -15.5 -37.5t-36.5 -15.5q-22 0 -37.5 15.5t-15.5 37.5t15 37t38 15zM553 53q21 0 36.5 -15.5t15.5 -37.5
t-15.5 -37.5t-36.5 -15.5q-22 0 -37.5 15.5t-15.5 37.5t15.5 37.5t37.5 15.5zM553 803q21 0 36.5 -15.5t15.5 -37.5t-15 -37t-37 -15q-21 0 -37 15t-16 37t15.5 37.5t37.5 15.5zM553 553q21 0 36.5 -15.5t15.5 -37.5t-15 -37t-37 -15q-21 0 -37 15t-16 37t15.5 37.5
t37.5 15.5zM553 -198q21 0 36.5 -15.5t15.5 -36.5q0 -22 -15.5 -37.5t-36.5 -15.5q-22 0 -37.5 15.5t-15.5 37.5t15 37t38 15zM178 678q21 0 36.5 -15.5t15.5 -37.5t-15 -37t-37 -15q-21 0 -37 15t-16 37t15.5 37.5t37.5 15.5zM178 428q21 0 36.5 -15.5t15.5 -37.5t-15 -37
t-37 -15q-21 0 -37 15t-16 37t15.5 37.5t37.5 15.5zM178 178q21 0 36.5 -15.5t15.5 -37.5t-15 -37t-37 -15q-21 0 -37 15t-16 37t15.5 37.5t37.5 15.5zM178 -73q21 0 36.5 -15.5t15.5 -36.5q0 -22 -15.5 -37.5t-36.5 -15.5q-22 0 -37.5 15.5t-15.5 37.5t15 37t38 15z
M678 678q21 0 36.5 -15.5t15.5 -37.5t-15 -37t-37 -15q-21 0 -37 15t-16 37t15.5 37.5t37.5 15.5zM678 428q21 0 36.5 -15.5t15.5 -37.5t-15 -37t-37 -15q-21 0 -37 15t-16 37t15.5 37.5t37.5 15.5zM678 178q21 0 36.5 -15.5t15.5 -37.5t-15 -37t-37 -15q-21 0 -37 15
t-16 37t15.5 37.5t37.5 15.5zM678 -73q21 0 36.5 -15.5t15.5 -36.5q0 -22 -15.5 -37.5t-36.5 -15.5q-22 0 -37.5 15.5t-15.5 37.5t15 37t38 15z" />
    <glyph glyph-name="trademark" unicode="&#x2122;" 
d="M53 53q21 0 36.5 -15.5t15.5 -37.5t-15.5 -37.5t-36.5 -15.5q-22 0 -37.5 15.5t-15.5 37.5t15.5 37.5t37.5 15.5zM53 803q21 0 36.5 -15.5t15.5 -37.5t-15 -37t-37 -15q-21 0 -37 15t-16 37t15.5 37.5t37.5 15.5zM53 678q21 0 36.5 -15.5t15.5 -37.5t-15 -37t-37 -15
q-21 0 -37 15t-16 37t15.5 37.5t37.5 15.5zM53 553q21 0 36.5 -15.5t15.5 -37.5t-15 -37t-37 -15q-21 0 -37 15t-16 37t15.5 37.5t37.5 15.5zM53 428q21 0 36.5 -15.5t15.5 -37.5t-15 -37t-37 -15q-21 0 -37 15t-16 37t15.5 37.5t37.5 15.5zM54 303q22 0 37 -15t15 -38
q0 -22 -15 -37t-37 -15q-21 0 -37 15t-16 37t15.5 37.5t37.5 15.5zM53 178q21 0 36.5 -15.5t15.5 -37.5t-15 -37t-37 -15q-21 0 -37 15t-16 37t15.5 37.5t37.5 15.5zM53 -198q21 0 36.5 -15.5t15.5 -36.5q0 -22 -15.5 -37.5t-36.5 -15.5q-22 0 -37.5 15.5t-15.5 37.5t15 37
t38 15zM53 -73q21 0 36.5 -15.5t15.5 -36.5q0 -22 -15.5 -37.5t-36.5 -15.5q-22 0 -37.5 15.5t-15.5 37.5t15 37t38 15zM303 53q21 0 36.5 -15.5t15.5 -37.5t-15.5 -37.5t-36.5 -15.5q-22 0 -37.5 15.5t-15.5 37.5t15.5 37.5t37.5 15.5zM303 803q21 0 36.5 -15.5t15.5 -37.5
t-15 -37t-37 -15q-21 0 -37 15t-16 37t15.5 37.5t37.5 15.5zM303 678q21 0 36.5 -15.5t15.5 -37.5t-15 -37t-37 -15q-21 0 -37 15t-16 37t15.5 37.5t37.5 15.5zM303 553q21 0 36.5 -15.5t15.5 -37.5t-15 -37t-37 -15q-21 0 -37 15t-16 37t15.5 37.5t37.5 15.5zM303 428
q21 0 36.5 -15.5t15.5 -37.5t-15 -37t-37 -15q-21 0 -37 15t-16 37t15.5 37.5t37.5 15.5zM304 303q22 0 37 -15t15 -38q0 -22 -15 -37t-37 -15q-21 0 -37 15t-16 37t15.5 37.5t37.5 15.5zM303 178q21 0 36.5 -15.5t15.5 -37.5t-15 -37t-37 -15q-21 0 -37 15t-16 37
t15.5 37.5t37.5 15.5zM303 -198q21 0 36.5 -15.5t15.5 -36.5q0 -22 -15.5 -37.5t-36.5 -15.5q-22 0 -37.5 15.5t-15.5 37.5t15 37t38 15zM303 -73q21 0 36.5 -15.5t15.5 -36.5q0 -22 -15.5 -37.5t-36.5 -15.5q-22 0 -37.5 15.5t-15.5 37.5t15 37t38 15zM428 53
q21 0 36.5 -15.5t15.5 -37.5t-15.5 -37.5t-36.5 -15.5q-22 0 -37.5 15.5t-15.5 37.5t15.5 37.5t37.5 15.5zM428 803q21 0 36.5 -15.5t15.5 -37.5t-15 -37t-37 -15q-21 0 -37 15t-16 37t15.5 37.5t37.5 15.5zM428 678q21 0 36.5 -15.5t15.5 -37.5t-15 -37t-37 -15
q-21 0 -37 15t-16 37t15.5 37.5t37.5 15.5zM428 553q21 0 36.5 -15.5t15.5 -37.5t-15 -37t-37 -15q-21 0 -37 15t-16 37t15.5 37.5t37.5 15.5zM428 428q21 0 36.5 -15.5t15.5 -37.5t-15 -37t-37 -15q-21 0 -37 15t-16 37t15.5 37.5t37.5 15.5zM429 303q22 0 37 -15t15 -38
q0 -22 -15 -37t-37 -15q-21 0 -37 15t-16 37t15.5 37.5t37.5 15.5zM428 178q21 0 36.5 -15.5t15.5 -37.5t-15 -37t-37 -15q-21 0 -37 15t-16 37t15.5 37.5t37.5 15.5zM428 -198q21 0 36.5 -15.5t15.5 -36.5q0 -22 -15.5 -37.5t-36.5 -15.5q-22 0 -37.5 15.5t-15.5 37.5
t15 37t38 15zM428 -73q21 0 36.5 -15.5t15.5 -36.5q0 -22 -15.5 -37.5t-36.5 -15.5q-22 0 -37.5 15.5t-15.5 37.5t15 37t38 15zM553 53q21 0 36.5 -15.5t15.5 -37.5t-15.5 -37.5t-36.5 -15.5q-22 0 -37.5 15.5t-15.5 37.5t15.5 37.5t37.5 15.5zM553 803q21 0 36.5 -15.5
t15.5 -37.5t-15 -37t-37 -15q-21 0 -37 15t-16 37t15.5 37.5t37.5 15.5zM553 678q21 0 36.5 -15.5t15.5 -37.5t-15 -37t-37 -15q-21 0 -37 15t-16 37t15.5 37.5t37.5 15.5zM553 553q21 0 36.5 -15.5t15.5 -37.5t-15 -37t-37 -15q-21 0 -37 15t-16 37t15.5 37.5t37.5 15.5z
M553 428q21 0 36.5 -15.5t15.5 -37.5t-15 -37t-37 -15q-21 0 -37 15t-16 37t15.5 37.5t37.5 15.5zM554 303q22 0 37 -15t15 -38q0 -22 -15 -37t-37 -15q-21 0 -37 15t-16 37t15.5 37.5t37.5 15.5zM553 178q21 0 36.5 -15.5t15.5 -37.5t-15 -37t-37 -15q-21 0 -37 15t-16 37
t15.5 37.5t37.5 15.5zM553 -198q21 0 36.5 -15.5t15.5 -36.5q0 -22 -15.5 -37.5t-36.5 -15.5q-22 0 -37.5 15.5t-15.5 37.5t15 37t38 15zM553 -73q21 0 36.5 -15.5t15.5 -36.5q0 -22 -15.5 -37.5t-36.5 -15.5q-22 0 -37.5 15.5t-15.5 37.5t15 37t38 15zM178 53
q21 0 36.5 -15.5t15.5 -37.5t-15.5 -37.5t-36.5 -15.5q-22 0 -37.5 15.5t-15.5 37.5t15.5 37.5t37.5 15.5zM178 803q21 0 36.5 -15.5t15.5 -37.5t-15 -37t-37 -15q-21 0 -37 15t-16 37t15.5 37.5t37.5 15.5zM178 678q21 0 36.5 -15.5t15.5 -37.5t-15 -37t-37 -15
q-21 0 -37 15t-16 37t15.5 37.5t37.5 15.5zM178 553q21 0 36.5 -15.5t15.5 -37.5t-15 -37t-37 -15q-21 0 -37 15t-16 37t15.5 37.5t37.5 15.5zM178 428q21 0 36.5 -15.5t15.5 -37.5t-15 -37t-37 -15q-21 0 -37 15t-16 37t15.5 37.5t37.5 15.5zM179 303q22 0 37 -15t15 -38
q0 -22 -15 -37t-37 -15q-21 0 -37 15t-16 37t15.5 37.5t37.5 15.5zM178 178q21 0 36.5 -15.5t15.5 -37.5t-15 -37t-37 -15q-21 0 -37 15t-16 37t15.5 37.5t37.5 15.5zM178 -198q21 0 36.5 -15.5t15.5 -36.5q0 -22 -15.5 -37.5t-36.5 -15.5q-22 0 -37.5 15.5t-15.5 37.5
t15 37t38 15zM178 -73q21 0 36.5 -15.5t15.5 -36.5q0 -22 -15.5 -37.5t-36.5 -15.5q-22 0 -37.5 15.5t-15.5 37.5t15 37t38 15zM678 53q21 0 36.5 -15.5t15.5 -37.5t-15.5 -37.5t-36.5 -15.5q-22 0 -37.5 15.5t-15.5 37.5t15.5 37.5t37.5 15.5zM678 803q21 0 36.5 -15.5
t15.5 -37.5t-15 -37t-37 -15q-21 0 -37 15t-16 37t15.5 37.5t37.5 15.5zM678 678q21 0 36.5 -15.5t15.5 -37.5t-15 -37t-37 -15q-21 0 -37 15t-16 37t15.5 37.5t37.5 15.5zM678 553q21 0 36.5 -15.5t15.5 -37.5t-15 -37t-37 -15q-21 0 -37 15t-16 37t15.5 37.5t37.5 15.5z
M678 428q21 0 36.5 -15.5t15.5 -37.5t-15 -37t-37 -15q-21 0 -37 15t-16 37t15.5 37.5t37.5 15.5zM679 303q22 0 37 -15t15 -38q0 -22 -15 -37t-37 -15q-21 0 -37 15t-16 37t15.5 37.5t37.5 15.5zM678 178q21 0 36.5 -15.5t15.5 -37.5t-15 -37t-37 -15q-21 0 -37 15t-16 37
t15.5 37.5t37.5 15.5zM678 -198q21 0 36.5 -15.5t15.5 -36.5q0 -22 -15.5 -37.5t-36.5 -15.5q-22 0 -37.5 15.5t-15.5 37.5t15 37t38 15zM678 -73q21 0 36.5 -15.5t15.5 -36.5q0 -22 -15.5 -37.5t-36.5 -15.5q-22 0 -37.5 15.5t-15.5 37.5t15 37t38 15z" />
    <glyph glyph-name="acute" unicode="&#xb4;" 
d="M240 678q22 0 37.5 -15.5t15.5 -37.5t-15 -37t-38 -15q-22 0 -37 15t-15 37q0 21 15 37t37 16zM303 803q21 0 36.5 -15.5t15.5 -37.5t-15 -37t-37 -15q-21 0 -37 15t-16 37t15.5 37.5t37.5 15.5z" />
    <glyph glyph-name="dieresis" unicode="&#xa8;" 
d="M178 803q21 0 36.5 -15.5t15.5 -37.5t-15 -37t-37 -15q-21 0 -37 15t-16 37t15.5 37.5t37.5 15.5zM428 803q21 0 36.5 -15.5t15.5 -37.5t-15 -37t-37 -15q-21 0 -37 15t-16 37t15.5 37.5t37.5 15.5z" />
    <glyph glyph-name="AE" unicode="&#xc6;" 
d="M303 803q21 0 36.5 -15.5t15.5 -37.5t-15 -37t-37 -15q-21 0 -37 15t-16 37t15.5 37.5t37.5 15.5zM303 303q21 0 36.5 -15.5t15.5 -37.5t-15 -37t-37 -15q-21 0 -37 15t-16 37t15.5 37.5t37.5 15.5zM53 53q21 0 36.5 -15.5t15.5 -37.5t-15.5 -37.5t-36.5 -15.5
q-22 0 -37.5 15.5t-15.5 37.5t15.5 37.5t37.5 15.5zM178 303q21 0 36.5 -15.5t15.5 -37.5t-15 -37t-37 -15q-21 0 -37 15t-16 37t15.5 37.5t37.5 15.5zM428 53q21 0 36.5 -15.5t15.5 -37.5t-15.5 -37.5t-36.5 -15.5q-22 0 -37.5 15.5t-15.5 37.5t15.5 37.5t37.5 15.5z
M240 678q22 0 37.5 -15.5t15.5 -37.5t-15 -37t-38 -15q-22 0 -37 15t-15 37q0 21 15 37t37 16zM178 553q21 0 36.5 -15.5t15.5 -37.5t-15 -37t-37 -15q-21 0 -37 15t-16 37t15.5 37.5t37.5 15.5zM115 428q22 0 37.5 -15.5t15.5 -37.5t-15 -37t-38 -15q-22 0 -37 15t-15 37
q0 21 15 37t37 16zM51 303q22 0 37.5 -15.5t15.5 -37.5t-15 -37t-38 -15q-21 0 -36.5 15.5t-15.5 36.5q0 22 15.5 37.5t36.5 15.5zM53 178q21 0 36.5 -15.5t15.5 -37.5t-15 -37t-37 -15q-21 0 -37 15t-16 37t15.5 37.5t37.5 15.5zM303 53q21 0 36.5 -15.5t15.5 -37.5
t-15.5 -37.5t-36.5 -15.5q-22 0 -37.5 15.5t-15.5 37.5t15.5 37.5t37.5 15.5zM303 553q21 0 36.5 -15.5t15.5 -37.5t-15 -37t-37 -15q-21 0 -37 15t-16 37t15.5 37.5t37.5 15.5zM303 428q21 0 36.5 -15.5t15.5 -37.5t-15 -37t-37 -15q-21 0 -37 15t-16 37t15.5 37.5
t37.5 15.5zM551 53q22 0 37.5 -15.5t15.5 -37.5t-15.5 -37.5t-37.5 -15.5q-21 0 -36.5 15.5t-15.5 37.5t15.5 37.5t36.5 15.5zM303 178q21 0 36.5 -15.5t15.5 -37.5t-15 -37t-37 -15q-21 0 -37 15t-16 37t15.5 37.5t37.5 15.5zM428 803q21 0 36.5 -15.5t15.5 -37.5t-15 -37
t-37 -15q-21 0 -37 15t-16 37t15.5 37.5t37.5 15.5zM551 803q22 0 37.5 -15.5t15.5 -37.5t-15 -37t-38 -15q-21 0 -36.5 15.5t-15.5 36.5q0 22 15.5 37.5t36.5 15.5zM428 428q21 0 36.5 -15.5t15.5 -37.5t-15 -37t-37 -15q-21 0 -37 15t-16 37t15.5 37.5t37.5 15.5zM551 428
q22 0 37.5 -15.5t15.5 -37.5t-15 -37t-38 -15q-21 0 -36.5 15.5t-15.5 36.5q0 22 15.5 37.5t36.5 15.5z" />
    <glyph glyph-name="Oslash" unicode="&#xd8;" 
d="M553 678q21 0 36.5 -15.5t15.5 -37.5t-15 -37t-37 -15q-21 0 -37 15t-16 37t15.5 37.5t37.5 15.5zM553 553q21 0 36.5 -15.5t15.5 -37.5t-15 -37t-37 -15q-21 0 -37 15t-16 37t15.5 37.5t37.5 15.5zM303 803q21 0 36.5 -15.5t15.5 -37.5t-15 -37t-37 -15q-21 0 -37 15
t-16 37t15.5 37.5t37.5 15.5zM553 428q21 0 36.5 -15.5t15.5 -37.5t-15 -37t-37 -15q-21 0 -37 15t-16 37t15.5 37.5t37.5 15.5zM551 303q22 0 37.5 -15.5t15.5 -37.5t-15 -37t-38 -15q-21 0 -36.5 15.5t-15.5 36.5q0 22 15.5 37.5t36.5 15.5zM553 178q21 0 36.5 -15.5
t15.5 -37.5t-15 -37t-37 -15q-21 0 -37 15t-16 37t15.5 37.5t37.5 15.5zM303 53q21 0 36.5 -15.5t15.5 -37.5t-15.5 -37.5t-36.5 -15.5q-22 0 -37.5 15.5t-15.5 37.5t15.5 37.5t37.5 15.5zM178 53q21 0 36.5 -15.5t15.5 -37.5t-15.5 -37.5t-36.5 -15.5q-22 0 -37.5 15.5
t-15.5 37.5t15.5 37.5t37.5 15.5zM178 803q21 0 36.5 -15.5t15.5 -37.5t-15 -37t-37 -15q-21 0 -37 15t-16 37t15.5 37.5t37.5 15.5zM428 53q21 0 36.5 -15.5t15.5 -37.5t-15.5 -37.5t-36.5 -15.5q-22 0 -37.5 15.5t-15.5 37.5t15.5 37.5t37.5 15.5zM428 803
q21 0 36.5 -15.5t15.5 -37.5t-15 -37t-37 -15q-21 0 -37 15t-16 37t15.5 37.5t37.5 15.5zM53 678q21 0 36.5 -15.5t15.5 -37.5t-15 -37t-37 -15q-21 0 -37 15t-16 37t15.5 37.5t37.5 15.5zM53 553q21 0 36.5 -15.5t15.5 -37.5t-15 -37t-37 -15q-21 0 -37 15t-16 37
t15.5 37.5t37.5 15.5zM53 428q21 0 36.5 -15.5t15.5 -37.5t-15 -37t-37 -15q-21 0 -37 15t-16 37t15.5 37.5t37.5 15.5zM51 303q22 0 37.5 -15.5t15.5 -37.5t-15 -37t-38 -15q-21 0 -36.5 15.5t-15.5 36.5q0 22 15.5 37.5t36.5 15.5zM53 178q21 0 36.5 -15.5t15.5 -37.5
t-15 -37t-37 -15q-21 0 -37 15t-16 37t15.5 37.5t37.5 15.5zM303 428q21 0 36.5 -15.5t15.5 -37.5t-15 -37t-37 -15q-21 0 -37 15t-16 37t15.5 37.5t37.5 15.5zM428 678q21 0 36.5 -15.5t15.5 -37.5t-15 -37t-37 -15q-21 0 -37 15t-16 37t15.5 37.5t37.5 15.5zM178 178
q21 0 36.5 -15.5t15.5 -37.5t-15 -37t-37 -15q-21 0 -37 15t-16 37t15.5 37.5t37.5 15.5zM240 303q22 0 37.5 -15.5t15.5 -37.5t-15 -37t-38 -15q-22 0 -37 15t-15 37q0 21 15 37t37 16zM365 553q22 0 37.5 -15.5t15.5 -37.5t-15 -37t-38 -15q-22 0 -37 15t-15 37
q0 21 15 37t37 16zM553 803q21 0 36.5 -15.5t15.5 -37.5t-15 -37t-37 -15q-21 0 -37 15t-16 37t15.5 37.5t37.5 15.5zM53 53q21 0 36.5 -15.5t15.5 -37.5t-15.5 -37.5t-36.5 -15.5q-22 0 -37.5 15.5t-15.5 37.5t15.5 37.5t37.5 15.5z" />
    <glyph glyph-name="plusminus" unicode="&#xb1;" 
d="M303 428q21 0 36.5 -15.5t15.5 -37.5t-15 -37t-37 -15q-21 0 -37 15t-16 37t15.5 37.5t37.5 15.5zM178 428q21 0 36.5 -15.5t15.5 -37.5t-15 -37t-37 -15q-21 0 -37 15t-16 37t15.5 37.5t37.5 15.5zM428 428q21 0 36.5 -15.5t15.5 -37.5t-15 -37t-37 -15q-21 0 -37 15
t-16 37t15.5 37.5t37.5 15.5zM303 303q21 0 36.5 -15.5t15.5 -37.5t-15 -37t-37 -15q-21 0 -37 15t-16 37t15.5 37.5t37.5 15.5zM303 553q21 0 36.5 -15.5t15.5 -37.5t-15 -37t-37 -15q-21 0 -37 15t-16 37t15.5 37.5t37.5 15.5zM249 0q0 22 15.5 37.5t36.5 15.5
q22 0 37.5 -15.5t15.5 -37.5t-15.5 -37.5t-37.5 -15.5q-21 0 -36.5 15.5t-15.5 37.5zM249 625q0 22 15.5 37.5t36.5 15.5q22 0 37.5 -15.5t15.5 -37.5t-15 -37t-38 -15q-21 0 -36.5 15.5t-15.5 36.5zM51 428q22 0 37.5 -15.5t15.5 -37.5t-15 -37t-38 -15q-21 0 -36.5 15.5
t-15.5 36.5q0 22 15.5 37.5t36.5 15.5zM551 428q22 0 37.5 -15.5t15.5 -37.5t-15 -37t-38 -15q-21 0 -36.5 15.5t-15.5 36.5q0 22 15.5 37.5t36.5 15.5zM303 178q21 0 36.5 -15.5t15.5 -37.5t-15 -37t-37 -15q-21 0 -37 15t-16 37t15.5 37.5t37.5 15.5zM178 53
q21 0 36.5 -15.5t15.5 -37.5t-15.5 -37.5t-36.5 -15.5q-22 0 -37.5 15.5t-15.5 37.5t15.5 37.5t37.5 15.5zM428 53q21 0 36.5 -15.5t15.5 -37.5t-15.5 -37.5t-36.5 -15.5q-22 0 -37.5 15.5t-15.5 37.5t15.5 37.5t37.5 15.5zM51 53q22 0 37.5 -15.5t15.5 -37.5t-15.5 -37.5
t-37.5 -15.5q-21 0 -36.5 15.5t-15.5 37.5t15.5 37.5t36.5 15.5zM551 53q22 0 37.5 -15.5t15.5 -37.5t-15.5 -37.5t-37.5 -15.5q-21 0 -36.5 15.5t-15.5 37.5t15.5 37.5t36.5 15.5z" />
    <glyph glyph-name="yen" unicode="&#xa5;" 
d="M365 678q22 0 37.5 -15.5t15.5 -37.5t-15 -37t-38 -15q-22 0 -37 15t-15 37q0 21 15 37t37 16zM178 553q21 0 36.5 -15.5t15.5 -37.5t-15 -37t-37 -15q-21 0 -37 15t-16 37t15.5 37.5t37.5 15.5zM428 553q21 0 36.5 -15.5t15.5 -37.5t-15 -37t-37 -15q-21 0 -37 15
t-16 37t15.5 37.5t37.5 15.5zM303 303q21 0 36.5 -15.5t15.5 -37.5t-15 -37t-37 -15q-21 0 -37 15t-16 37t15.5 37.5t37.5 15.5zM303 53q21 0 36.5 -15.5t15.5 -37.5t-15.5 -37.5t-36.5 -15.5q-22 0 -37.5 15.5t-15.5 37.5t15.5 37.5t37.5 15.5zM303 178q21 0 36.5 -15.5
t15.5 -37.5t-15 -37t-37 -15q-21 0 -37 15t-16 37t15.5 37.5t37.5 15.5zM115 803q22 0 37.5 -15.5t15.5 -37.5t-15 -37t-38 -15q-22 0 -37 15t-15 37q0 21 15 37t37 16zM240 678q22 0 37.5 -15.5t15.5 -37.5t-15 -37t-38 -15q-22 0 -37 15t-15 37q0 21 15 37t37 16zM303 553
q21 0 36.5 -15.5t15.5 -37.5t-15 -37t-37 -15q-21 0 -37 15t-16 37t15.5 37.5t37.5 15.5zM303 428q21 0 36.5 -15.5t15.5 -37.5t-15 -37t-37 -15q-21 0 -37 15t-16 37t15.5 37.5t37.5 15.5zM178 303q21 0 36.5 -15.5t15.5 -37.5t-15 -37t-37 -15q-21 0 -37 15t-16 37
t15.5 37.5t37.5 15.5zM428 303q21 0 36.5 -15.5t15.5 -37.5t-15 -37t-37 -15q-21 0 -37 15t-16 37t15.5 37.5t37.5 15.5zM490 803q22 0 37.5 -15.5t15.5 -37.5t-15 -37t-38 -15q-22 0 -37 15t-15 37q0 21 15 37t37 16z" />
    <glyph glyph-name="mu" unicode="&#xb5;" 
d="M304 53q22 0 37 -15t15 -38q0 -21 -15 -37t-37 -16t-37.5 15.5t-15.5 37.5t15.5 37.5t37.5 15.5zM429 53q22 0 37 -15t15 -38q0 -21 -15 -37t-37 -16t-37.5 15.5t-15.5 37.5t15.5 37.5t37.5 15.5zM491 553q22 0 37.5 -15.5t15.5 -37.5t-15 -37t-38 -15q-21 0 -36.5 15.5
t-15.5 36.5q0 22 15.5 37.5t36.5 15.5zM241 178q22 0 37.5 -15.5t15.5 -37.5t-15 -37t-38 -15q-21 0 -36.5 15.5t-15.5 36.5q0 22 15.5 37.5t36.5 15.5zM116 553q22 0 37.5 -15.5t15.5 -37.5t-15 -37t-38 -15q-21 0 -36.5 15.5t-15.5 36.5q0 22 15.5 37.5t36.5 15.5z
M115 428q22 0 37.5 -15.5t15.5 -37.5t-15 -37t-38 -15q-22 0 -37 15t-15 37q0 21 15 37t37 16zM116 303q22 0 37.5 -15.5t15.5 -37.5t-15 -37t-38 -15q-21 0 -36.5 15.5t-15.5 36.5q0 22 15.5 37.5t36.5 15.5zM115 53q22 0 37.5 -15.5t15.5 -37.5t-15.5 -37.5t-37.5 -15.5
t-37 15t-15 38q0 21 15 37t37 16zM491 428q22 0 37.5 -15.5t15.5 -37.5t-15 -37t-38 -15q-21 0 -36.5 15.5t-15.5 36.5q0 22 15.5 37.5t36.5 15.5zM493 303q21 0 36.5 -15.5t15.5 -37.5t-15 -37t-37 -15q-21 0 -37 15t-16 37t15.5 37.5t37.5 15.5zM491 178q22 0 37.5 -15.5
t15.5 -37.5t-15 -37t-38 -15q-21 0 -36.5 15.5t-15.5 36.5q0 22 15.5 37.5t36.5 15.5zM115 178q22 0 37.5 -15.5t15.5 -37.5t-15 -37t-38 -15q-22 0 -37 15t-15 37q0 21 15 37t37 16zM53 -73q21 0 36.5 -15.5t15.5 -36.5q0 -22 -15.5 -37.5t-36.5 -15.5q-22 0 -37.5 15.5
t-15.5 37.5t15 37t38 15zM554 53q22 0 37 -15t15 -38q0 -21 -15 -37t-37 -16t-37.5 15.5t-15.5 37.5t15.5 37.5t37.5 15.5z" />
    <glyph glyph-name="ordfeminine" unicode="&#xaa;" 
d="M178 553q21 0 36.5 -15.5t15.5 -37.5t-15 -37t-37 -15q-21 0 -37 15t-16 37t15.5 37.5t37.5 15.5zM178 803q21 0 36.5 -15.5t15.5 -37.5t-15 -37t-37 -15q-21 0 -37 15t-16 37t15.5 37.5t37.5 15.5zM115 678q22 0 37.5 -15.5t15.5 -37.5t-15 -37t-38 -15q-22 0 -37 15
t-15 37q0 21 15 37t37 16zM365 678q22 0 37.5 -15.5t15.5 -37.5t-15 -37t-38 -15q-22 0 -37 15t-15 37q0 21 15 37t37 16zM303 803q21 0 36.5 -15.5t15.5 -37.5t-15 -37t-37 -15q-21 0 -37 15t-16 37t15.5 37.5t37.5 15.5zM365 553q22 0 37.5 -15.5t15.5 -37.5t-15 -37
t-38 -15q-22 0 -37 15t-15 37q0 21 15 37t37 16zM303 303q21 0 36.5 -15.5t15.5 -37.5t-15 -37t-37 -15q-21 0 -37 15t-16 37t15.5 37.5t37.5 15.5zM178 303q21 0 36.5 -15.5t15.5 -37.5t-15 -37t-37 -15q-21 0 -37 15t-16 37t15.5 37.5t37.5 15.5zM428 303q21 0 36.5 -15.5
t15.5 -37.5t-15 -37t-37 -15q-21 0 -37 15t-16 37t15.5 37.5t37.5 15.5zM51 303q22 0 37.5 -15.5t15.5 -37.5t-15 -37t-38 -15q-21 0 -36.5 15.5t-15.5 36.5q0 22 15.5 37.5t36.5 15.5z" />
    <glyph glyph-name="ordmasculine" unicode="&#xba;" 
d="M178 553q21 0 36.5 -15.5t15.5 -37.5t-15 -37t-37 -15q-21 0 -37 15t-16 37t15.5 37.5t37.5 15.5zM178 803q21 0 36.5 -15.5t15.5 -37.5t-15 -37t-37 -15q-21 0 -37 15t-16 37t15.5 37.5t37.5 15.5zM115 678q22 0 37.5 -15.5t15.5 -37.5t-15 -37t-38 -15q-22 0 -37 15
t-15 37q0 21 15 37t37 16zM365 678q22 0 37.5 -15.5t15.5 -37.5t-15 -37t-38 -15q-22 0 -37 15t-15 37q0 21 15 37t37 16zM303 803q21 0 36.5 -15.5t15.5 -37.5t-15 -37t-37 -15q-21 0 -37 15t-16 37t15.5 37.5t37.5 15.5zM303 553q21 0 36.5 -15.5t15.5 -37.5t-15 -37
t-37 -15q-21 0 -37 15t-16 37t15.5 37.5t37.5 15.5zM303 303q21 0 36.5 -15.5t15.5 -37.5t-15 -37t-37 -15q-21 0 -37 15t-16 37t15.5 37.5t37.5 15.5zM178 303q21 0 36.5 -15.5t15.5 -37.5t-15 -37t-37 -15q-21 0 -37 15t-16 37t15.5 37.5t37.5 15.5zM428 303
q21 0 36.5 -15.5t15.5 -37.5t-15 -37t-37 -15q-21 0 -37 15t-16 37t15.5 37.5t37.5 15.5zM51 303q22 0 37.5 -15.5t15.5 -37.5t-15 -37t-38 -15q-21 0 -36.5 15.5t-15.5 36.5q0 22 15.5 37.5t36.5 15.5z" />
    <glyph glyph-name="ae" unicode="&#xe6;" 
d="M178 115q21 0 36.5 -15.5t15.5 -36.5q0 -22 -15.5 -37.5t-36.5 -15.5q-22 0 -37.5 15.5t-15.5 37.5q0 21 15.5 36.5t37.5 15.5zM178 553q21 0 36.5 -15.5t15.5 -37.5t-15 -37t-37 -15q-21 0 -37 15t-16 37t15.5 37.5t37.5 15.5zM303 53q21 0 36.5 -15.5t15.5 -37.5
t-15.5 -37.5t-36.5 -15.5q-22 0 -37.5 15.5t-15.5 37.5t15.5 37.5t37.5 15.5zM301 303q22 0 37.5 -15.5t15.5 -37.5t-15 -37t-38 -15q-21 0 -36.5 15.5t-15.5 36.5q0 22 15.5 37.5t36.5 15.5zM303 178q21 0 36.5 -15.5t15.5 -37.5t-15 -37t-37 -15q-21 0 -37 15t-16 37
t15.5 37.5t37.5 15.5zM53 428q21 0 36.5 -15.5t15.5 -37.5t-15 -37t-37 -15q-21 0 -37 15t-16 37t15.5 37.5t37.5 15.5zM51 303q22 0 37.5 -15.5t15.5 -37.5t-15 -37t-38 -15q-21 0 -36.5 15.5t-15.5 36.5q0 22 15.5 37.5t36.5 15.5zM53 178q21 0 36.5 -15.5t15.5 -37.5
t-15 -37t-37 -15q-21 0 -37 15t-16 37t15.5 37.5t37.5 15.5zM303 553q21 0 36.5 -15.5t15.5 -37.5t-15 -37t-37 -15q-21 0 -37 15t-16 37t15.5 37.5t37.5 15.5zM303 428q21 0 36.5 -15.5t15.5 -37.5t-15 -37t-37 -15q-21 0 -37 15t-16 37t15.5 37.5t37.5 15.5zM428 53
q21 0 36.5 -15.5t15.5 -37.5t-15.5 -37.5t-36.5 -15.5q-22 0 -37.5 15.5t-15.5 37.5t15.5 37.5t37.5 15.5zM428 303q21 0 36.5 -15.5t15.5 -37.5t-15 -37t-37 -15q-21 0 -37 15t-16 37t15.5 37.5t37.5 15.5zM554 428q22 0 37 -15t15 -38q0 -22 -15 -37t-37 -15q-21 0 -37 15
t-16 37t15.5 37.5t37.5 15.5zM553 303q21 0 36.5 -15.5t15.5 -37.5t-15 -37t-37 -15q-21 0 -37 15t-16 37t15.5 37.5t37.5 15.5zM428 553q21 0 36.5 -15.5t15.5 -37.5t-15 -37t-37 -15q-21 0 -37 15t-16 37t15.5 37.5t37.5 15.5zM53 53q21 0 36.5 -15.5t15.5 -37.5
t-15.5 -37.5t-36.5 -15.5q-22 0 -37.5 15.5t-15.5 37.5t15.5 37.5t37.5 15.5z" />
    <glyph glyph-name="oslash" unicode="&#xf8;" 
d="M303 553q21 0 36.5 -15.5t15.5 -37.5t-15 -37t-37 -15q-21 0 -37 15t-16 37t15.5 37.5t37.5 15.5zM303 53q21 0 36.5 -15.5t15.5 -37.5t-15.5 -37.5t-36.5 -15.5q-22 0 -37.5 15.5t-15.5 37.5t15.5 37.5t37.5 15.5zM178 53q21 0 36.5 -15.5t15.5 -37.5t-15.5 -37.5
t-36.5 -15.5q-22 0 -37.5 15.5t-15.5 37.5t15.5 37.5t37.5 15.5zM178 553q21 0 36.5 -15.5t15.5 -37.5t-15 -37t-37 -15q-21 0 -37 15t-16 37t15.5 37.5t37.5 15.5zM428 53q21 0 36.5 -15.5t15.5 -37.5t-15.5 -37.5t-36.5 -15.5q-22 0 -37.5 15.5t-15.5 37.5t15.5 37.5
t37.5 15.5zM428 553q21 0 36.5 -15.5t15.5 -37.5t-15 -37t-37 -15q-21 0 -37 15t-16 37t15.5 37.5t37.5 15.5zM554 428q22 0 37 -15t15 -38q0 -22 -15 -37t-37 -15q-21 0 -37 15t-16 37t15.5 37.5t37.5 15.5zM553 303q21 0 36.5 -15.5t15.5 -37.5t-15 -37t-37 -15
q-21 0 -37 15t-16 37t15.5 37.5t37.5 15.5zM554 178q22 0 37 -15t15 -38q0 -22 -15 -37t-37 -15q-21 0 -37 15t-16 37t15.5 37.5t37.5 15.5zM53 428q21 0 36.5 -15.5t15.5 -37.5t-15 -37t-37 -15q-21 0 -37 15t-16 37t15.5 37.5t37.5 15.5zM51 303q22 0 37.5 -15.5
t15.5 -37.5t-15 -37t-38 -15q-21 0 -36.5 15.5t-15.5 36.5q0 22 15.5 37.5t36.5 15.5zM53 178q21 0 36.5 -15.5t15.5 -37.5t-15 -37t-37 -15q-21 0 -37 15t-16 37t15.5 37.5t37.5 15.5zM428 428q21 0 36.5 -15.5t15.5 -37.5t-15 -37t-37 -15q-21 0 -37 15t-16 37t15.5 37.5
t37.5 15.5zM178 178q21 0 36.5 -15.5t15.5 -37.5t-15 -37t-37 -15q-21 0 -37 15t-16 37t15.5 37.5t37.5 15.5zM53 53q21 0 36.5 -15.5t15.5 -37.5t-15.5 -37.5t-36.5 -15.5q-22 0 -37.5 15.5t-15.5 37.5t15.5 37.5t37.5 15.5zM303 303q21 0 36.5 -15.5t15.5 -37.5t-15 -37
t-37 -15q-21 0 -37 15t-16 37t15.5 37.5t37.5 15.5zM553 553q21 0 36.5 -15.5t15.5 -37.5t-15 -37t-37 -15q-21 0 -37 15t-16 37t15.5 37.5t37.5 15.5z" />
    <glyph glyph-name="questiondown" unicode="&#xbf;" 
d="M53 73q-21 0 -37 15t-16 37t15.5 37.5t37.5 15.5q21 0 36.5 -15.5t15.5 -37.5t-15 -37t-37 -15zM53 198q-21 0 -37 15t-16 37t15.5 37.5t37.5 15.5q21 0 36.5 -15.5t15.5 -37.5t-15 -37t-37 -15zM303 323q-21 0 -37 15t-16 37t15.5 37.5t37.5 15.5q21 0 36.5 -15.5
t15.5 -37.5t-15 -37t-37 -15zM304 448q-21 0 -37 15t-16 37t15.5 37.5t37.5 15.5t37 -15t15 -38q0 -22 -15 -37t-37 -15zM303 698q-21 0 -37 15t-16 37t15.5 37.5t37.5 15.5q21 0 36.5 -15.5t15.5 -37.5t-15 -37t-37 -15zM178 323q-21 0 -37 15t-16 37t15.5 37.5t37.5 15.5
q21 0 36.5 -15.5t15.5 -37.5t-15 -37t-37 -15zM553 73q-21 0 -37 15t-16 37t15.5 37.5t37.5 15.5q21 0 36.5 -15.5t15.5 -37.5t-15 -37t-37 -15zM303 -53q-22 0 -37.5 15.5t-15.5 37.5t15.5 37.5t37.5 15.5q21 0 36.5 -15.5t15.5 -37.5t-15.5 -37.5t-36.5 -15.5zM428 -53
q-22 0 -37.5 15.5t-15.5 37.5t15.5 37.5t37.5 15.5q21 0 36.5 -15.5t15.5 -37.5t-15.5 -37.5t-36.5 -15.5zM178 -53q-22 0 -37.5 15.5t-15.5 37.5t15.5 37.5t37.5 15.5q21 0 36.5 -15.5t15.5 -37.5t-15.5 -37.5t-36.5 -15.5z" />
    <glyph glyph-name="exclamdown" unicode="&#xa1;" 
d="M178 53q21 0 36.5 -15.5t15.5 -37.5t-15.5 -37.5t-36.5 -15.5q-22 0 -37.5 15.5t-15.5 37.5t15.5 37.5t37.5 15.5zM178 178q21 0 36.5 -15.5t15.5 -37.5t-15 -37t-37 -15q-21 0 -37 15t-16 37t15.5 37.5t37.5 15.5zM176 303q22 0 37.5 -15.5t15.5 -37.5t-15 -37t-38 -15
q-21 0 -36.5 15.5t-15.5 36.5q0 22 15.5 37.5t36.5 15.5zM178 553q21 0 36.5 -15.5t15.5 -37.5t-15 -37t-37 -15q-21 0 -37 15t-16 37t15.5 37.5t37.5 15.5zM178 428q21 0 36.5 -15.5t15.5 -37.5t-15 -37t-37 -15q-21 0 -37 15t-16 37t15.5 37.5t37.5 15.5zM178 803
q21 0 36.5 -15.5t15.5 -37.5t-15 -37t-37 -15q-21 0 -37 15t-16 37t15.5 37.5t37.5 15.5z" />
    <glyph glyph-name="logicalnot" unicode="&#xac;" 
d="M303 428q21 0 36.5 -15.5t15.5 -37.5t-15 -37t-37 -15q-21 0 -37 15t-16 37t15.5 37.5t37.5 15.5zM178 428q21 0 36.5 -15.5t15.5 -37.5t-15 -37t-37 -15q-21 0 -37 15t-16 37t15.5 37.5t37.5 15.5zM428 428q21 0 36.5 -15.5t15.5 -37.5t-15 -37t-37 -15q-21 0 -37 15
t-16 37t15.5 37.5t37.5 15.5zM51 428q22 0 37.5 -15.5t15.5 -37.5t-15 -37t-38 -15q-21 0 -36.5 15.5t-15.5 36.5q0 22 15.5 37.5t36.5 15.5zM551 428q22 0 37.5 -15.5t15.5 -37.5t-15 -37t-38 -15q-21 0 -36.5 15.5t-15.5 36.5q0 22 15.5 37.5t36.5 15.5zM551 303
q22 0 37.5 -15.5t15.5 -37.5t-15 -37t-38 -15q-21 0 -36.5 15.5t-15.5 36.5q0 22 15.5 37.5t36.5 15.5z" />
    <glyph glyph-name="florin" unicode="&#x192;" 
d="M303 53q21 0 36.5 -15.5t15.5 -37.5t-15.5 -37.5t-36.5 -15.5q-22 0 -37.5 15.5t-15.5 37.5t15.5 37.5t37.5 15.5zM303 678q21 0 36.5 -15.5t15.5 -37.5t-15 -37t-37 -15q-21 0 -37 15t-16 37t15.5 37.5t37.5 15.5zM301 303q22 0 37.5 -15.5t15.5 -37.5t-15 -37t-38 -15
q-21 0 -36.5 15.5t-15.5 36.5q0 22 15.5 37.5t36.5 15.5zM303 178q21 0 36.5 -15.5t15.5 -37.5t-15 -37t-37 -15q-21 0 -37 15t-16 37t15.5 37.5t37.5 15.5zM303 553q21 0 36.5 -15.5t15.5 -37.5t-15 -37t-37 -15q-21 0 -37 15t-16 37t15.5 37.5t37.5 15.5zM428 428
q21 0 36.5 -15.5t15.5 -37.5t-15 -37t-37 -15q-21 0 -37 15t-16 37t15.5 37.5t37.5 15.5zM365 803q22 0 37.5 -15.5t15.5 -37.5t-15 -37t-38 -15q-22 0 -37 15t-15 37q0 21 15 37t37 16zM240 -198q21 0 37 -15t16 -37t-15.5 -37.5t-37.5 -15.5t-37 15t-15 38q0 22 15 37
t37 15zM303 -73q21 0 36.5 -15.5t15.5 -36.5q0 -22 -15.5 -37.5t-36.5 -15.5q-22 0 -37.5 15.5t-15.5 37.5t15 37t38 15zM303 428q21 0 36.5 -15.5t15.5 -37.5t-15 -37t-37 -15q-21 0 -37 15t-16 37t15.5 37.5t37.5 15.5zM178 428q21 0 36.5 -15.5t15.5 -37.5t-15 -37
t-37 -15q-21 0 -37 15t-16 37t15.5 37.5t37.5 15.5z" />
    </font>
</defs>
</svg>
